<svg version="1.1" xmlns="http://www.w3.org/2000/svg" xmlns:xlink="http://www.w3.org/1999/xlink" width="114" height="108" viewBox="0,0,114,108"><g transform="translate(-183,-126)"><g data-paper-data="{&quot;isPaintingLayer&quot;:true}" fill-rule="nonzero" stroke-linecap="butt" stroke-linejoin="miter" stroke-miterlimit="10" stroke-dasharray="" stroke-dashoffset="0" style="mix-blend-mode: normal"><path d="M184.5,232.5v-105h111v105z" fill="#ffffff" stroke="#000000" stroke-width="3"/><g stroke="none"><path d="M241.53791,139.78922c-0.37627,0.44633 -0.85024,1.15935 -0.9974,1.62343c-0.17679,0.55931 -0.24191,1.2348 -0.09727,1.78707c0.08204,0.31119 0.12282,0.67636 0.26421,0.98009c0.1092,0.23657 0.22377,0.43319 0.31033,0.67883c0.10512,0.29631 0.3767,0.46941 0.50035,0.76039c0.08584,0.20071 0.40426,0.43249 0.53383,0.9515c-0.01554,0.00811 -0.2271,0.46322 -0.24984,0.5009c-0.16117,0.26707 -0.08121,0.50447 -0.0272,0.78599c0.03208,0.168 0.06446,0.29362 0.11049,0.40784c-0.72092,-0.02974 -1.66672,0.14924 -1.8238,0.13084c-0.35963,-0.04295 -1.78323,0.15083 -2.40491,-0.2824c0.06253,-0.00457 0.13048,-0.0186 0.20415,-0.0446c0.61366,-0.21659 0.39708,-0.83025 0.39708,-0.83025c-0.07777,-0.21503 -0.13554,-0.40947 -0.17842,-0.59574c0.17341,-0.07516 0.36013,-0.23702 0.36013,-0.58561c0,-0.2759 -0.11698,-0.43483 -0.25174,-0.52638c-0.08142,-0.14198 -0.15846,-0.27956 -0.23031,-0.41342v-0.69915c0,-0.32062 -0.23187,-0.58709 -0.53707,-0.64086c-0.1224,-0.60425 -0.02269,-1.1742 0.41522,-1.80645c0.11035,-0.02538 0.21291,-0.06026 0.27663,-0.14524c0.07126,-0.09503 0.09675,-0.20955 0.10659,-0.33073c0.03847,-0.04216 0.0784,-0.08465 0.11983,-0.12751c0.55534,0.21657 0.81223,-0.34003 0.81223,-0.34003c0.09641,-0.20889 0.19282,-0.41777 0.28922,-0.62666l0.0394,-0.07809c0,0 0.00621,-0.01242 0.01499,-0.03452c0.72218,-0.41627 1.5865,-0.67765 2.42058,-0.9228c-0.12525,0.13194 -0.2497,0.27243 -0.37731,0.42355z" fill="#3d241b" stroke-width="0.95"/><path d="M250.20538,142.81776c-0.72989,-0.49226 -1.26612,-0.58672 -2.16169,-0.63162c-0.99657,-0.05032 -2.26269,0.23843 -2.99961,0.6562c-0.48963,0.278 -0.86558,0.75702 -0.90927,1.36181c-0.03544,0.48648 0.31155,0.99717 0.48053,1.44606c0.16568,0.44004 0.26058,0.80843 0.28322,1.28189c0.02308,0.49339 -0.30334,1.11467 -0.56256,1.28555c-0.13397,-0.31834 -0.12325,-0.68388 -0.34538,-1.01139c-0.11254,-0.16551 -0.22712,-0.31604 -0.35033,-0.44966c-0.14304,-0.15666 -0.26256,-0.18123 -0.45501,-0.29987c-0.2469,-0.15246 -0.21722,-0.16434 -0.34043,-0.40512c-0.09397,-0.18544 -0.15952,-0.32638 -0.18837,-0.53179c-0.05974,-0.42738 -0.31033,-0.98031 -0.30373,-1.42455c0.00369,-0.25803 0.04946,-0.09292 0.01072,-0.34675c-0.04577,-0.30181 0.03627,-0.6992 0.18794,-0.99604c0.10755,-0.20925 0.1426,-0.5775 0.3256,-0.73339c0.22338,-0.19005 0.29098,-0.20003 0.46655,-0.44501c0.30456,-0.42662 0.75918,-0.68619 1.19644,-0.98415c0.46325,-0.31599 0.97926,-0.7165 1.55423,-0.84434c1.04603,-0.23269 2.43371,0.15205 3.30912,0.69152c0.74807,0.46041 0.96404,1.54665 0.83297,2.35418z" fill="#3d241b" stroke-width="0.95"/><path d="M241.88541,148.26527c0.11896,0.00491 0.23179,0.0155 0.33395,0.03359c0.58156,0.1026 0.17048,0.71423 -0.02696,0.45952c-0.15266,-0.19774 -0.24302,-0.33442 -0.30699,-0.49312z" fill="#371e10" stroke-width="0.95"/><path d="M242.07453,147.63133c-0.10072,0.11547 -0.11564,-0.10351 -0.13034,-0.3144c0.04437,0.14581 0.0883,0.25879 0.13034,0.3144z" fill="#371e10" stroke-width="0.95"/><path d="M241.94419,147.31693c-0.02829,-0.09296 -0.05676,-0.19926 -0.08505,-0.31255c0.06079,-0.03171 0.07285,0.13764 0.08505,0.31255z" fill="#371e10" stroke-width="0.95"/><path d="M241.29808,153.9337c0.23119,-0.10798 0.04121,-0.10469 0.24152,-0.2679c0.22833,-0.18135 0.30703,-0.32312 0.34495,-0.59844c0.02143,-0.15783 0.07462,-0.22998 0.14755,-0.36803c0.07089,-0.13479 0.1797,-0.51354 0.23245,-0.66356c0.11254,-0.31696 0.06594,-0.58607 0.18052,-0.90634c0.22299,-0.6285 0.53167,-1.43054 -0.01358,-2.09658c-0.14178,-0.1731 -0.27822,-0.32642 -0.42907,-0.4954c-0.18091,-0.20239 -0.15826,-0.5259 -0.22377,-0.7872c-0.05896,-0.23245 -0.07584,-0.48963 -0.02555,-0.72746c0.05853,-0.27323 0.18052,-0.44677 0.33423,-0.66686c0.14837,-0.21349 0.13848,-0.25345 0.41627,-0.29302c0.21887,-0.03093 0.41462,0.06677 0.5902,0.18052c0.27119,0.1764 0.62855,0.41666 0.74434,0.72907c0.07297,0.19701 0.30252,0.39072 0.34126,0.5964c0.0338,0.17844 0.07996,0.45787 0.21432,0.59102c0.28811,-0.24443 0.33219,-0.75918 0.34664,-1.10044c0.07952,-0.03627 0.03831,-0.11375 0.04039,-0.18425c0.00165,-0.05935 0.09397,-0.52547 -0.00989,-0.55679c-0.01154,-0.13024 -0.07831,-0.16074 -0.08039,-0.29059c-0.00451,0.00208 -0.03957,-0.00698 -0.04408,-0.00369c0.00247,-0.13518 -0.03709,-0.20239 -0.04121,-0.33714c-0.05935,-0.01939 -0.07297,-0.10881 -0.13931,-0.11666c-0.00577,-0.06551 -0.09193,-0.19783 -0.1187,-0.258c-0.06308,-0.14052 -0.23163,-0.38039 -0.26421,-0.48755c-0.00863,-0.13024 0.03011,-0.13601 0.02022,-0.26625c-0.03505,-0.03918 -0.18217,-0.22009 -0.04286,-0.21926c-0.01115,-0.13024 -0.04907,-0.10056 -0.04495,-0.23124c-0.13393,0.16239 0.01033,-0.17805 0.00043,-0.17228c-0.01197,-0.13063 0.122,-0.23449 0.05935,-0.34703c0.02265,-0.01896 -0.00742,-0.19701 0.01275,-0.17679c-0.00039,-0.23948 0.24855,-0.14963 0.26421,-0.38868c-0.05028,0.22668 0.28312,-0.35115 0.32846,-0.37297c0.12694,-0.06061 0.14508,-0.1554 0.26625,-0.22174c0.14881,-0.08121 0.22586,-0.1521 0.36972,-0.23575c0.16568,-0.09644 0.44056,-0.19701 0.62482,-0.26998c0.16403,-0.06594 0.43809,-0.1121 0.61367,-0.13722c0.27449,-0.03918 0.46325,0.00451 0.73857,-0.02638c0.40473,-0.04577 0.91002,-0.03132 1.31393,-0.02555c0.14963,0.00204 0.35323,0.08941 0.50447,0.1187c0.13683,0.0272 0.22876,0.061 0.35653,0.12403c0.24933,0.12243 0.45089,0.1521 0.6656,0.34126c0.12941,0.11336 0.14425,0.36148 0.23041,0.50364c0.05275,0.08781 0.12898,0.22876 0.16321,0.3223c0.03792,0.1043 0.06056,0.22338 0.12816,0.31119c0.11254,0.14794 0.14963,0.32599 0.18508,0.51601c0.06139,0.33466 0.11744,0.77853 0,1.10703c-0.02473,0.06842 0.03627,0.1331 0.00616,0.20482c-0.03501,0.08369 -0.09024,0.16816 -0.11497,0.25636c-0.04863,0.17475 -0.06017,0.36477 -0.11584,0.53991c-0.08985,0.28438 -0.23245,0.56755 -0.21926,0.88859c0.01319,0.3223 0.07501,0.54282 0.26421,0.80369c0.08573,0.11913 0.12403,0.28933 0.21965,0.39649c0.09397,0.1043 0.19744,0.28152 0.29388,0.38247c0.17887,0.18755 0.55679,0.31818 0.52547,0.61328c-0.01358,0.1249 -0.11249,0.24937 -0.18629,0.34499c-0.09189,0.11991 -0.24234,0.24069 -0.37874,0.27983c-0.19332,0.0544 -0.37054,0.05401 -0.4472,0.25388c-0.05809,0.15128 -0.02594,0.22794 0.00659,0.38577c0.03627,0.17601 0.15744,0.32686 0.13644,0.52013c-0.02846,0.25761 -0.26833,0.441 -0.46451,0.48798c0.18135,0.16447 0.12447,0.52386 -0.0305,0.65905c-0.20937,0.18299 -0.50733,0.07089 -0.70148,0.26004c-0.34412,0.33631 -0.16278,0.81358 -0.38,1.19358c-0.47601,0.83171 -1.47423,0.31076 -2.10399,0.15826c-0.04577,-0.04325 -0.76208,-0.32148 -0.81358,-0.2584c-0.07501,0.0915 -0.10469,0.14013 -0.20568,0.14217c-0.01731,0.12612 -0.00742,0.12738 -0.02512,0.25349c-0.09935,0.00286 -0.08985,0.12898 -0.19002,0.15579c-0.01896,0.12941 -0.09931,0.13393 -0.11167,0.26417c-0.00538,-0.01523 -0.00907,-0.0305 -0.01154,-0.04616c-0.01857,0.12364 -0.09853,0.04412 -0.12364,0.16694c-0.03093,-0.01731 -0.16568,0.18052 -0.08534,0.24646c-0.0239,0.12364 -0.10798,2.3171 0.05688,2.5417c-0.02347,-0.06347 -0.122,0.05566 -0.441,-0.11375c-0.02347,-0.01275 -0.30417,-0.18503 -0.32022,-0.1974c-0.09562,-0.07748 -0.2436,-0.13067 -0.23905,-0.20651c-0.00824,0.15662 -0.17393,-0.35197 -0.1826,-0.19536c0.00703,-0.02226 -0.10837,-0.2308 -0.10425,-0.25098c-0.10512,-0.1282 -0.19783,-0.30581 -0.35197,-0.39527c-0.18052,-0.10551 -0.11952,-0.18135 -0.29306,-0.29714c-0.25592,-0.17063 -0.26581,-0.22421 -0.54937,-0.35406c-0.28686,-0.13189 -0.26295,-0.19206 -0.57041,-0.23614c-0.16529,-0.02473 -0.23618,-0.08161 -0.39978,-0.10798c-0.19332,-0.0305 -0.17558,-0.03792 -0.33054,-0.11458c-0.20651,-0.10182 -0.40061,-0.22586 -0.65779,-0.46451c-0.42863,-0.39978 0.26087,-0.17063 0.09727,-0.30581" fill="#ffbb80" stroke-width="0.95"/><path d="M249.77675,146.4087c-0.06551,0.05193 -0.12612,0.08738 -0.2069,0.1154c-0.06716,0.02308 -0.13189,0.05193 -0.19783,0.07748c-0.03831,0.01484 -0.06512,0.02599 -0.09106,0.06061c-0.0272,0.03584 -0.0305,0.10304 -0.04698,0.14794c-0.01978,0.05523 -0.00742,0.09562 -0.00495,0.15332c0.00495,0.0944 0.04573,0.1797 0.06551,0.26998c0.00989,0.04863 0.02555,0.08243 0.0544,0.12529c0.02555,0.03874 0.05111,0.06881 0.08325,0.10139c0.02022,0.02017 0.03341,0.03913 0.05935,0.05275c0.01731,0.00907 0.06017,0.01111 0.06842,0.0305c0.01896,0.04204 -0.09644,0.02226 -0.11579,0.02143c-0.1521,-0.00742 -0.29592,-0.04039 -0.44226,-0.07584c-0.08529,-0.02061 -0.22091,-0.09111 -0.30373,-0.11705c-0.0882,-0.02764 -0.21349,-0.08534 -0.30377,-0.11666c-0.10633,-0.03666 -0.11167,-0.00863 -0.2069,-0.06881c-0.03171,-0.01978 -0.07254,-0.04742 -0.07458,-0.08985c-0.00165,-0.03176 0.01813,-0.04451 0.03544,-0.06924c0.01813,-0.02555 -0.06017,-0.07792 -0.04247,-0.10221c0.03132,-0.0433 0.18217,-0.05401 0.22876,-0.07627c0.15991,-0.07748 0.33302,-0.12941 0.50282,-0.17844c0.16113,-0.04534 0.32477,-0.08243 0.48425,-0.13232c0.09276,-0.02885 0.18876,-0.04451 0.28191,-0.07336c0.05688,-0.0177 0.11419,-0.04451 0.17145,-0.05853" fill="#ffffff" stroke-width="0.95"/><path d="M249.26282,146.62879c0.04243,-0.00534 0.0754,-0.04369 0.11085,-0.0643c0.03792,-0.02226 0.07874,-0.03584 0.12161,-0.04781c0.07996,-0.02226 0.17063,-0.03748 0.25388,-0.04286c0.04451,-0.00369 0.07007,0.0062 0.09683,0.04534c0.04082,0.06061 0.0849,0.11375 0.11254,0.1826c0.02265,0.05523 0.04985,0.10425 0.06265,0.16321c0.01193,0.05562 0.00616,0.11375 0.00616,0.17063c0,0.13601 -0.06963,0.24811 -0.14135,0.35978c-0.06512,0.10221 -0.14221,0.13562 -0.26048,0.12941c-0.03918,-0.00165 -0.07544,-0.01275 -0.1121,-0.02803c-0.05605,-0.02347 -0.08573,-0.07375 -0.13601,-0.10469c-0.03132,-0.01935 -0.04616,-0.02265 -0.061,-0.05853c-0.01527,-0.03666 -0.0338,-0.07501 -0.0433,-0.11414c-0.03748,-0.14881 -0.09232,-0.32395 -0.05275,-0.4777c0.01154,-0.04534 0.02269,-0.07952 0.04989,-0.11623" fill="#371e10" stroke-width="0.95"/><path d="M243.14902,146.29703c-0.66273,-0.54942 -1.07696,0.21883 -1.25419,0.66889c-0.14095,0.35818 -0.10469,0.75302 0.00291,1.1128c0.12403,0.41341 0.43523,0.75506 0.74187,1.04273c0.12777,0.1187 0.26542,0.22174 0.41132,0.31449c0.47644,0.30087 0.73197,-0.0705 0.90217,-0.42534c0.02434,-0.05111 0.18425,0.00286 0.16403,0.04369c-0.58113,1.21089 -1.85506,0.11046 -2.25402,-0.70356c-0.35362,-0.72247 -0.27202,-1.5105 0.27983,-2.11306c0.34043,-0.37176 0.79957,-0.2374 1.13506,0.04078c0.07132,0.05853 -0.09315,0.04824 -0.12898,0.01857zM243.91479,149.05469c0.20894,-0.4377 -0.62069,-0.27735 -0.86347,-0.3062c-0.3528,-0.04121 -0.65779,-0.27987 -0.76989,-0.61536c-0.01649,-0.0482 0.14672,-0.02555 0.16364,0.02434c0.21514,0.64378 0.81935,0.45419 1.32916,0.51887c0.24729,0.03132 0.42699,0.16733 0.30499,0.42286c-0.0239,0.05028 -0.18382,-0.0033 -0.16443,-0.04451zM242.09227,147.09907c0.0482,-0.37384 0.45419,-0.4443 0.76699,-0.35692c0.56013,0.15744 0.73527,0.74187 1.09631,1.14165c0.04286,0.0482 -0.11991,0.03297 -0.15167,-0.00247c-0.24191,-0.26707 -0.40226,-0.59267 -0.63427,-0.86716c-0.24772,-0.29223 -0.85315,-0.33098 -0.91293,0.12898c-0.00659,0.04742 -0.17184,0.01115 -0.16443,-0.04408zM250.23467,142.48753c0.52712,0.78885 0.86716,1.64694 0.72785,2.60478c-0.12902,0.88117 -0.76373,1.95566 -0.12902,2.79189c0.04121,0.05401 -0.12321,0.03588 -0.15167,-0.00247c-0.441,-0.58234 -0.27037,-1.37905 -0.08655,-2.02117c0.17601,-0.61367 0.31284,-1.1882 0.18959,-1.82911c-0.10672,-0.55805 -0.38946,-1.08022 -0.70104,-1.5472c-0.03957,-0.05688 0.12447,-0.03627 0.15085,0.0033zM250.81783,147.86523c0.22421,0.51809 0.98009,0.86057 0.9908,1.44542c0.00456,0.23202 -0.24894,0.38577 -0.4249,0.47189c-0.09232,0.04534 -0.21926,0.05358 -0.31818,0.06555c-0.36972,0.04534 -0.24811,0.49579 -0.22959,0.71176c0.00538,0.05853 -0.15948,0.02473 -0.16321,-0.0243c-0.01731,-0.20607 -0.05193,-0.41297 0.00868,-0.61371c0.05853,-0.19163 0.45748,-0.18009 0.5708,-0.21306c1.04026,-0.30625 -0.39688,-1.40339 -0.59761,-1.86746c-0.01935,-0.04325 0.14178,-0.02512 0.16321,0.0239zM250.80135,149.6383c-0.2518,0.07007 -0.49827,0.22217 -0.76577,0.12655c-0.25636,-0.09193 -0.33423,-0.31449 -0.16321,-0.53375c0.03093,-0.03957 0.1892,0.0161 0.15375,0.06143c-0.14386,0.18421 -0.09892,0.45046 0.19206,0.41584c0.15579,-0.01896 0.30087,-0.10221 0.45089,-0.14425c0.04534,-0.01236 0.19289,0.05731 0.13228,0.07419zM249.34235,151.01817c0.32109,-0.38824 0.90343,-0.48837 1.37905,-0.51228c0.05605,-0.00291 0.17766,0.07748 0.06677,0.08325c-0.45007,0.02308 -0.99037,0.12529 -1.29206,0.49046c-0.03258,0.03874 -0.19002,-0.01731 -0.15375,-0.06143zM250.8364,150.55947c0.69197,1.25046 -1.56699,1.08395 -2.13866,0.59679c-0.06963,-0.05978 0.09397,-0.04946 0.12941,-0.01939c0.53332,0.45419 2.46673,0.52139 1.84603,-0.60174c-0.02143,-0.03709 0.13722,-0.02265 0.16321,0.02434zM250.51614,151.42125c0.47727,0.87748 -0.78226,1.01102 -1.33245,0.70642c-0.09688,-0.05358 0.0515,-0.06551 0.09931,-0.03913c0.258,0.1426 0.60876,0.14425 0.88243,0.0482c0.35527,-0.12403 0.34291,-0.45419 0.18712,-0.73978c-0.02061,-0.03753 0.13805,-0.02308 0.1636,0.0243zM249.91853,152.28841c-0.39896,0.15952 -0.35319,0.78391 -0.42946,1.13549c-0.06798,0.31571 -0.35033,0.49909 -0.64048,0.58113c-0.62152,0.17558 -1.36256,-0.15002 -1.93215,-0.36351c-1.75575,-0.65696 -3.67345,-2.02859 -3.7328,-4.10664c-0.00126,-0.04165 0.16278,-0.01445 0.1636,0.04369c0.05731,1.96842 1.86291,3.34417 3.5387,3.97228c0.68378,0.25592 1.71289,0.73484 2.30885,0.09189c0.35818,-0.38659 0.01774,-1.19892 0.59102,-1.42807c0.04412,-0.01774 0.19497,0.04863 0.13271,0.07375zM242.89141,149.42359c0.02187,0.8997 -0.27449,1.89341 -0.52755,2.75315c-0.25306,0.85892 -0.66065,1.68569 -1.38191,2.24126c-0.04286,0.03297 -0.19289,-0.03176 -0.15414,-0.061c0.72412,-0.55766 1.1033,-1.3708 1.37037,-2.22395c0.26625,-0.84699 0.54942,-1.86334 0.52755,-2.75315c0,-0.04204 0.16403,-0.01484 0.16568,0.04369zM245.58438,156.93497c-0.11167,-0.66395 -0.18751,-1.31185 -0.09315,-1.98243c0.0944,-0.66395 0.48881,-1.03779 0.83501,-1.56985c0.02555,-0.04039 0.18629,0.01111 0.15375,0.06139c-0.34456,0.52837 -0.69284,0.91293 -0.8243,1.55258c-0.13232,0.64252 -0.01566,1.32421 0.09189,1.96182c0.00989,0.05562 -0.15497,0.02638 -0.16321,-0.02351zM247.26473,146.03491c0.41996,-0.25679 0.82057,-0.52304 1.30278,-0.64542c0.49584,-0.12694 1.06169,0.05974 1.56165,0.04781c0.05562,-0.00126 0.17805,0.08078 0.06677,0.08364c-0.39484,0.0095 -0.77814,-0.05523 -1.17176,-0.08078c-0.59679,-0.03874 -1.12764,0.36351 -1.60573,0.65614c-0.04616,0.02803 -0.1908,-0.03874 -0.15371,-0.06139z" fill="#010101" stroke-width="0.95"/><path d="M250.20868,146.21252c-0.28972,0.25636 -0.61284,0.32273 -0.97965,0.41423c-0.05853,0.01401 -1.29002,0.24482 -1.08642,0.44265c0.0338,0.03297 -0.12161,0.01358 -0.14881,-0.0128c-0.20772,-0.20234 0.25761,-0.29592 0.39527,-0.33549c0.56091,-0.16156 1.20798,-0.1603 1.66425,-0.56382c0.03254,-0.02842 0.17926,0.03462 0.15536,0.05523zM250.07267,147.50007c-0.59718,0.34703 -1.5072,-0.16195 -2.02898,-0.45128c-0.06967,-0.03874 0.09644,-0.01978 0.12568,-0.0033c0.46369,0.25718 1.23397,0.69774 1.74751,0.39896c0.04082,-0.02308 0.17558,0.0449 0.15579,0.05562zM249.74504,147.58003c-0.54074,0.01566 -0.7695,-0.64048 -0.48924,-1.05631c0.02681,-0.04039 0.17722,0.02555 0.16486,0.04369c-0.08529,0.12612 -0.11167,0.27449 -0.11167,0.4249c-0.00082,0.1859 0.08243,0.5292 0.32889,0.52178c0.0338,-0.00039 0.18794,0.0639 0.10716,0.06594zM249.89463,146.44497c0.28069,0.35774 0.31696,0.8882 -0.12612,1.13011c-0.04204,0.02226 -0.17432,-0.04573 -0.15536,-0.05562c0.43605,-0.2374 0.39276,-0.75423 0.11826,-1.10417c-0.00907,-0.01193 0.13315,-0.00824 0.16321,0.02967zM248.61658,146.78254c-0.21475,-0.00785 -0.40187,-0.0882 -0.58443,-0.19579c-0.02681,-0.01605 -0.02143,-0.0338 0.00907,-0.03462c0.03913,-0.00121 0.08243,0.01115 0.11623,0.03093c0.1092,0.06386 0.22213,0.12816 0.35197,0.1331c0.03957,0.00126 0.08161,0.00907 0.11623,0.03093c0.02555,0.01566 0.02347,0.03627 -0.00907,0.03544zM248.95328,146.71369c-0.20772,0.03258 -0.462,-0.07952 -0.64048,-0.17679c-0.02842,-0.01566 -0.02061,-0.0338 0.00907,-0.03462c0.04,-0.00126 0.08121,0.01193 0.11623,0.03089c0.09935,0.05401 0.26295,0.13518 0.37918,0.11705c0.03792,-0.00577 0.08039,0.00538 0.11501,0.02143c0.01154,0.00577 0.05892,0.03588 0.021,0.04204zM248.56915,147.28454c-0.34412,0.02967 -0.7233,-0.16156 -0.93267,-0.42907c-0.01197,-0.01484 0.02265,-0.0177 0.02759,-0.01813c0.18343,-0.01484 0.36725,-0.04078 0.55145,-0.05605c0.03423,-0.0033 0.18876,0.05896 0.10716,0.06555c-0.18421,0.01566 -0.3672,0.04161 -0.55145,0.05644c0.00868,-0.00659 0.01857,-0.01193 0.02764,-0.01813c0.15167,0.19414 0.41007,0.35527 0.66273,0.33384c0.03462,-0.00286 0.18915,0.05813 0.10755,0.06555zM248.05276,147.02818c0.0915,0.08612 0.19783,0.16568 0.3223,0.20482c-0.01115,0.01445 -0.02308,0.02803 -0.03462,0.04247c-0.04204,-0.0161 -0.08325,-0.03132 -0.1249,-0.04742c0.0305,-0.00659 0.06061,-0.01236 0.09111,-0.01978c0.03501,0.01896 0.06963,0.03835 0.10425,0.05688c-0.04204,0.00126 -0.08408,0.00247 -0.12568,0.00373c-0.02516,-0.01154 -0.04907,-0.0239 -0.0738,-0.03505c-0.08408,-0.03627 0.01484,-0.04408 0.0544,-0.03462c0.04082,0.00989 0.07627,0.02143 0.11584,0.03544c-0.02555,0.00868 -0.05028,0.01857 -0.07584,0.0272c-0.01527,-0.00534 -0.03093,-0.00946 -0.04659,-0.0144c0.00412,-0.0161 0.00868,-0.03176 0.0128,-0.04742c0.04161,0.01401 0.08282,0.02681 0.12403,0.04082c-0.02512,0.00907 -0.05028,0.01852 -0.0754,0.02759c-0.02638,-0.01154 -0.05193,-0.0239 -0.07748,-0.03501c0.03089,-0.00703 0.061,-0.0128 0.0915,-0.01939c0.01896,0.01401 0.03913,0.0272 0.06017,0.03835c0.07089,0.04078 -0.08698,0.02182 -0.11007,0.01154c-0.05232,-0.0239 -0.07831,-0.04039 -0.12486,-0.0738c-0.04121,-0.02967 0.10343,-0.01236 0.122,-0.00369c0.05193,0.02638 0.10139,0.05111 0.1492,0.08364c0.06798,0.04616 -0.08616,0.02434 -0.11007,0.01154c-0.05028,-0.02594 -0.09892,-0.05523 -0.14876,-0.08078c-0.08985,-0.0482 0.03748,-0.04286 0.07623,-0.02803c0.07996,0.03176 0.16117,0.06143 0.23948,0.0977c-0.03176,0.00698 -0.06308,0.01358 -0.0944,0.02017c-0.10755,-0.05358 -0.21965,-0.08243 -0.30252,-0.17393c-0.03792,-0.04161 0.11705,-0.00863 0.13727,0.00495c0.14425,0.09727 0.30334,0.16529 0.45419,0.25059c0.0643,0.03627 -0.04946,0.03176 -0.06967,0.02555c-0.29137,-0.07913 -0.56547,-0.22256 -0.80161,-0.40968c0.04985,0.00412 0.09931,0.00824 0.14876,0.0128c0.11458,0.11167 0.26009,0.15948 0.40351,0.2213c-0.03176,0.00742 -0.06308,0.01319 -0.0944,0.02022c-0.13558,-0.06226 -0.26664,-0.12529 -0.38495,-0.21722c-0.03913,-0.03089 0.11458,-0.00863 0.13766,0.00495c0.0944,0.05605 0.19497,0.10017 0.28933,0.15662c0.07089,0.04247 -0.08738,0.02104 -0.11046,0.01154c-0.13475,-0.05974 -0.26707,-0.11991 -0.38412,-0.21102c-0.04078,-0.03132 0.11623,-0.00616 0.13727,0.00538c0.09727,0.05193 0.19328,0.09848 0.28026,0.16568c0.03874,0.02924 -0.11293,0.00989 -0.13727,-0.00538c-0.10672,-0.06677 -0.22048,-0.12156 -0.32764,-0.18876c0.04204,-0.00121 0.08408,-0.00247 0.12612,-0.00369c0.0544,0.03336 0.11167,0.06017 0.17184,0.08243c-0.0305,0.00659 -0.06056,0.01236 -0.09106,0.01935c-0.07419,-0.0449 -0.14672,-0.08117 -0.2069,-0.14382c-0.04165,-0.04247 0.10837,-0.00868 0.12156,-0.0033c0.05401,0.02265 0.09935,0.05067 0.1459,0.08612c0.04,0.02967 -0.11375,0.00824 -0.13722,-0.00495c-0.05193,-0.03007 -0.09892,-0.061 -0.1459,-0.09809c-0.03753,-0.02803 0.11167,-0.01193 0.13722,0.00577c0.02764,0.01896 0.04121,0.02846 0.06473,0.05401c0.03913,0.04161 -0.11831,0.00659 -0.13727,-0.00538c-0.03419,-0.01896 -0.06633,-0.03996 -0.09727,-0.06304c0.04534,0.00165 0.0915,0.0033 0.13727,0.00495c0.02594,0.03007 0.05479,0.05974 0.0849,0.08612c0.03996,0.03792 -0.11748,0.00703 -0.13727,-0.00495c-0.03666,-0.021 -0.07375,-0.04161 -0.11128,-0.06056c-0.09024,-0.04698 0.03753,-0.04247 0.07584,-0.0272c0.06061,0.0243 0.12243,0.04698 0.18299,0.07171c-0.02555,0.00863 -0.04985,0.01852 -0.0754,0.0272c-0.06017,-0.02846 -0.10182,-0.0544 -0.14013,-0.10963c-0.01692,-0.02351 0.06017,-0.01566 0.06551,-0.01445c0.05853,0.01236 0.11007,0.02599 0.16694,0.04495c0.0449,0.0144 0.07952,0.05727 0.00781,0.04985c-0.06759,-0.00742 -0.12941,-0.01978 -0.1941,-0.04078c-0.04577,-0.01362 -0.07957,-0.0577 -0.00824,-0.04989c0.04204,0.00495 0.08325,0.00868 0.12568,0.0095c0.02967,0.02182 0.06017,0.04325 0.08985,0.06512c-0.06056,-0.00412 -0.1187,-0.01072 -0.17887,-0.01939c-0.01236,-0.00121 -0.13683,-0.0515 -0.08325,-0.06056c0.07709,-0.01362 0.14672,-0.02681 0.22052,-0.05688c0.04863,0.02017 0.09727,0.03996 0.1459,0.05974c-0.07215,0.00868 -0.14056,0.02516 -0.21102,0.04412c-0.04039,-0.02143 -0.08039,-0.04286 -0.12117,-0.0643c0.09683,-0.0095 0.19328,-0.02599 0.28933,-0.03627c0.02677,-0.00247 0.17267,0.05193 0.12117,0.0643c-0.09644,0.0243 -0.18876,0.0544 -0.28234,0.08985c-0.03957,0.01484 -0.1764,-0.04534 -0.15536,-0.05566c0.21679,-0.10755 0.45293,-0.18668 0.69158,-0.22586c0.0449,0.02061 0.09024,0.04165 0.13518,0.06226c-0.26586,0.03419 -0.51809,0.13106 -0.78599,0.15206c-0.03419,0.00291 -0.18876,-0.05935 -0.10716,-0.06551c0.258,-0.02022 0.50161,-0.11623 0.75796,-0.14881c0.03627,-0.00534 0.18052,0.05484 0.13558,0.06226c-0.23284,0.03831 -0.46078,0.11414 -0.6718,0.21844c-0.0515,-0.01857 -0.10343,-0.03709 -0.15536,-0.05566c0.09931,-0.03748 0.19822,-0.07089 0.30169,-0.09644c0.04078,0.02104 0.08078,0.04286 0.12117,0.0639c-0.09605,0.00946 -0.19249,0.02638 -0.28894,0.03627c-0.02638,0.00286 -0.1731,-0.05028 -0.12117,-0.0643c0.07007,-0.01896 0.13809,-0.03505 0.21063,-0.04369c0.0272,-0.00373 0.17145,0.04902 0.14547,0.05935c-0.07831,0.03171 -0.15662,0.04946 -0.24069,0.06386c-0.02677,-0.02017 -0.05562,-0.04078 -0.08282,-0.061c0.04534,0.00703 0.09189,0.01115 0.13722,0.01362c0.02764,0.00204 0.17024,0.06594 0.08985,0.06512c-0.0544,0 -0.10672,-0.00495 -0.16113,-0.01072c-0.00291,-0.01692 -0.00538,-0.03341 -0.00785,-0.04989c0.02187,0.00373 0.0433,0.00742 0.06594,0.01072c0.00247,0.01692 0.00495,0.03341 0.00785,0.05028c-0.02599,-0.00781 -0.05319,-0.0144 -0.07957,-0.02182c0.02187,-0.00538 0.0433,-0.0095 0.06512,-0.01484c0.02473,0.02017 0.04781,0.03996 0.07254,0.06017c0.09193,0.04369 -0.03792,0.04286 -0.07584,0.02759c-0.06056,-0.02473 -0.12239,-0.04738 -0.18338,-0.07171c0.02594,-0.00907 0.05028,-0.01852 0.07584,-0.02759c0.04781,0.02555 0.09562,0.04946 0.14217,0.07748c-0.04534,-0.00208 -0.0915,-0.00412 -0.13722,-0.00577c-0.02967,-0.02638 -0.05853,-0.05566 -0.0849,-0.08616c-0.03753,-0.03996 0.11662,-0.00907 0.13722,0.00538c0.03093,0.02347 0.06347,0.04451 0.09727,0.06347c-0.04534,-0.00165 -0.0915,-0.0033 -0.13722,-0.00495c-0.01401,-0.01236 -0.02803,-0.02516 -0.04204,-0.03753c0.04534,0.00165 0.09189,0.0033 0.13722,0.00495c0.03918,0.03093 0.07996,0.05813 0.12364,0.08121c-0.04534,-0.00165 -0.09189,-0.0033 -0.13722,-0.00495c-0.03093,-0.01774 -0.06143,-0.03588 -0.09232,-0.05319c0.04078,-0.00121 0.08078,-0.00247 0.12156,-0.00369c0.05319,0.05479 0.11913,0.08738 0.18343,0.12694c0.06842,0.04204 -0.07007,0.02803 -0.09111,0.01978c-0.08447,-0.03341 -0.16486,-0.06555 -0.24152,-0.11419c-0.06881,-0.04369 0.09688,-0.02143 0.12573,-0.00369c0.10716,0.06716 0.22091,0.122 0.32764,0.18915c-0.04573,-0.00165 -0.0915,-0.0033 -0.13722,-0.00495c-0.07874,-0.061 -0.16941,-0.1026 -0.25679,-0.1492c0.04577,0.00165 0.09193,0.0033 0.13727,0.00495c0.09931,0.07792 0.21514,0.12738 0.32972,0.17766c-0.03709,0.00369 -0.0738,0.00781 -0.11046,0.01111c-0.0944,-0.05605 -0.19497,-0.10013 -0.28933,-0.15618c0.04534,0.00165 0.0915,0.0033 0.13722,0.00495c0.10056,0.0787 0.21475,0.13063 0.32972,0.18421c0.09935,0.04616 -0.05727,0.03627 -0.09436,0.02022c-0.16403,-0.07171 -0.32725,-0.12777 -0.45792,-0.25432c-0.03666,-0.03584 0.12243,-0.00781 0.14837,0.0128c0.19579,0.15579 0.42369,0.2823 0.66564,0.34868c-0.02308,0.00824 -0.04577,0.01688 -0.06924,0.02555c-0.15046,-0.08573 -0.30994,-0.15293 -0.4538,-0.25059c0.04577,0.00204 0.09193,0.00369 0.13727,0.00534c0.06633,0.07254 0.16321,0.09809 0.2485,0.14095c0.09809,0.04863 -0.05727,0.03709 -0.09436,0.02022c-0.06638,-0.0305 -0.13397,-0.05605 -0.20156,-0.08243c0.02555,-0.00907 0.05028,-0.01896 0.07584,-0.02764c0.04989,0.02599 0.09853,0.05523 0.14837,0.08078c-0.03666,0.00412 -0.07375,0.00824 -0.11046,0.01197c-0.03792,-0.02516 -0.07748,-0.04742 -0.11826,-0.0672c0.04078,-0.00082 0.08078,-0.00204 0.12156,-0.0033c0.02351,0.01362 0.04659,0.02681 0.06967,0.04039c-0.0367,0.00373 -0.07336,0.00785 -0.11007,0.01154c-0.02143,-0.01111 -0.04121,-0.0239 -0.06017,-0.03831c-0.06551,-0.04616 0.06967,-0.02803 0.09111,-0.01939c0.04121,0.0161 0.07584,0.03011 0.11497,0.05028c0.09315,0.04577 -0.03913,0.03957 -0.07584,0.0272c-0.04204,-0.01401 -0.08282,-0.02677 -0.12403,-0.04078c-0.07007,-0.02226 -0.05978,-0.06308 0.01193,-0.04698c0.06265,0.01358 0.11293,0.02967 0.17228,0.05397c0.0944,0.03874 -0.03792,0.04121 -0.0754,0.02764c-0.02516,-0.00785 -0.04907,-0.01445 -0.07336,-0.02187c0.01813,-0.01154 0.03584,-0.02347 0.05397,-0.03462c0.03792,0.01649 0.06803,0.03132 0.1043,0.05154c0.07007,0.03831 -0.09688,0.01935 -0.12573,0.00369c-0.03544,-0.01896 -0.07007,-0.03748 -0.10469,-0.05644c-0.06924,-0.03792 0.0705,-0.02803 0.09193,-0.01978c0.04161,0.01605 0.08282,0.03132 0.12486,0.04738c0.09111,0.03544 0.03258,0.06347 -0.03501,0.04286c-0.17228,-0.05232 -0.32438,-0.1426 -0.45584,-0.26581c-0.03132,-0.03258 0.12321,-0.01362 0.15167,0.01319zM248.82551,147.40736c-0.08078,-0.00043 -0.15744,-0.01362 -0.23614,-0.02187c-0.04082,-0.00451 -0.18052,-0.07336 -0.07171,-0.06469c0.08117,0.00659 0.16156,0.01813 0.24108,0.0338c0.03918,0.00742 0.15332,0.07419 0.05154,0.06182c-0.06061,-0.00824 -0.12161,-0.01692 -0.18178,-0.02516c-0.04039,-0.00451 -0.18135,-0.07419 -0.0721,-0.0643c0.07787,0.00785 0.15453,0.01939 0.23163,0.03423c0.00286,0.01813 0.00577,0.03627 0.00907,0.05479c-0.05523,-0.01401 -0.11046,-0.02842 -0.16486,-0.04451c0.01154,-0.0144 0.02347,-0.02842 0.03462,-0.04286c0.05028,0.01939 0.10139,0.03423 0.15332,0.04616c0.02143,0.00577 0.12074,0.05484 0.04698,0.0577c-0.10677,0.00456 -0.20195,-0.00824 -0.30252,-0.04534c-0.04369,-0.01605 -0.08078,-0.0577 -0.00785,-0.04985c0.06512,0.00577 0.12902,0.0144 0.19332,0.02759c0.03874,0.00742 0.15497,0.06512 0.0515,0.061c-0.37545,-0.01319 -0.71796,-0.18009 -0.96894,-0.45831c-0.03297,-0.03709 0.12321,-0.01523 0.14876,0.01319c0.19909,0.22091 0.44391,0.36972 0.74764,0.38082c0.01731,0.02061 0.03423,0.04121 0.05154,0.06143c-0.05028,-0.01154 -0.101,-0.01857 -0.15249,-0.02226c-0.00247,-0.01649 -0.00577,-0.03341 -0.00824,-0.04989c0.04616,0.00538 0.09315,0.00989 0.13931,0.01566c0.01566,0.01896 0.03089,0.03835 0.04698,0.05731c-0.06759,-0.01692 -0.13232,-0.03588 -0.19701,-0.06017c-0.09315,-0.03341 -0.03258,-0.06182 0.03462,-0.04247c0.0544,0.0161 0.10963,0.0305 0.16443,0.04451c0.0672,0.01692 0.10551,0.07297 0.00868,0.05401c-0.06308,-0.01197 -0.12694,-0.02269 -0.19085,-0.02846c-0.02473,-0.02143 -0.04781,-0.04243 -0.07254,-0.0643c0.061,0.00785 0.122,0.01649 0.18217,0.02473c0.01731,0.02022 0.03423,0.04082 0.05154,0.061c-0.06638,-0.01236 -0.13271,-0.02226 -0.2003,-0.0272c-0.0239,-0.02182 -0.04742,-0.04325 -0.07171,-0.06469c0.06347,0.00698 0.14178,0.02061 0.20234,0.021c0.03423,0.00043 0.18794,0.06638 0.10798,0.06555zM248.12404,147.05495c0.0128,0.0161 0.02885,0.02846 0.04165,0.04451c-0.05401,-0.01236 -0.10842,-0.02473 -0.16321,-0.03709c0.00165,-0.01605 0.00534,-0.03171 0.00659,-0.04781c0.00204,-0.0239 0.07913,-0.00534 0.08902,-0.00247c0.08364,0.0239 0.16607,0.06143 0.20607,0.14343c0.01731,0.03588 -0.13024,-0.00369 -0.14425,-0.01236c-0.05935,-0.03957 -0.13024,-0.07623 -0.15167,-0.14876c-0.00907,-0.03176 0.15041,-0.01154 0.16239,0.02924c0.01731,0.05853 0.06716,0.08408 0.11497,0.1154c-0.0482,-0.00412 -0.09601,-0.00824 -0.14425,-0.01236c-0.01111,-0.02347 -0.02924,-0.05727 -0.05688,-0.06469c0.02967,-0.00082 0.05978,-0.00165 0.08902,-0.00247c-0.00165,0.01605 -0.00495,0.03171 -0.00616,0.04781c-0.00291,0.04039 -0.14837,-0.01813 -0.16321,-0.03753c-0.01236,-0.01566 -0.02885,-0.02759 -0.04165,-0.04369c-0.01813,-0.02347 0.06182,-0.01566 0.06555,-0.01484c0.03254,0.00538 0.07458,0.01692 0.09601,0.04369zM248.94959,147.48155c-0.25718,-0.08369 -0.53909,-0.11128 -0.78555,-0.22547c-0.19866,-0.09189 -0.32191,-0.25922 -0.49254,-0.38989c-0.03419,-0.02555 0.11831,-0.00989 0.14881,0.01319c0.1764,0.13562 0.28438,0.29883 0.50447,0.38126c0.21965,0.08243 0.45787,0.11249 0.68126,0.18547c0.11171,0.03627 0.00538,0.05605 -0.05644,0.03544z" fill="#000000" stroke-width="0.95"/><path d="M238.34232,157.50748c-0.17354,1.7871 -2.21258,2.22298 -2.21258,2.22298c0.47722,-0.17435 0.91106,-0.91535 0.91106,-0.91535c-1.25814,1.39481 -2.81996,0.21794 -2.81996,0.21794c0.43384,0.13076 1.77874,0.13076 1.64859,-1.26405c-0.13015,-1.39481 0.73753,-1.87428 1.56182,-1.69992c0.78091,0.17435 0.99783,0.91534 0.91106,1.4384z" fill="#3d241b" stroke-width="1"/><path d="M234.22084,159.07664c0,0 0.08677,0 0.17354,0.04359c0.13015,0 0.30369,0 0.47722,-0.04359c0.17354,-0.04359 0.39046,-0.21794 0.52061,-0.39229c0.08677,-0.08718 0.13015,-0.21794 0.21692,-0.30512c0.04338,-0.08718 0.08677,-0.21794 0.08677,-0.3487c0.04338,-0.26153 0,-0.56664 0.04338,-0.82817c0.04338,-0.30512 0.21692,-0.56664 0.39046,-0.69741c0.17354,-0.13076 0.34707,-0.21794 0.47722,-0.26153c0.13015,-0.04359 0.17354,-0.04359 0.17354,-0.04359c0,0 -0.04338,0.04359 -0.17354,0.08718c-0.08677,0.04359 -0.2603,0.17435 -0.39046,0.30512c-0.13015,0.13076 -0.21692,0.3487 -0.2603,0.61023c0,0.26153 0,0.52305 0,0.87176c0,0.17435 -0.04338,0.30511 -0.13015,0.47946c-0.08677,0.13076 -0.17354,0.26153 -0.2603,0.3487c-0.21692,0.21794 -0.43384,0.3487 -0.69414,0.39229c-0.21692,0.04359 -0.43384,0 -0.56399,-0.04359c0,-0.13076 -0.08677,-0.17435 -0.08677,-0.17435z" fill="#241510" stroke-width="1"/><path d="M242.68072,141.24922c1.56182,2.39733 -1.9089,5.0126 -1.9089,5.0126c1.3449,3.13832 -1.25814,4.40237 -1.25814,4.40237c0.65076,1.69992 -0.60738,3.2255 -0.60738,3.2255c0.39046,2.61527 -1.82213,2.52809 -1.82213,2.52809c-0.99783,-1.61275 0.17354,-2.52809 0.17354,-2.52809c-1.47506,-2.22298 0.30369,-3.35626 0.30369,-3.35626c-1.38829,-3.05115 0.60738,-4.09726 0.60738,-4.09726c-2.4295,-2.8768 0.48686,-5.76328 0.48686,-5.76328c0.59964,-0.57233 4.05139,-1.98158 5.12336,-1.43787c0.47918,0.24304 -1.58076,1.27362 -1.09829,2.01419z" fill="#3d241b" stroke-width="1"/><path d="M239.60046,142.12098c0,0 0.17354,0.13076 0.39046,0.3487c0.21692,0.26153 0.43384,0.65382 0.52061,1.04611c0.04338,0.21794 0.08677,0.43588 0.08677,0.61023c0,0.21794 0,0.39229 -0.04338,0.56664c0,0.17435 -0.04338,0.30512 -0.08677,0.39229c-0.04338,0.08718 -0.04338,0.13076 -0.04338,0.13076c0,0 0,-0.04359 0,-0.13076c0,-0.08718 0,-0.21794 -0.04338,-0.39229c-0.04338,-0.30512 -0.08677,-0.6974 -0.17354,-1.08969c-0.04338,-0.17435 -0.13015,-0.39229 -0.17354,-0.56664c-0.08677,-0.17435 -0.13015,-0.3487 -0.21692,-0.47947c-0.08677,-0.26153 -0.21692,-0.43587 -0.21692,-0.43587z" fill="#241510" stroke-width="1"/><path d="M240.46814,143.77732c0,0 0.04338,-0.13076 0.08677,-0.30512c0.08677,-0.17435 0.21692,-0.39229 0.39046,-0.56664c0.17354,-0.17435 0.39046,-0.30512 0.56399,-0.39229c0.17354,-0.08718 0.30369,-0.08718 0.30369,-0.08718c0,0 0,0.04359 -0.04338,0.04359c-0.04338,0.04359 -0.08677,0.08718 -0.17354,0.17435c-0.13015,0.13076 -0.30369,0.30512 -0.47722,0.43588c-0.17354,0.17435 -0.34707,0.3487 -0.47722,0.43587c-0.04338,0.17435 -0.17354,0.26153 -0.17354,0.26153z" fill="#241510" stroke-width="1"/><path d="M239.29677,147.13358c0,0 0.13015,0.08718 0.30369,0.30512c0.17354,0.17435 0.34707,0.47946 0.43384,0.82817c0.04338,0.17435 0.04338,0.3487 0.04338,0.52305c0,0.08718 0,0.17435 0,0.21794c0,0.08718 -0.04338,0.13076 -0.04338,0.21794c-0.04338,0.13076 -0.08677,0.21794 -0.13015,0.30512c-0.04338,0.08718 -0.04338,0.08718 -0.04338,0.08718c0,0 0,-0.17435 0,-0.39229c0,-0.26153 -0.04338,-0.56664 -0.08677,-0.87175c-0.08677,-0.30512 -0.17354,-0.61023 -0.30369,-0.82817c-0.08677,-0.26153 -0.17354,-0.39229 -0.17354,-0.39229z" fill="#241510" stroke-width="1"/><path d="M240.33798,147.74381c0,0 0,0.04359 0,0.13076c0,0.04359 0,0.08718 -0.04338,0.13076c0,0.04359 -0.04338,0.08718 -0.04338,0.13076c-0.04338,0.04359 -0.04338,0.08718 -0.08677,0.13076c-0.04338,0.04359 -0.04338,0.08718 -0.08677,0.08718c-0.04338,0.04359 -0.08677,0.08718 -0.08677,0.08718c0,0 0,-0.04359 0,-0.13076c0,-0.04359 0,-0.08718 0.04338,-0.13076c0,-0.04359 0.04338,-0.08718 0.04338,-0.13076c0.04338,-0.04359 0.04338,-0.08718 0.08677,-0.13076c0.04338,-0.04359 0.04338,-0.08718 0.08677,-0.08718c0.04338,-0.08718 0.08677,-0.08718 0.08677,-0.08718z" fill="#241510" stroke-width="1"/><path d="M238.03863,150.92572c0,0 0.13015,0.08718 0.2603,0.30512c0.08677,0.08718 0.17354,0.21794 0.21692,0.3487c0.08677,0.13076 0.13015,0.26152 0.21692,0.39229c0.04338,0.13076 0.08677,0.30512 0.13015,0.43588c0.04338,0.13076 0.04338,0.30512 0.04338,0.39229c0,0.13076 -0.04338,0.21794 -0.04338,0.26152c0,0.08718 -0.04338,0.08718 -0.04338,0.08718c0,0 0,-0.04359 0,-0.08718c0,-0.08718 0,-0.17435 -0.04338,-0.26152c0,-0.13076 -0.04338,-0.21794 -0.08677,-0.39229c-0.04338,-0.13076 -0.08677,-0.26153 -0.13015,-0.39229c-0.08677,-0.26153 -0.21692,-0.56664 -0.34707,-0.74099c-0.08677,-0.21794 -0.17354,-0.3487 -0.17354,-0.3487z" fill="#241510" stroke-width="1"/><path d="M239.07985,151.66672c0,0 0,0.04358 -0.04338,0.13076c0,0.04359 0,0.08718 -0.04338,0.08718c0,0.04359 -0.04338,0.08718 -0.04338,0.08718c-0.04338,0.04359 -0.04338,0.04359 -0.08677,0.08718c0,0.04359 -0.04338,0.04359 -0.08677,0.08718c-0.04338,0.04359 -0.08677,0.08718 -0.08677,0.08718c0,0 -0.04338,-0.04359 -0.04338,-0.13076c0,-0.04359 0,-0.08718 0.04338,-0.13076c0,-0.04359 0.04338,-0.08718 0.04338,-0.13076c0.04338,-0.04359 0.04338,-0.08718 0.08677,-0.08718c0.04338,-0.04359 0.04338,-0.04359 0.08677,-0.08718c0.13015,0.04359 0.17354,0 0.17354,0z" fill="#241510" stroke-width="1"/><path d="M237.95186,154.06404c0,0 0.08677,0.08718 0.13015,0.26153c0.04338,0.17435 0.08677,0.43587 0.08677,0.69741c0,0.13076 -0.04338,0.26153 -0.08677,0.3487c-0.04338,0.13076 -0.08677,0.21794 -0.13015,0.30512c-0.04338,0.08718 -0.08677,0.13076 -0.13015,0.17435c-0.04338,0.04359 -0.04338,0.04359 -0.04338,0.04359c0,0 0,-0.04359 0.04338,-0.08718c0,-0.04359 0.04338,-0.13076 0.04338,-0.21794c0.04338,-0.08718 0.04338,-0.17435 0.08677,-0.30512c0.04338,-0.08718 0.04338,-0.21794 0.04338,-0.3487c0,-0.13076 0,-0.21794 0,-0.3487c0,-0.13076 0,-0.21794 0,-0.30512c0,-0.08718 -0.04338,-0.21794 -0.04338,-0.21794z" fill="#241510" stroke-width="1"/><path d="M238.60262,154.54351c0,0 0,0.04359 -0.04338,0.08718c0,0.04359 -0.04338,0.04359 -0.04338,0.08718c-0.04338,0.04359 -0.04338,0.04359 -0.08677,0.08718c-0.04338,0.04359 -0.08677,0.04359 -0.08677,0.08718c-0.04338,0.04359 -0.08677,0.04359 -0.08677,0.04359c-0.04338,0.04359 -0.13015,0.04358 -0.13015,0.04358c0,0 0,-0.04358 0.04338,-0.13076c0,-0.04359 0.04338,-0.04359 0.04338,-0.08718c0.04338,-0.04359 0.04338,-0.04359 0.08677,-0.08718c0.04338,-0.04359 0.08677,-0.04359 0.08677,-0.08718c0.04338,-0.04359 0.08677,-0.04359 0.08677,-0.04359c0.04338,0 0.13015,0 0.13015,0z" fill="#241510" stroke-width="1"/><path d="M240.81521,146.26182c0,0 0.21692,0.26152 0.39046,0.69741c0.04338,0.13076 0.08677,0.26153 0.13015,0.39229c0.04338,0.13076 0.04338,0.30512 0.08677,0.43588c0,0.17435 0,0.30512 0,0.47947l-0.04338,0.26153l-0.04338,0.26153c-0.04338,0.17435 -0.13015,0.30512 -0.17354,0.47947c-0.08677,0.13076 -0.17354,0.26153 -0.2603,0.39229c-0.08677,0.13076 -0.21692,0.21794 -0.30369,0.3487c-0.08677,0.08718 -0.21692,0.17435 -0.30369,0.26153c-0.17354,0.17435 -0.39046,0.21794 -0.47722,0.30512c-0.13015,0.08718 -0.21692,0.08718 -0.21692,0.08718c0,0 0.04338,-0.04359 0.17354,-0.13076c0.08677,-0.08718 0.2603,-0.21794 0.43384,-0.39229c0.08677,-0.08718 0.17354,-0.17435 0.2603,-0.26153c0.08677,-0.08718 0.17354,-0.21794 0.2603,-0.3487c0.08677,-0.13076 0.13015,-0.26153 0.21692,-0.39229c0.04338,-0.13076 0.13015,-0.26153 0.17354,-0.43588l0.04338,-0.21794l0.04338,-0.21794c0.04338,-0.13076 0,-0.30512 0.04338,-0.43588c0,-0.13076 0,-0.30511 -0.04338,-0.43587c0,-0.13076 -0.04338,-0.26153 -0.04338,-0.39229c-0.04338,-0.21794 -0.08677,-0.43587 -0.13015,-0.56664c-0.21692,-0.13076 -0.21692,-0.17435 -0.21692,-0.17435z" fill="#241510" stroke-width="1"/><path d="M237.56141,150.53343c0,0 -0.17354,0.17435 -0.34707,0.43588c-0.08677,0.13076 -0.17354,0.30512 -0.2603,0.52305c-0.04338,0.08718 -0.04338,0.21794 -0.08677,0.30511c0,0.08718 -0.04338,0.21794 -0.04338,0.30512c0,0.13076 0,0.21794 0,0.3487c0,0.08718 0,0.21794 0.04338,0.30512c0.04338,0.08718 0.04338,0.21794 0.08677,0.30511c0.04338,0.08718 0.04338,0.17435 0.08677,0.26153c0.04338,0.17435 0.08677,0.30512 0.13015,0.39229c0.04338,0.08718 0.04338,0.17435 0.04338,0.17435c0,0 -0.04338,-0.04359 -0.08677,-0.13076c-0.04338,-0.08718 -0.17354,-0.21794 -0.2603,-0.3487c-0.08677,-0.17435 -0.17354,-0.3487 -0.2603,-0.56664c-0.04338,-0.08718 -0.04338,-0.21794 -0.08677,-0.3487c-0.04338,-0.13076 0,-0.26153 -0.04338,-0.3487c0,-0.26153 0.04338,-0.47946 0.17354,-0.69741c0.08677,-0.21794 0.21692,-0.39229 0.34707,-0.52305c0.34707,-0.3487 0.56399,-0.39229 0.56399,-0.39229z" fill="#241510" stroke-width="1"/><path d="M238.90631,153.88969c0,0 0.08677,0.21794 0.13015,0.56664c0,0.17435 0.04338,0.39229 0,0.61023c0,0.13076 -0.04338,0.21794 -0.08677,0.3487c-0.04338,0.08718 -0.08677,0.21794 -0.17354,0.30512c-0.04338,0.08718 -0.13015,0.21794 -0.21692,0.26153c-0.08677,0.08718 -0.17354,0.13076 -0.2603,0.21794c-0.08677,0.04359 -0.21692,0.08718 -0.30369,0.13076c-0.08677,0.04359 -0.17354,0.04359 -0.2603,0.04359c-0.17354,0.04359 -0.30369,0 -0.43384,0c-0.08677,0 -0.17354,0 -0.17354,0c0,0 0.04338,0 0.13015,-0.04359c0.08677,-0.04359 0.21692,-0.04359 0.39046,-0.13076c0.08677,-0.04359 0.17354,-0.04359 0.21692,-0.08718c0.08677,-0.04359 0.17354,-0.08718 0.2603,-0.13076c0.08677,-0.04359 0.17354,-0.13076 0.21692,-0.17435c0.08677,-0.08718 0.13015,-0.13076 0.17354,-0.21794c0.08677,-0.08718 0.08677,-0.17435 0.13015,-0.26153c0.04338,-0.08718 0.08677,-0.17435 0.08677,-0.30512c0.04338,-0.17435 0.08677,-0.39229 0.08677,-0.52305c0.08677,-0.39229 0.08677,-0.61023 0.08677,-0.61023z" fill="#241510" stroke-width="1"/><path d="M246.43466,139.8012c-0.90755,-0.60753 -1.94287,-0.71361 -3.03753,-0.72177c-0.03215,0 -0.18629,-0.05786 -0.10759,-0.05712c1.18946,0.0089 2.31462,0.13688 3.2935,0.79224c0.03254,0.0219 -0.11787,0.00742 -0.14837,-0.01335zM242.79661,146.05269c-0.40143,-0.98955 -0.76699,-2.31737 -0.35527,-3.34663c0.48798,-1.22248 2.00759,-2.11521 3.16859,-2.76022c0.03874,-0.02186 0.17354,0.03896 0.1554,0.04935c-1.21336,0.6739 -2.58417,1.52697 -3.16035,2.75093c-0.46243,0.98253 -0.02928,2.38897 0.35401,3.33402c0.0095,0.02335 -0.14712,0.00851 -0.16239,-0.02745zM241.9678,146.35941c-1.0823,-1.15755 -1.99688,-2.60999 -1.61193,-4.16889c0.29675,-1.20429 1.61276,-2.72091 2.91059,-3.1645c0.04412,-0.01518 0.16612,0.04525 0.15579,0.04935c-1.35679,0.46397 -2.52768,1.93124 -2.90109,3.15521c-0.46161,1.51069 0.57245,3.0473 1.60859,4.15628c0.00742,0.00742 -0.13106,0.00593 -0.16195,-0.02745z" fill="#010101" stroke-width="0.95"/><path d="M246.37202,139.68958c-0.03258,0.01741 0.00286,0.06934 -0.03176,0.08343c-0.28603,0.11388 -0.70065,0.22476 -0.97388,0.36719c-0.20321,0.10608 -0.37341,0.21774 -0.55558,0.34716c-0.19453,0.13688 -0.3767,0.18544 -0.5692,0.32935c-0.20113,0.15058 -0.36638,0.29711 -0.54651,0.46698c-0.3738,0.35161 -0.82386,0.65352 -1.03241,1.12308c-0.09358,0.21102 -0.12364,0.43024 -0.21887,0.63681c-0.08985,0.19138 -0.12074,0.41951 -0.11662,0.62647c0.00451,0.21438 0.03544,0.41427 0.03996,0.62607c0.00538,0.22328 0.10182,0.45398 0.14139,0.65981c0.07996,0.42134 0.28768,0.69952 0.35813,1.12604c-0.19289,0.04267 -0.32599,-0.00258 -0.49952,0.10534c-0.05315,0.03338 -0.17475,0.16655 -0.23245,0.16952c-0.09848,0.00406 -0.22377,-0.11795 -0.25345,-0.17136c-0.09523,-0.16878 -0.16282,-0.2485 -0.28356,-0.40799c-0.12325,-0.16285 -0.26295,-0.3123 -0.38703,-0.47292c-0.2823,-0.36457 -0.48551,-0.82191 -0.62894,-1.24582c-0.15124,-0.44843 -0.32065,-0.92837 -0.22915,-1.41129c0.04946,-0.25889 0.11705,-0.53038 0.18508,-0.78704c0.07584,-0.28782 0.24317,-0.52445 0.44017,-0.75476c0.17063,-0.19919 0.31857,-0.41096 0.45913,-0.63166c0.14508,-0.22847 0.36928,-0.4076 0.57987,-0.59453c0.2469,-0.21848 0.52881,-0.37238 0.78516,-0.56451c0.18052,-0.13575 0.3738,-0.24741 0.60955,-0.26373c0.26625,-0.01815 0.54568,0.00558 0.80946,0.02487c0.30746,0.0226 0.62564,0.02225 0.92117,0.10346c0.21141,0.05786 0.43853,0.12239 0.64417,0.20142c0.11171,0.04302 0.18629,0.11127 0.29059,0.16468c0.10343,0.05302 0.17349,0.08862 0.2951,0.14391" fill="#9c70ff" stroke-width="0.95"/></g><path d="M239.63154,148.36206c0.04908,0.31038 0.08881,0.64864 0.13557,0.98452c-0.04774,-0.15764 -0.08655,-0.31405 -0.11427,-0.46889c-0.04372,-0.24415 -0.05711,-0.4727 -0.04698,-0.69014c0.00802,0.05886 0.01658,0.11705 0.02568,0.17451z" fill="#371e10" stroke="none" stroke-width="0.95"/><path d="M250.06466,172.13179c0.21887,0.17844 0.57948,0.32599 0.84616,0.441c0.21267,0.09315 0.27037,0.23987 0.47232,0.34538c0.19206,0.10013 0.42286,0.279 0.59679,0.40182c0.80369,0.56299 1.7108,1.06169 2.59527,1.50104c0.16447,0.08161 0.34334,0.13892 0.51271,0.21722c0.17558,0.08035 0.30872,0.05935 0.50859,0.06759c0.59887,0.0239 1.18451,0.12612 1.77718,0.20113c0.56425,0.07254 1.14208,0.0754 1.70547,0.13063c0.03792,0.00412 0.1587,0 0.19085,0.0161c0.04408,0.02226 0.04573,0.09397 0.09024,0.13189c0.15414,0.12941 0.4344,0.32516 0.61618,0.42078c0.25636,0.13562 0.38451,0.23371 0.66026,0.33714c0.15536,0.05896 0.36143,0.09028 0.51354,0.15579c0.10551,0.04495 0.30043,0.08985 0.37792,0.18095c0.05193,0.061 0.17887,0.18135 0.18629,0.25636c0.01649,0.16321 -0.14755,0.24069 -0.30208,0.30868c-0.2374,0.1043 -0.53705,0.1315 -0.7728,0.05358c-0.01275,0.27245 0.29757,0.55848 0.44265,0.76208c0.10139,0.14178 0.16981,0.19701 0.1554,0.36599c-0.01319,0.15332 -0.08121,0.22256 -0.18299,0.33384c-0.18135,0.19701 -0.42659,0.31033 -0.57332,0.51228c-0.09232,0.12902 -0.18217,0.15497 -0.30538,0.23822c-0.10469,0.07132 -0.16035,0.17683 -0.28482,0.24811c-0.122,0.06924 -0.11167,0.1764 -0.23245,0.24069c-0.11744,0.06143 -0.41215,0.47028 -0.53909,0.44473c-0.16156,-0.03215 -0.35527,-0.14221 -0.64581,-0.22091c-0.40846,-0.1121 -0.82759,-0.26542 -1.22738,-0.40885c-0.29059,-0.1043 -0.64256,-0.17436 -0.90837,-0.31818c-0.1859,-0.10056 -0.28069,-0.30377 -0.45462,-0.44512c-0.17679,-0.14386 -0.36885,-0.27696 -0.50942,-0.46451c-0.1331,-0.17722 -0.24646,-0.26377 -0.41215,-0.39731c-0.17432,-0.13931 -0.28477,-0.31735 -0.47683,-0.44594c-0.14304,-0.09397 -0.23783,-0.15536 -0.3462,-0.30087c-0.13067,-0.1764 -0.23245,-0.25263 -0.43731,-0.33714c-0.49293,-0.20443 -0.95822,-0.48963 -1.46642,-0.67675c-0.60213,-0.22174 -1.13753,-0.53453 -1.7269,-0.75423c-0.62234,-0.23245 -1.24178,-0.48673 -1.87154,-0.71258c-0.4505,-0.162 -0.91458,-0.31037 -1.36959,-0.44885c-0.10508,-0.03171 -0.24152,-0.0643 -0.33466,-0.11991c-0.05111,-0.03093 -0.12612,0.01236 -0.07584,-0.07913c0.01939,-0.03588 0.14716,-0.05358 0.18299,-0.06638c0.36764,-0.13848 0.75423,-0.19371 1.1161,-0.33219c0.2885,-0.10963 0.56013,-0.28065 0.81193,-0.4587c0.22998,-0.16364 0.47605,-0.46699 0.63553,-0.68829c0.08946,-0.12612 0.17271,-0.23453 0.26954,-0.35033c0.06265,-0.07336 0.10633,-0.24729 0.19167,-0.27037" fill="#ffbb80" stroke="none" stroke-width="0.95"/><path d="M234.52255,170.26431c-0.16195,0.24894 -0.32642,0.49128 -0.4715,0.75918c-0.11249,0.2102 -0.22915,0.4777 -0.36555,0.67471c-0.32972,0.47601 -0.75384,0.92239 -1.12725,1.3951c-0.38699,0.49128 -0.62647,1.08395 -0.9941,1.59584c-0.28521,0.39978 -0.58443,0.79627 -0.8177,1.22864c-0.25757,0.47683 -0.46408,0.99905 -0.78017,1.43675c-0.27657,0.38577 -0.502,0.78677 -0.71263,1.20924c-0.19041,0.37874 -0.38286,0.781 -0.62356,1.12434c-0.12941,0.18547 -0.29388,0.23905 -0.5226,0.34824c-0.20525,0.09644 -0.39362,0.21432 -0.5964,0.31614c-0.46408,0.23284 -0.97679,0.40226 -1.40005,0.72c-0.19662,0.1459 -0.75506,0.83874 -0.87705,0.4715c-0.0977,-0.29675 0.26664,-0.89475 0.43276,-1.12555c0.21844,-0.30746 0.62564,-0.65822 0.9702,-0.81111c0.16321,-0.07297 0.29263,-0.0672 0.47354,-0.07748c-0.12859,-0.52221 0.26009,-0.91579 0.31406,-1.40625c-0.15124,0.05479 -0.39853,0.462 -0.54568,0.59926c-0.1731,0.16156 -0.33176,0.33549 -0.55063,0.45171c-0.16772,0.09024 -0.36846,0.16898 -0.52382,-0.00043c-0.19744,-0.21306 -0.00868,-0.39896 0.13722,-0.55805c0.2646,-0.28768 0.55519,-0.7167 0.72126,-1.09918c0.19332,-0.4443 0.42907,-0.9092 0.58074,-1.3807c0.2613,-0.8066 0.50486,-1.69684 1.44087,-1.94577c0.24234,-0.06347 0.41254,0.01692 0.60378,-0.18052c0.1315,-0.13766 0.30377,-0.37588 0.38495,-0.55063c0.10677,-0.23492 0.16282,-0.26169 0.28356,-0.50651c0.1043,-0.21102 0.17475,-0.68911 0.30417,-0.88243c0.26751,-0.39523 0.52755,-0.77401 0.72911,-1.20551c0.1764,-0.37918 0.28108,-0.79462 0.42534,-1.1977c0.14672,-0.41093 0.32065,-0.81566 0.43276,-1.21584c0.0787,-0.28811 -0.01857,-0.44226 0.23163,-0.33961c0.22048,0.09024 0.401,0.34412 0.55228,0.50733c0.45831,0.4921 0.83831,1.19028 1.52122,1.43922c0.05154,0.10139 0.15787,0.14881 0.19206,0.25184c0.02681,0.00659 0.05236,0.01523 0.07462,0.0305" fill="#ffbb80" stroke="none" stroke-width="0.95"/><path d="M240.67059,154.32865c0.47601,0.19124 0.8787,0.08612 1.38234,0c0.46035,-0.07831 0.96482,-0.02928 1.38894,0.10837c0.46655,0.15128 0.66065,0.26625 1.09054,0.48182c0.23575,0.11744 0.59636,0.36681 0.81111,0.52382c0.29263,0.21432 0.29961,0.34126 0.45952,0.66399c0.12573,0.25098 0.36395,0.38946 0.45462,0.61119c0.09562,0.23618 0.16113,0.42534 0.28972,0.66109c0.24855,0.45957 0.53046,0.92035 0.71922,1.41245c0.19822,0.51601 0.42781,0.98707 0.56794,1.52534c0.13722,0.5259 0.37258,1.04729 0.45913,1.58473c0.12321,0.75874 0.17475,1.50022 -0.05401,2.24126c-0.28933,0.28933 -0.27571,0.86716 -0.19822,1.1849c0.12816,0.5321 0.42408,0.81358 0.71506,1.26694c0.25432,0.3961 0.52469,0.77814 0.62647,1.23397c0.05275,0.23701 -0.01111,0.64915 -0.01401,0.89809c-0.00247,0.23202 -0.1397,0.42451 -0.08902,0.66148c0.08204,0.38577 0.41835,0.72994 0.55436,1.09345c0.16443,0.44017 0.37545,0.44716 0.37588,0.93844c0.00039,0.48963 -0.26998,1.15692 -0.63349,1.48087c-0.17761,0.15826 -0.35731,0.32065 -0.55432,0.46035c-0.18382,0.13106 -0.46408,0.21844 -0.58113,0.39857c-0.32933,0.00204 -0.68213,0.29263 -0.9636,0.40924c-0.24317,0.10056 -0.40968,0.1459 -0.67306,0.17145c-0.55805,0.05649 -1.08352,0.10512 -1.60612,-0.11167c-0.11293,0.26004 -0.25926,0.42902 -0.28811,0.72291c-0.03297,0.33835 0.08121,0.49332 0.25432,0.74061c0.14013,0.19948 0.30746,0.41176 0.47479,0.59432c0.20482,0.22464 0.40347,0.32438 0.40347,0.65905c0,1.22078 -1.31723,1.81592 -2.20538,2.03146c-0.30911,0.07501 -0.78764,0.18299 -1.09796,0.23536c-0.35445,0.05935 -0.60876,0.0721 -0.9702,0.10469c-0.5997,0.05358 -1.34733,0.03584 -1.93957,-0.08863c-0.67592,-0.14217 -1.36256,-0.20152 -1.94165,-0.41831c-0.60998,-0.22751 -1.33701,-0.34664 -1.7718,-0.67306c-0.21926,-0.16443 -0.25306,-0.10095 -0.48551,-0.24811c-0.20651,-0.13145 -0.6174,-0.30994 -0.80781,-0.46859c-0.39115,-0.32438 -0.20898,-0.83831 -0.03544,-1.21584c0.19657,-0.42742 0.5836,-0.59597 0.28972,-1.0613c-0.13228,-0.20811 -0.25388,-0.50117 -0.34785,-0.74681c-0.08325,-0.21553 -0.15783,-0.47892 -0.08573,-0.72c0.07297,-0.24607 0.22629,-0.27037 0.43193,-0.40928c0.24317,-0.16486 0.43028,-0.39688 0.63965,-0.59267c0.33263,-0.31033 0.49171,-0.76165 0.60586,-1.18655c0.12117,-0.45007 0.08781,-0.67224 -0.10469,-1.06048c-0.1669,-0.3367 -0.04985,-0.39935 -0.3128,-0.23575c-0.24564,0.1521 -0.59102,0.26833 -0.86551,0.23163c-0.62234,-0.08447 -1.51796,-0.66686 -1.93011,-1.22903c-0.42325,-0.57822 -1.17749,-1.10785 -1.85302,-1.31063c0.01857,-0.17475 -0.03544,-0.49662 0.02434,-0.65779c0.07748,-0.21349 0.40017,-0.2246 0.54937,-0.39605c0.25718,-0.29345 -0.1731,-0.77198 0.05649,-1.16555c0.11744,-0.20113 0.37215,-0.39033 0.55349,-0.53375c0.37796,-0.29961 0.71675,-0.45007 1.11198,-0.72126c0.58195,-0.39896 1.06911,-0.74269 1.62716,-1.21211c0.37879,-0.31779 1.07119,-0.85067 1.22573,-1.30733c0.20443,-0.60256 0.42616,-1.18369 0.68829,-1.77718c0.43896,-0.99575 0.60794,-2.09167 1.24512,-2.96625c0.20234,-0.27818 0.33753,-0.59514 0.54607,-0.86469c0.20486,-0.26625 0.29922,-0.59844 0.48963,-0.86425c0.18343,-0.25553 0.44968,-0.45007 0.72087,-0.5836c0.29961,-0.14672 0.42616,-0.29388 0.63388,-0.51067" fill="#82654f" stroke="none" stroke-width="0.95"/><path d="M245.48322,178.50812c0.33466,0.48056 0.40391,0.99701 0.82924,1.52044c0.54898,0.67796 0.54156,1.22694 0.8882,1.99931c0.26004,0.57909 0.35939,0.94343 0.43688,1.5872c0.0721,0.60009 0.2584,1.20881 0.39028,1.80148c0.26295,1.17874 0.54942,2.74452 0.77072,3.88326c0.26377,1.3564 0.5387,2.35254 0.60256,3.6541c0.04863,0.98833 0.09853,2.83063 0.32148,3.61085c0.65822,0.08117 0.27944,2.25363 0.27779,2.82937c-0.00286,1.1161 -0.18547,1.92143 0.33714,2.85124c0.25926,0.46161 0.77857,1.57853 1.04026,2.06733c0.22712,0.42204 0.67098,0.6685 0.82473,1.12929c0.15744,0.47232 -0.05275,1.08356 0.13601,1.54516c0.16937,0.41419 0.79007,0.70352 1.07362,1.03614c0.23163,0.27076 0.54117,0.36803 0.77237,0.62273c0.20239,0.22503 0.51848,0.34043 0.62152,0.62152c0.20651,0.56382 0.43154,0.59558 0.37631,1.13258c-0.06842,0.65944 -0.39978,1.07488 -0.27614,1.71454c0.13228,0.68994 -0.22135,1.22243 -0.35692,1.70464c-0.75835,0.04412 -1.3502,-0.05935 -2.06447,0.16239c-0.08902,0.56382 -1.04477,1.59627 -1.56451,1.83241c-0.67263,0.30664 -1.71575,0.26954 -2.46217,0.23328c-0.96234,-0.04573 -2.00551,-0.04781 -2.93367,-0.35813c-0.57657,-0.19453 -1.06621,-0.83215 -1.62469,-0.86677c0.12612,-1.09835 0.5049,-2.11718 0.03588,-3.25762c-0.20403,-0.49744 -0.59475,-1.05796 -0.5597,-1.62673c0.03215,-0.50985 0.23119,-1.03367 0.23119,-1.61276c-0.00121,-1.10247 -0.33423,-2.14152 -0.63059,-3.18261c-0.17393,-0.61037 -0.24399,-1.08148 -0.36803,-1.71124c-0.10347,-0.52837 -0.52755,-1.03284 -0.55436,-1.55584c-0.1121,-2.21901 -0.30004,-2.11146 -0.52013,-3.1682c-0.08408,-0.40391 -0.18299,-0.74764 -0.31818,-1.13215c-0.18256,-0.52013 -0.34577,-1.03532 -0.46985,-1.60408c-0.03171,-0.01566 0.00703,-0.03093 -0.07293,0.02512c-0.08946,0.0639 -0.48594,1.0007 -0.56629,1.17176c-0.16981,0.35857 -0.22338,0.77605 -0.24443,1.19397c-0.02308,0.45627 0.16364,0.93887 0.05731,1.38234c-0.0977,0.40434 -0.46078,0.86759 -0.69119,1.21089c-0.27696,0.41176 -0.70352,0.73692 -1.02169,1.10621c-0.19371,0.22586 -0.39896,0.27245 -0.56135,0.52139c-0.12282,0.18915 -0.57289,0.64746 -0.67015,0.78968c-0.64998,0.94256 -1.44955,2.2866 -2.30846,3.08287c-0.64004,0.59471 -1.40664,1.19562 -1.4866,2.1036c-0.07132,0.81523 0.54525,1.96677 0.00121,2.57714c-0.43193,0.48265 -0.89354,0.29636 -0.56052,1.04026c0.2164,0.48924 -0.03792,0.68334 -0.27367,1.23562c-0.19245,0.44924 -0.49458,0.7662 -0.85727,1.15566c-0.31857,0.34126 -0.35649,0.55228 -0.55393,0.92035c-0.29922,0.12941 -1.61727,0.6174 -1.93874,0.66972c-2.72716,0.44555 -4.26244,-0.10304 -4.92144,-0.36928c-0.5387,-0.21844 -0.91046,-0.43562 -1.22616,-0.95371c-0.34742,-0.56915 -0.68868,-1.14989 -2.38755,-1.62013c-1.03493,-0.28686 -0.29757,-0.08573 -0.92239,-0.40351c-0.29141,-0.81276 0.56712,-1.89341 1.0151,-2.53718c0.13809,-0.19866 0.23657,-0.55475 0.27284,-0.79748c0.03297,-0.22547 -0.021,-0.53497 0.0367,-0.63471c0.17145,-0.29553 1.07323,-0.19744 1.36503,-0.2918c0.00165,-0.2374 0.03419,-0.48633 0.11046,-0.69571c0.31406,-0.86798 0.99119,-1.75948 1.56204,-2.43909c0.64499,-0.77033 1.06334,-1.27397 1.78048,-1.99028c0.40759,-0.40968 0.81276,-0.73692 1.22859,-1.17627c0.42286,-0.44469 0.9187,-0.83336 1.3436,-1.28052c0.30048,-0.31653 0.78968,-0.83996 1.07323,-1.15649c0.13727,-0.15332 -0.122,-0.43814 0.00868,-0.84903c0.13024,0.02638 0.12859,-0.88325 0.60955,-0.60915c0.57536,-0.90386 0.54074,-1.89054 0.94425,-2.85536c0.47848,-1.14456 0.85189,-2.20378 1.12226,-3.42413c0.31735,-1.42768 0.70026,-3.38252 0.78226,-5.10899c0.05731,-1.21336 0.13479,-2.17822 0.17024,-3.40846c0.03007,-1.06048 0.10178,-2.21983 0.5164,-3.22096c0.20651,-0.4987 0.24317,-1.0456 0.52963,-1.50764c0.24108,-0.38946 0.74104,-0.88529 0.73033,-1.3807c0.3495,0.09111 0.72456,0.35241 1.039,0.52508c0.67015,0.36725 0.73406,0.49419 1.302,0.62937c0.71423,0.1702 1.42026,0.40061 2.13328,0.59141c0.37462,0.10056 0.69653,0.1554 1.10577,0.16035c1.75987,0.02061 3.78643,-0.41505 5.12756,-0.92156" fill="#c6cda6" stroke="none" stroke-width="0.95"/><path d="M241.74751,180.29931c0.27449,0.07913 0.52798,0.26751 0.77237,0.42369c0.12078,0.07709 0.26256,0.14178 0.37796,0.22052c0.19371,0.1298 0.12859,0.19328 0.11497,0.4072c-0.01852,0.31033 0.00742,0.54937 -0.11167,0.83748c-0.12655,0.30785 -0.27367,0.62768 -0.43688,0.91371c-0.14508,0.25388 -0.33592,0.63059 -0.55063,0.83874c-0.24937,0.24191 -0.39401,0.48963 -0.62152,0.75297c-0.09644,0.11128 -0.31779,0.27822 -0.4072,0.39445c-0.13354,0.17349 -0.20607,0.18382 -0.38126,0.30703c-0.12859,0.08946 -0.29757,0.18959 -0.42078,0.28646c-0.10386,0.08282 -0.18837,0.04738 -0.29675,0.12156c-0.16816,0.11336 -0.42412,0.27861 -0.61206,0.35445c-0.13393,0.05523 -0.3433,0.13479 -0.47848,0.18464c-0.28108,0.10347 -0.52551,0.13727 -0.80699,0.22833c-0.38659,0.12529 -0.7905,0.10551 -1.18369,0.14963c0.01731,-0.42659 -0.33879,-0.75258 -0.34456,-1.16143c0.25345,-0.101 0.52096,-0.14056 0.76412,-0.26872c0.29345,-0.1554 0.62647,-0.24317 0.9269,-0.39072c0.20898,-0.10304 0.44265,-0.17271 0.65449,-0.27905c0.32312,-0.16239 0.59349,-0.34785 0.88573,-0.5597c0.19987,-0.14547 0.38989,-0.25636 0.54443,-0.46325c0.13479,-0.1797 0.26503,-0.32022 0.42286,-0.47974c0.31449,-0.31653 0.48512,-0.59965 0.66894,-1.0007c0.15909,-0.34703 0.48551,-0.70434 0.4859,-1.09549c0,-0.15701 -0.09644,-0.65449 0.03297,-0.73978" fill="#4e3a78" stroke="none" stroke-width="0.95"/><path d="M257.9342,213.95574c-0.0033,-0.00208 0.07544,0.05315 0.07666,0.05523c0.05935,0.08573 -0.02885,0.29345 -0.07254,0.38204c-0.04902,0.10056 -0.11991,0.11952 -0.19328,0.20156c-0.07132,0.08078 -0.10512,0.19289 -0.16859,0.27983c-0.18217,0.2502 -0.42451,0.50573 -0.63553,0.72664c-0.52135,0.54486 -1.24716,0.78265 -1.96386,0.99779c-0.59267,0.17722 -1.13341,0.35818 -1.75245,0.4472c-0.54239,0.07705 -1.07571,0.12733 -1.61974,0.15289c-0.5931,0.02638 -1.19935,-0.07089 -1.78872,-0.01688c-0.3079,0.02803 -0.61905,0.03462 -0.91744,0.10881c-0.2003,0.05028 -0.47232,0.0577 -0.62525,0.21267c0.00043,0.01605 0.01319,0.01319 0.01362,0.03254c-0.15579,0.14633 -0.50408,0.14881 -0.70972,0.21393c-0.14963,0.04573 -0.29306,0.0915 -0.4377,0.15002c-0.25267,0.10013 -0.60998,0.21267 -0.88447,0.23987c-0.69735,0.07046 -0.76,-0.55271 -0.82391,-0.98586c-0.05193,-0.34911 0.09067,-0.62607 0.16321,-0.95332c0.03423,-0.15085 0.00412,-0.3672 0.18876,-0.43028c0.12078,-0.04243 0.35653,0.02269 0.48633,0.03258c0.41835,0.03874 0.83089,0.10304 1.26161,0.07666c0.55761,-0.03505 1.07198,0.07952 1.62963,0.11167c0.45089,0.02681 0.92855,0.04577 1.36872,-0.05688c0.42039,-0.09931 0.68334,-0.3367 0.96156,-0.62564c0.14464,-0.15206 0.23987,-0.34208 0.37132,-0.50568c0.11952,-0.1459 0.31531,-0.2436 0.43566,-0.37549c0.12156,-0.13228 0.19453,-0.32764 0.36061,-0.42985c0.15497,-0.09479 0.41462,-0.13892 0.58651,-0.19744c0.70148,-0.23822 1.46516,0.18178 2.13944,0.24894c0.44885,0.04451 0.91211,0.02143 1.35762,-0.01852c0.22794,-0.01978 0.46204,-0.00868 0.68707,-0.03709c0.17228,-0.02269 0.39154,-0.08286 0.55887,-0.01939" fill="#000000" stroke="none" stroke-width="0.95"/><path d="M258.0084,214.03198c0.16117,0.36187 0.23948,0.64174 0.28356,1.0374c0.01978,0.17887 0.06017,0.29345 0.02351,0.47106c-0.04039,0.19167 0.03419,0.36351 -0.04286,0.54074c-0.06555,0.14798 -0.17024,0.26872 -0.21926,0.41627c-0.05978,0.17558 -0.32807,0.36889 -0.47644,0.47562c-0.42699,0.30377 -0.821,0.46325 -1.31393,0.6174c-0.56673,0.17683 -1.10373,0.28399 -1.69436,0.30334c-0.47519,0.01566 -0.92156,-0.08941 -1.39428,-0.01935c-1.08109,0.16113 -2.08096,0.52794 -3.09276,0.90464c-0.83709,0.31158 -1.66508,0.62234 -2.53718,0.73488c-0.2003,0.02555 -0.38824,0.02594 -0.59102,0.03709c-0.14139,0.00742 -0.33137,0.07748 -0.47067,0.03792c-0.22174,-0.06308 -0.32642,-0.53744 -0.40061,-0.75219c-0.11375,-0.32764 -0.25432,-0.58443 0.17432,-0.6784c0.40226,-0.08777 0.79753,-0.24026 1.1866,-0.37792c0.37957,-0.13397 0.70599,-0.38208 1.09258,-0.51354c0.37176,-0.12902 0.92035,-0.08946 1.3131,-0.08902c0.57579,0.00082 1.16473,0.02967 1.73558,-0.01445c0.24234,-0.01896 0.48881,-0.01731 0.73197,-0.04286c0.30004,-0.02842 0.45705,-0.00863 0.7538,-0.02555c0.95124,-0.0544 2.08217,-0.42122 2.9246,-0.87705c0.50078,-0.27119 0.86182,-0.62069 1.28469,-0.95536c0.2246,-0.17805 0.23696,-0.31818 0.34868,-0.55558c0.09766,-0.20772 0.31735,-0.37132 0.32889,-0.6141c0.03462,-0.01111 0.07623,-0.03748 0.11046,-0.04161" fill="#ffffff" stroke="none" stroke-width="0.95"/><path d="M227.98714,216.25472c-0.00703,0.36391 0.68829,0.6108 0.93722,0.75874c0.3161,0.18712 0.65119,0.35445 0.98339,0.5226c0.42122,0.21514 0.90178,0.26954 1.3374,0.45297c0.12078,0.05067 0.298,0.09892 0.31861,0.22586c0.03709,0.21184 -0.31076,0.45458 -0.45171,0.54525c-0.22712,0.14343 -0.46902,0.31037 -0.72004,0.39692c-0.36764,0.12612 -0.73566,0.23861 -1.10742,0.30664c-0.42369,0.07748 -0.72785,0.09562 -1.16226,0.07089c-0.3351,-0.02022 -0.78638,-0.04165 -1.11527,-0.12035c-0.56629,-0.13809 -1.03944,-0.21679 -1.59957,-0.34911c-0.36226,-0.08408 -0.67675,-0.19905 -1.02004,-0.34742c-0.34538,-0.14672 -0.78555,-0.39814 -1.11323,-0.58156c-0.79132,-0.44265 -1.38603,-0.9941 -2.08833,-1.56616c-0.59844,-0.48673 -1.06169,-0.85601 -1.4928,-1.49402c-0.2102,-0.31119 -0.42989,-0.55848 -0.50738,-0.93106c-0.04121,-0.1974 -0.01688,-0.36351 0.09853,-0.52876c0.11787,-0.16816 0.32104,-0.54447 0.53866,-0.53787c0.22668,0.00742 0.77566,0.14551 1.06213,0.25679c0.22668,0.08777 0.462,0.16321 0.6784,0.26417c0.21679,0.10056 0.30911,0.22794 0.48469,0.37714c0.17145,0.14672 0.36599,0.23944 0.51271,0.42078c0.14464,0.17887 0.25922,0.34417 0.4105,0.51519c0.21597,0.24525 0.48139,0.53458 0.75709,0.72581c0.53827,0.37341 1.32464,0.45458 1.95484,0.56876c0.7328,0.1331 1.49814,0.12282 2.24538,0.12282" fill="#000000" stroke="none" stroke-width="0.95"/><path d="M231.67916,218.32451c0.09644,0.07046 -0.01731,0.36764 -0.03709,0.49046c-0.03011,0.19124 -0.07254,0.38616 -0.15128,0.56503c-0.1187,0.26998 -0.18135,0.63514 -0.3433,0.88035c-0.24443,0.37258 -0.8882,0.51189 -1.31393,0.57002c-0.75093,0.10139 -1.55215,0.07623 -2.30764,0.03709c-0.77401,-0.04 -1.62096,-0.15167 -2.37848,-0.31779c-0.72087,-0.15783 -1.40916,-0.27323 -2.03684,-0.65735c-0.23163,-0.14139 -0.44391,-0.23041 -0.58525,-0.47562c-0.12859,-0.22256 -0.32972,-0.4682 -0.47809,-0.68707c-0.35076,-0.51722 -0.63514,-0.80204 -1.13093,-1.16924c-0.30169,-0.22382 -0.64009,-0.58568 -0.92898,-0.85111c-0.1554,-0.14343 -0.28356,-0.31323 -0.45501,-0.4377c-0.14633,-0.10716 -0.28686,-0.34 -0.42451,-0.45996c-0.38907,-0.34082 -0.74972,-0.53866 -0.77566,-1.02581c-0.01154,-0.19662 0.26417,-0.57744 0.3561,-0.75506c0.10633,-0.20239 0.21471,-0.4344 0.37627,-0.1892c0.08985,0.13601 0.13766,0.32933 0.19783,0.48798c0.08161,0.2131 0.13315,0.30954 0.28646,0.46985c0.19289,0.2003 0.21844,0.36187 0.4138,0.5597c0.17597,0.17766 0.39978,0.46369 0.58482,0.63059c0.21679,0.19662 0.43566,0.37588 0.64048,0.57909c0.18876,0.18712 0.43649,0.279 0.6269,0.47232c0.83996,0.84859 2.28989,1.6725 3.47853,1.96304c0.36061,0.0882 0.47766,0.12738 0.86716,0.21145c0.52837,0.1154 1.05427,0.30208 1.59952,0.33093c0.85974,0.04616 1.79658,0.02061 2.58664,-0.36928c0.18135,-0.0882 0.35527,-0.22174 0.54074,-0.319c0.12035,-0.06347 0.22256,-0.13354 0.33714,-0.21102c0.1587,-0.10551 0.3767,-0.15783 0.48963,-0.32022" fill="#ffffff" stroke="none" stroke-width="0.95"/><path d="M236.28286,185.54843c1.31102,-0.45089 2.61918,-0.90959 3.63597,-1.89506c0.87991,-0.85271 1.79944,-2.06816 1.76235,-3.35324c-0.00082,-0.03627 0.16525,-0.01111 0.1669,0.04495c0.0367,1.30321 -0.90178,2.4902 -1.77345,3.3689c-0.99575,1.00317 -2.35254,1.45736 -3.65658,1.90495c-0.04286,0.01523 -0.19371,-0.05111 -0.13518,-0.0705zM243.17233,181.15207c0.04325,1.38894 -1.04768,2.81003 -1.97419,3.7522c-1.17132,1.18985 -2.84217,1.74174 -4.46894,1.88846c-0.04243,0.0033 -0.1941,-0.06967 -0.1059,-0.07748c1.63705,-0.14837 3.22339,-0.70972 4.41823,-1.87115c0.9364,-0.91046 2.00673,-2.36655 1.9643,-3.73653c-0.00126,-0.03709 0.16525,-0.01197 0.16651,0.04451zM241.86786,180.29645c0.42907,0.30868 0.9669,0.46529 1.33662,0.8548c0.04243,0.04286 -0.122,0.02594 -0.15293,-0.00659c-0.36061,-0.37918 -0.89393,-0.53332 -1.31349,-0.8338c-0.07215,-0.0515 0.09518,-0.03957 0.1298,-0.0144zM236.45184,185.61563c0.17514,0.33714 0.35896,0.73237 0.32725,1.12308c-0.0033,0.04121 -0.17145,0.00907 -0.16694,-0.04451c0.03132,-0.38165 -0.15453,-0.77401 -0.3256,-1.10456c-0.01813,-0.03462 0.14139,-0.02017 0.16529,0.02599z" fill="#000000" stroke="none" stroke-width="0.95"/><path d="M229.9609,198.24467c1.12477,-3.17519 2.25406,-6.45138 2.63406,-9.81325c0.22295,-1.98204 0.03132,-3.98382 0.29015,-5.96543c0.12733,-0.96651 0.36968,-1.93918 0.68868,-2.85866c0.27944,-0.80369 0.83831,-1.48868 1.08972,-2.29072c0.01445,-0.04495 0.23453,0.01852 0.22299,0.06017c-0.22998,0.73072 -0.72994,1.38234 -1.01844,2.09866c-0.36104,0.89683 -0.56915,1.88022 -0.72785,2.8302c-0.33918,2.04386 -0.11128,4.13016 -0.32269,6.1843c-0.34417,3.35692 -1.51219,6.65207 -2.63406,9.81407c-0.01649,0.04698 -0.23614,-0.02104 -0.22256,-0.05935zM245.47623,178.32677c0.80616,1.23727 1.46104,2.50421 1.8938,3.91706c0.46161,1.50972 0.8066,3.0528 1.0951,4.60413c0.62811,3.36972 1.22573,6.83793 1.33987,10.26617c0.00165,0.02599 -0.21965,0 -0.22174,-0.06017c-0.11293,-3.36599 -0.70929,-6.75138 -1.30278,-10.06218c-0.29015,-1.61601 -0.65861,-3.21762 -1.12929,-4.79038c-0.4233,-1.4141 -1.08972,-2.68226 -1.89302,-3.91666c-0.01154,-0.01688 0.18382,-0.01072 0.21805,0.04204zM245.4791,178.33584c0.6718,3.47567 -0.01319,6.92617 -1.24057,10.19489c-0.60872,1.62304 -1.34855,3.19376 -2.1036,4.7525c-0.36928,0.76369 -0.74638,1.52122 -1.11362,2.28452c-0.35939,0.74681 -0.63675,1.52291 -1.08022,2.22603c-0.03215,0.0515 -0.23618,-0.03709 -0.22256,-0.06017c0.44182,-0.69983 0.73319,-1.47675 1.08022,-2.22478c0.35571,-0.76824 0.74395,-1.52291 1.11362,-2.28456c0.75714,-1.55913 1.48538,-3.13354 2.1036,-4.75246c1.2443,-3.25558 1.91072,-6.73411 1.241,-10.19615c-0.00412,-0.01484 0.20894,-0.00451 0.22213,0.06017zM231.6812,199.92954c-0.85519,0.0482 -1.91028,-0.80616 -1.68195,-1.72321c0.01072,-0.04286 0.23328,0.01527 0.22256,0.05978c-0.18052,0.72907 0.56629,1.62261 1.31393,1.57935c0.04243,-0.00247 0.25223,0.07787 0.14547,0.08408zM230.19253,200.82637c-0.43067,-0.57414 -1.09835,-1.21749 -0.94629,-2.001c0.08616,-0.4443 0.59145,-0.79171 0.93558,-0.41336c0.00703,0.00742 -0.17514,0.00659 -0.21844,-0.04286c-0.17805,-0.19536 -0.45705,0.4105 -0.49332,0.51475c-0.09397,0.27284 0.01649,0.57783 0.12859,0.82594c0.19328,0.42907 0.53536,0.78638 0.8148,1.15896c0.00824,0.0128 -0.18174,0.00868 -0.22091,-0.04243zM241.7125,199.52107c-0.36642,-0.48096 -0.22876,-0.98339 -0.42412,-1.53566c-0.23905,-0.67466 -0.55267,-1.32794 -0.65158,-2.04425c-0.0033,-0.01852 0.21388,-0.0033 0.22256,0.05978c0.09644,0.69818 0.38204,1.37987 0.64746,2.02612c0.21679,0.52837 0.0643,1.06252 0.42534,1.53688c0.0095,0.01072 -0.18052,0.00785 -0.21965,-0.04286zM222.0221,208.63493c0.21475,-0.8548 0.72499,-1.65974 1.18,-2.40694c0.51519,-0.84286 1.17336,-1.59462 1.85054,-2.30968c1.39263,-1.47054 3.00209,-2.73133 4.302,-4.29172c0.04161,-0.04985 0.23163,0.04616 0.22213,0.06017c-1.17501,1.41202 -2.60148,2.58417 -3.89684,3.87875c-0.7905,0.78924 -1.53033,1.62716 -2.1502,2.55862c-0.51024,0.76824 -1.05922,1.67041 -1.28508,2.57137c-0.01072,0.04204 -0.23367,-0.01566 -0.22256,-0.06056zM219.30483,212.54824c0.25388,-0.70972 0.48425,-1.40664 0.94256,-2.01458c0.39774,-0.5259 0.57124,-1.07323 0.5836,-1.72894c0.00165,-0.00247 0.00495,-0.00456 0.00659,-0.00703c0.4377,-0.14547 0.86759,-0.22048 1.32877,-0.20772c0.04247,0.00208 0.25059,0.08781 0.1459,0.08369c-0.2485,-0.00785 -0.48963,0.01111 -0.73319,0.05111c-0.41215,0.06716 -0.51562,0.28603 -0.55805,0.64378c-0.04121,0.34495 -0.18712,0.659 -0.36395,0.95289c-0.21761,0.36226 -0.47974,0.67466 -0.66477,1.05796c-0.19002,0.39319 -0.31779,0.81688 -0.46451,1.22781c-0.01731,0.04738 -0.23575,-0.02104 -0.22295,-0.05896zM230.955,215.52355c-1.20842,0.43809 -2.28616,0.91414 -3.60092,0.85892c-1.09098,-0.04412 -2.38386,-0.13931 -3.39115,-0.60668c-1.12187,-0.52056 -1.5777,-1.86786 -2.7243,-2.29484c-0.38208,-0.14178 -1.88599,-0.43358 -1.90538,-0.98959c-0.00082,-0.02638 0.22052,-0.00039 0.22299,0.05978c0.0177,0.52425 1.6082,0.81892 2.02898,0.9974c0.79215,0.33588 1.24347,1.25788 1.86126,1.80933c0.9525,0.84985 2.69627,0.89931 3.91089,0.94959c1.22447,0.05028 2.26846,-0.44968 3.38742,-0.85523c0.06061,-0.02347 0.22135,0.06677 0.2102,0.07132zM231.85183,210.98621c0.25184,0.33137 0.49419,0.67015 0.7361,1.00976c0.17063,0.24069 0.3351,0.35197 0.21514,0.64048c-0.43315,1.03905 -1.25211,1.88022 -1.75658,2.8797c-0.02555,0.05028 -0.2374,-0.0305 -0.22295,-0.06017c0.47397,-0.93931 1.14907,-1.77185 1.65766,-2.69627c0.21432,-0.38742 0.11991,-0.47479 -0.11375,-0.80616c-0.24152,-0.3384 -0.48304,-0.67801 -0.73571,-1.00894c-0.00781,-0.0128 0.18135,-0.0095 0.22009,0.04161zM233.29353,208.43215c0.00412,0.4043 0.02764,0.8049 0.06967,1.20798c0.04161,0.3928 0.19575,0.83666 0.14013,1.22946c-0.0672,0.47232 -0.86347,0.57492 -1.04482,1.01965c-0.02017,0.04698 -0.23575,-0.02555 -0.22295,-0.06017c0.19289,-0.46902 0.74929,-0.52178 1.01015,-0.92694c0.1731,-0.26994 -0.04161,-0.83623 -0.07996,-1.12473c-0.06182,-0.46738 -0.08941,-0.93519 -0.09436,-1.40378c-0.00082,-0.02885 0.22174,-0.00043 0.22213,0.05853zM240.10469,197.52793c-0.00369,1.02339 0.10265,2.16009 -0.52382,3.0161c-0.26751,0.36807 -0.61041,0.68911 -0.922,1.02009c-0.45952,0.49085 -0.87827,1.02048 -1.31558,1.52989c-0.77111,0.90052 -1.39098,1.91896 -2.12091,2.85454c-0.30538,0.39193 -0.62152,0.81232 -0.96234,1.17215c-0.36928,0.39028 -0.80039,0.78391 -0.96733,1.31228c-0.01401,0.0449 -0.23492,-0.01939 -0.22213,-0.05978c0.11249,-0.35939 0.36968,-0.69571 0.62317,-0.97059c0.40265,-0.4377 0.80369,-0.88243 1.17666,-1.34772c0.74187,-0.92651 1.35844,-1.94742 2.11393,-2.85948c0.7295,-0.88161 1.50638,-1.71124 2.26352,-2.56812c0.75545,-0.85519 0.62933,-2.08382 0.63388,-3.15744c0.00082,-0.0305 0.22338,-0.00043 0.22295,0.05809zM235.04971,203.15292c1.15072,-0.75918 2.33068,-1.48247 3.65658,-1.89011c0.04781,-0.0144 0.24234,0.06226 0.18421,0.08039c-1.31597,0.40473 -2.48855,1.12885 -3.6302,1.88187c-0.04946,0.03419 -0.23367,-0.05688 -0.21059,-0.07215zM236.15466,200.76411c-0.33918,-0.54321 -0.49458,-1.14451 -0.37874,-1.78048c0.05275,-0.28972 0.21223,-0.61492 0.55393,-0.53206c1.24343,0.30169 0.33505,2.463 1.31393,3.03918c0.09232,0.05397 -0.13106,0.02182 -0.16777,0c-0.68334,-0.40269 -0.59102,-1.69271 -0.74599,-2.3538c-0.04039,-0.17228 -0.11909,-0.33137 -0.2102,-0.48139c-0.30994,-0.51024 -0.54113,0.48963 -0.55184,0.55063c-0.101,0.55271 0.11662,1.13879 0.40391,1.59996c0.01319,0.01774 -0.18464,0.01072 -0.21722,-0.04204zM251.89915,205.259c-0.86759,-1.2731 -1.71744,-2.64885 -1.99562,-4.18742c-0.14013,-0.77649 -0.17931,-1.56781 0.02555,-2.33397c0.22668,-0.85028 0.19492,-1.60287 -0.33961,-2.33276c0.07293,0.0144 0.14547,0.0272 0.21883,0.04204c0.00577,0.03254 0.01978,0.061 0.04286,0.08573c0.01115,0.01523 -0.18217,0.00989 -0.21883,-0.04204c-0.02308,-0.02555 -0.03709,-0.05319 -0.04286,-0.08573c-0.01401,-0.04412 0.19289,0.00659 0.21883,0.04204c0.44473,0.6079 0.58486,1.26282 0.4377,2.00178c-0.15991,0.80534 -0.28312,1.48005 -0.18052,2.30968c0.2069,1.67662 1.12104,3.17562 2.05332,4.54313c0.01033,0.01566 -0.18421,0.01072 -0.21965,-0.04247zM241.93341,199.57179c-0.01401,0.58399 0.06221,1.17627 0.15085,1.75163c0.12321,0.79913 0.48963,1.53814 0.68208,2.32534c0.22382,0.91866 0.44265,1.84313 0.63184,2.7692c0.10304,0.50612 0.21388,1.01185 0.24894,1.52785c0.03792,0.55887 -0.00868,1.10165 0.10755,1.65601c0.00907,0.04243 -0.20811,0.00863 -0.21883,-0.04204c-0.18959,-0.90837 -0.09644,-1.84521 -0.2708,-2.76265c-0.21597,-1.13709 -0.4921,-2.26764 -0.76577,-3.39154c-0.1669,-0.6846 -0.48551,-1.31683 -0.6141,-2.00842c-0.11332,-0.61245 -0.18876,-1.26074 -0.17349,-1.88352c0,-0.03171 0.22338,0.00043 0.22174,0.05813zM255.00097,210.05024c-0.23987,-0.57206 -0.40269,-0.97267 -0.88408,-1.40048c-0.38946,-0.34499 -0.83336,-0.6269 -1.23601,-0.95618c-0.2774,-0.22629 -0.68542,-0.57206 -0.75961,-0.93887c-0.10551,-0.52755 0.07462,-1.07532 -0.22213,-1.55792c-0.01115,-0.01857 0.18629,-0.01154 0.21883,0.04161c0.24113,0.39445 0.1764,0.81605 0.18095,1.26078c0.00659,0.64499 0.58937,1.0728 1.05263,1.4351c0.41132,0.32148 0.84035,0.6108 1.2187,0.97267c0.35323,0.33796 0.46534,0.74846 0.64915,1.18699c0.01236,0.02803 -0.19618,0.01111 -0.21844,-0.04369zM255.22106,210.01601c-0.06967,0.67965 -0.22629,1.35228 -0.20568,2.03684c0.01813,0.60586 0.05401,1.29952 -0.35445,1.79493c-0.04121,0.05028 -0.23245,-0.04616 -0.22256,-0.06017c0.40846,-0.49623 0.37176,-1.18907 0.35406,-1.79449c-0.01978,-0.6846 0.13601,-1.35679 0.20607,-2.03727c0.00412,-0.03462 0.22872,0.00659 0.22256,0.06017zM254.54184,213.84816c-1.31106,-0.30417 -1.96308,0.22586 -2.68187,1.22039c-0.25388,0.35115 -0.52508,0.68417 -0.92981,0.86386c-0.37176,0.16486 -0.94382,0.08777 -1.33454,0.07748c-1.19974,-0.0367 -2.40898,-0.00868 -3.60092,-0.16777c-0.7728,-0.10343 -1.37701,-0.63141 -2.00512,-1.04313c-0.08985,-0.05853 0.13232,-0.02308 0.16859,0.00039c0.36803,0.24069 0.7167,0.50942 1.09918,0.72829c0.69241,0.39814 1.75041,0.33631 2.52482,0.3672c0.55601,0.02143 1.11115,0.01401 1.66798,0.03215c0.66026,0.02143 1.27146,0.05978 1.7784,-0.41748c0.54074,-0.50738 0.80863,-1.21297 1.45736,-1.61892c0.55805,-0.34829 1.26903,-0.24113 1.87198,-0.101c0.13024,0.02928 0.11336,0.0882 -0.01605,0.05853zM243.65163,209.50248c-0.30004,0.88117 0.35774,1.86169 0.54364,2.72308c0.18547,0.85931 0.10755,1.71701 -0.11748,2.55983c-0.01154,0.0433 -0.2341,-0.01649 -0.22256,-0.06017c0.26625,-0.9974 0.27575,-1.93913 0.02846,-2.94395c-0.19085,-0.77649 -0.73362,-1.52126 -0.45501,-2.34061c0.01605,-0.04451 0.23575,0.02226 0.22295,0.06182zM253.11911,208.43996c-0.61206,0.33137 -1.05922,0.90551 -1.54187,1.39471c-0.28191,0.28521 -0.56503,0.56508 -0.86508,0.83132c-0.23328,0.20772 -0.59558,0.57575 -0.91623,0.62933c-0.28972,0.04863 -0.51063,-0.15783 -0.60955,-0.40594c-0.19701,-0.49336 0.31488,-1.15484 0.57245,-1.53237c0.03462,-0.05111 0.23575,0.04161 0.22256,0.06017c-0.24108,0.35236 -0.46612,0.70725 -0.57575,1.12473c-0.04907,0.18837 -0.03258,0.76126 0.33879,0.62278c0.26664,-0.09809 0.54321,-0.3895 0.75835,-0.57167c0.81853,-0.68868 1.45775,-1.71245 2.40651,-2.22478c0.05401,-0.03132 0.22998,0.061 0.20981,0.07171z" fill="#000000" stroke="none" stroke-width="0.95"/><path d="M250.18214,172.14084c1.77059,0.98174 3.29757,2.25566 5.19758,3.00495c0.14672,0.0577 0.00989,0.10304 -0.08161,0.0672c-1.91979,-0.75753 -3.45875,-2.03562 -5.24786,-3.02764c-0.13024,-0.07215 0.07171,-0.07748 0.13189,-0.04451zM246.48804,174.26382c1.20924,0.25679 2.40282,0.79011 3.54942,1.24469c1.25419,0.4987 2.49432,1.03284 3.74851,1.53237c0.14672,0.05853 0.00989,0.10347 -0.08039,0.0672c-1.14946,-0.45709 -2.28946,-0.94096 -3.43484,-1.40586c-1.20182,-0.48798 -2.47328,-1.07076 -3.7456,-1.34031c-0.09354,-0.01896 -0.19163,-0.13024 -0.03709,-0.09809zM259.30627,175.48668c-1.31393,-0.02928 -2.61632,-0.21887 -3.92738,-0.28768c-0.06759,-0.00373 -0.24069,-0.11171 -0.09232,-0.10469c1.31106,0.06881 2.61345,0.2584 3.92612,0.28807c0.06924,0.00165 0.24234,0.10798 0.09358,0.1043zM258.99716,180.47901c-0.57991,-0.23492 -1.15198,-0.48673 -1.74959,-0.6751c-0.57041,-0.17926 -0.78638,-0.11128 -1.22078,-0.48139c-0.43067,-0.36599 -0.81605,-0.78638 -1.222,-1.17792c-0.45545,-0.43974 -0.83748,-0.96564 -1.44664,-1.21046c-0.1459,-0.05853 -0.00868,-0.10347 0.08161,-0.0672c0.87579,0.3528 1.51753,1.22781 2.1679,1.87653c0.24399,0.24317 0.4921,0.47562 0.7538,0.69818c0.20525,0.17475 0.65245,0.20443 0.90837,0.27614c0.62113,0.17349 1.21254,0.4521 1.80894,0.69406c0.14547,0.05892 0.00946,0.10386 -0.08161,0.06716zM259.42371,175.43887c0.72829,0.9508 1.29623,2.00963 1.95154,3.00951c0.0482,0.07375 -0.17145,0.04204 -0.20403,-0.00824c-0.65571,-0.99987 -1.22365,-2.0587 -1.9515,-3.00951c-0.05111,-0.06759 0.1669,-0.03957 0.20399,0.00824zM259.05899,176.84018c0.58195,0.71714 1.12638,1.46725 1.67948,2.20664c0.05111,0.06842 -0.16772,0.03957 -0.20399,-0.00824c-0.5531,-0.73983 -1.09714,-1.4895 -1.67953,-2.20707c-0.05232,-0.06469 0.16694,-0.03792 0.20403,0.00868zM260.04402,179.60239c-0.57289,-0.49293 -1.15692,-1.10373 -1.55462,-1.74712c-0.02473,-0.04078 0.18421,-0.02555 0.22091,0.03462c0.38369,0.62113 0.95536,1.21874 1.50764,1.69354c0.09106,0.07913 -0.13106,0.05688 -0.17393,0.01896zM260.69231,179.12265c-0.04616,0.21349 -0.24603,0.38907 -0.44633,0.4554c-0.04781,0.01649 -0.11254,-0.00247 -0.15623,-0.02555c-0.02308,-0.01193 -0.07375,-0.05397 -0.0243,-0.06963c0.18421,-0.061 0.36226,-0.22712 0.40512,-0.42082c0.01236,-0.05935 0.23575,-0.00369 0.22174,0.06061zM261.38471,178.47393c-0.16937,0.30087 -0.43853,0.54981 -0.7056,0.76412c-0.05275,0.04325 -0.25427,-0.04286 -0.20855,-0.07957c0.25926,-0.20976 0.52633,-0.45171 0.69158,-0.74473c0.03627,-0.06347 0.24772,0.01566 0.22256,0.06017zM260.23443,179.63328c-0.24811,0.25883 -0.45419,0.51727 -0.82842,0.39692c-0.18135,-0.05731 -0.3384,-0.19167 -0.48677,-0.30334c-0.36885,-0.28069 -0.76577,-0.54612 -1.16512,-0.78391c-0.1282,-0.07584 0.07336,-0.07957 0.13228,-0.04412c0.3256,0.19453 0.63471,0.41093 0.94425,0.62894c0.16525,0.11666 0.32889,0.2341 0.49375,0.35158c0.2918,0.20646 0.53991,-0.15787 0.70104,-0.32477c0.04577,-0.04863 0.25388,0.03089 0.20898,0.0787zM259.01404,180.40565c0.1121,-0.15332 0.24482,-0.29961 0.3862,-0.42655c0.04946,-0.04412 0.25427,0.03957 0.20855,0.07996c-0.14139,0.12733 -0.2741,0.27323 -0.3862,0.42655c-0.03627,0.04946 -0.25098,-0.02265 -0.20855,-0.07996zM259.46701,175.49493c0.39896,0.40924 0.8449,0.6718 1.37202,0.88321c0.28646,0.11375 0.77857,0.21844 0.95085,0.51232c0.30829,0.52382 -0.922,0.50117 -1.15896,0.45007c-0.13397,-0.02846 -0.10798,-0.11419 0.02308,-0.08616c0.28521,0.061 0.64746,0.03957 0.88612,-0.1459c0.35197,-0.27406 -0.53909,-0.56876 -0.67965,-0.62273c-0.60955,-0.23371 -1.13835,-0.52798 -1.59705,-0.99822c-0.05605,-0.0577 0.16195,-0.03544 0.2036,0.00742z" fill="#000000" stroke="none" stroke-width="0.95"/><path d="M229.22276,174.12412c1.06829,-1.86417 2.02074,-3.87133 2.56065,-5.95719c0.00868,-0.03627 0.17601,0.00824 0.16612,0.04408c-0.54035,2.08673 -1.49115,4.09345 -2.5607,5.95762c-0.02308,0.04078 -0.17887,-0.02187 -0.16607,-0.04451zM230.59357,176.11644c0.50486,-1.16391 1.36009,-2.12339 2.07146,-3.16243c0.60542,-0.88035 1.18985,-1.77592 1.76603,-2.67441c0.02599,-0.04165 0.18013,0.02512 0.16694,0.04369c-0.57662,0.90013 -1.16308,1.79367 -1.76608,2.67523c-0.71011,1.04109 -1.56699,1.99727 -2.07267,3.16243c-0.01649,0.03996 -0.17766,-0.0161 -0.16568,-0.04451zM228.52333,179.78495c0.59887,-1.27519 1.39514,-2.43536 2.07063,-3.66812c0.02143,-0.04039 0.17931,0.02187 0.16529,0.04451c-0.6751,1.23315 -1.47054,2.39337 -2.06942,3.66812c-0.01813,0.04 -0.17844,-0.01813 -0.16651,-0.04451zM225.63252,178.91037c0.95289,-0.99449 1.22573,-2.41475 1.80399,-3.61866c0.20976,-0.43562 0.48633,-0.79831 0.92568,-1.01345c0.48139,-0.23492 1.03614,-0.06347 1.51423,-0.27614c0.04451,-0.01978 0.17349,0.04902 0.15744,0.05727c-0.4777,0.21184 -1.01883,0.08781 -1.51423,0.27575c-0.58113,0.22091 -0.85853,0.8659 -1.09675,1.38811c-0.50404,1.10373 -0.76451,2.33892 -1.6325,3.24361c-0.02928,0.0305 -0.1826,-0.03093 -0.15787,-0.05649zM228.2035,177.10395c-0.45996,0.24317 -1.91484,3.16447 -2.57593,1.87115c-0.01111,-0.02226 0.14343,-0.01197 0.16364,0.03007c0.33302,0.64833 1.16677,-0.60213 1.36009,-0.8626c0.24603,-0.33015 0.51436,-0.89562 0.89354,-1.0951c0.04369,-0.02182 0.17679,0.04698 0.15866,0.05649zM226.96293,179.36703c0.18876,-0.20278 0.19579,-0.56421 0.2613,-0.82057c0.11171,-0.43853 0.40434,-0.81649 0.55189,-1.24347c0.01193,-0.03874 0.17805,0.01154 0.16568,0.04412c-0.14755,0.43067 -0.4138,0.80863 -0.55189,1.24386c-0.0849,0.26829 -0.06759,0.61449 -0.26829,0.83211c-0.02885,0.0305 -0.1826,-0.03007 -0.1587,-0.05605zM225.18328,181.51476c0.06924,-1.06499 0.94837,-1.63172 1.80438,-2.09579c0.04247,-0.02347 0.17601,0.04534 0.15744,0.05605c-0.85024,0.46122 -1.72608,1.02586 -1.79488,2.08464c-0.00247,0.02846 -0.17024,-0.00039 -0.16694,-0.0449zM228.7533,179.84144c-1.26733,0.43111 -2.3653,1.23232 -3.44308,2.00755c-0.02555,0.01857 -0.17102,-0.00989 -0.16278,-0.05028c0.021,-0.09436 0.04121,-0.18833 0.06017,-0.28273c0.00781,-0.03462 0.17514,0.0062 0.16651,0.04369c-0.02022,0.09479 -0.04121,0.18876 -0.06017,0.28356c-0.05401,-0.01688 -0.10798,-0.03336 -0.16282,-0.05028c1.08395,-0.77978 2.18729,-1.58057 3.46204,-2.01458c0.03957,-0.01319 0.18712,0.04659 0.14013,0.06308z" fill="#010101" stroke="none" stroke-width="0.95"/><path d="M245.46964,160.26478c0.23037,-0.17558 0.47974,-0.32104 0.70477,-0.50447c0.28933,-0.23575 0.19822,-0.8354 0.19948,-1.15731c0.00369,-0.86469 -0.2951,-1.86495 -0.72417,-2.61011c-0.4249,-0.73735 -1.18122,-1.12065 -1.94491,-1.41163c-1.00482,-0.38369 -1.8728,-0.41874 -2.72803,0.3256c-0.04534,0.04121 -0.20152,-0.02473 -0.15453,-0.06551c0.6108,-0.53128 1.3308,-0.78885 2.13532,-0.59393c0.78269,0.19002 1.57688,0.50447 2.20994,1.00811c0.81814,0.64955 1.13467,1.76152 1.31766,2.74452c0.0515,0.27614 0.05523,0.55679 0.05397,0.83584c-0.00082,0.18712 0.07792,0.51063 0.00785,0.67219c-0.17354,0.39692 -0.59393,0.57206 -0.92282,0.82226c-0.0482,0.03792 -0.20278,-0.02885 -0.15453,-0.06555zM235.70173,172.59752c0.5597,-0.54777 0.52712,-1.37575 0.47809,-2.10156c-0.05649,-0.84117 -0.12408,-1.68031 -0.15579,-2.52317c-0.06759,-1.79284 -0.13848,-3.70725 0.2036,-5.4758c0.32516,-1.68239 1.14742,-3.27697 1.82373,-4.84066c0.5836,-1.34898 1.35597,-2.503 2.54543,-3.39159c0.04907,-0.03627 0.20278,0.0305 0.15458,0.06638c-1.23523,0.92278 -1.9915,2.11762 -2.59653,3.51645c-0.68829,1.59089 -1.46807,3.18755 -1.79987,4.90044c-0.18256,0.94833 -0.17761,1.94369 -0.18174,2.90521c-0.0062,0.99905 -0.00165,1.99935 0.04698,2.99714c0.03913,0.77814 0.12694,1.5538 0.15041,2.33319c0.01857,0.60625 -0.06347,1.23931 -0.51393,1.67948c-0.0433,0.04369 -0.20113,-0.01978 -0.15497,-0.06551zM235.03939,175.3725c-0.06759,-0.47892 -0.62686,-0.96976 -0.55597,-1.45692c0.10716,-0.72252 0.95328,-0.86924 1.34317,-1.37987c0.03627,-0.04742 0.19744,0.01072 0.15458,0.06633c-0.37753,0.49336 -1.09675,0.61701 -1.31436,1.24759c-0.15866,0.46161 0.47232,1.06911 0.53909,1.54182c0.00989,0.06967 -0.15826,0.04 -0.16651,-0.01896zM235.05795,177.57545c-0.37753,-0.19206 -0.67757,-0.43853 -0.58981,-0.89727c0.09644,-0.49744 0.5387,-0.85931 0.57124,-1.38109c0.00291,-0.05813 0.17106,-0.02269 0.16612,0.04369c-0.04989,0.79874 -1.20061,1.59172 -0.08039,2.1613c0.10304,0.05358 0.00824,0.11249 -0.06716,0.07336zM245.95433,156.26245c0.85436,1.30855 1.50803,2.76716 1.98326,4.25337c0.40061,1.2525 0.84694,2.98065 0.0915,4.1899c-0.0305,0.04946 -0.19249,-0.00538 -0.15458,-0.06594c0.74889,-1.19978 0.27905,-2.89905 -0.10425,-4.14374c-0.45545,-1.4784 -1.12516,-2.93163 -1.97172,-4.22742c-0.0433,-0.06716 0.12447,-0.05315 0.15579,-0.00616zM246.30548,159.82791c0.38824,1.0102 0.59102,2.01089 0.52096,3.08946c-0.03176,0.48842 0.33588,0.59184 0.66725,0.91497c0.34703,0.33879 0.55354,0.77198 0.64091,1.2443c0.08573,0.46035 0.10755,0.73566 0.39358,1.13297c0.38208,0.5292 0.79093,1.04234 0.95206,1.68816c0.22586,0.91085 -0.53827,2.27176 -1.59172,1.95814c-0.09931,-0.02928 -0.07705,-0.11748 0.02351,-0.08781c0.9813,0.29223 1.47631,-1.01471 1.42477,-1.74295c-0.04369,-0.62443 -0.50651,-1.18495 -0.86057,-1.6692c-0.20811,-0.28356 -0.3944,-0.50573 -0.44924,-0.8548c-0.06633,-0.42039 -0.10551,-0.79132 -0.31323,-1.17588c-0.33137,-0.61163 -1.0967,-0.72412 -1.05384,-1.45159c0.0643,-1.07406 -0.13397,-2.05992 -0.52096,-3.06512c-0.02269,-0.05813 0.14382,-0.03753 0.16651,0.01935zM249.35455,168.96771c-0.12117,0.58607 0.51436,1.29705 0.77193,1.79163c0.26954,0.51887 0.17145,1.08764 -0.07705,1.59007c-0.46985,0.94916 -1.60903,1.5233 -2.56026,1.85302c-0.96239,0.33341 -1.70877,0.33219 -2.63775,-0.12161c-0.77237,-0.3767 -1.63666,-1.12516 -1.47015,-2.07432c0.01072,-0.05978 0.17887,-0.01896 0.16694,0.0449c-0.18547,1.05306 0.90464,1.78339 1.74833,2.12586c1.00273,0.40599 1.96634,0.03918 2.88916,-0.40594c0.88486,-0.42742 1.71948,-1.10785 1.91731,-2.11393c0.12529,-0.63801 -0.28482,-1.15935 -0.57909,-1.68113c-0.17597,-0.31202 -0.41215,-0.68213 -0.33466,-1.05306c0.01072,-0.06056 0.17848,-0.01896 0.16529,0.04451zM246.65333,172.62264c-1.04768,0.33384 -4.26161,0.04863 -3.58157,-1.6964c0.04781,-0.122 -0.08161,-0.32477 -0.03709,-0.41748c0.07913,-0.16282 0.17102,-0.27822 0.11002,-0.45215c-0.10755,-0.30087 -0.25427,-0.58729 -0.37093,-0.88404c-0.20278,-0.51644 -0.51271,-1.36833 0.04907,-1.76564c0.04616,-0.03258 0.2003,0.03501 0.13228,0.08282c-0.50321,0.35527 -0.2213,1.12477 -0.05644,1.59133c0.1092,0.30456 0.47315,0.80325 0.44881,1.13258c-0.00534,0.07584 -0.15497,0.28521 -0.13558,0.36269c0.01852,0.07666 0.06017,0.18464 0.04781,0.26377c-0.0367,0.23284 -0.15497,0.40182 -0.14386,0.64994c0.01362,0.30087 0.36889,0.57744 0.59432,0.72334c0.78269,0.50733 1.96803,0.59306 2.84217,0.31527c0.05484,-0.01731 0.19536,0.0639 0.101,0.09397zM242.81003,167.45266c-0.11293,-0.16321 -0.16772,-0.33714 -0.22668,-0.52508c-0.13518,-0.42985 -0.34126,-0.84117 -0.53866,-1.24469c-0.33796,-0.69115 -0.74269,-1.37202 -1.15115,-2.02282c-0.73033,-1.15935 -2.21076,-1.79241 -1.86208,-3.40391c0.01319,-0.06061 0.18052,-0.01813 0.16694,0.04369c-0.34417,1.59089 1.21788,2.34842 1.9482,3.51068c0.37796,0.60048 0.73197,1.23436 1.05427,1.86621c0.12694,0.24894 0.2403,0.50568 0.35197,0.76165c0.14013,0.32104 0.21393,0.72247 0.4138,1.00811c0.04412,0.06512 -0.12403,0.05193 -0.15662,0.00616zM245.2417,174.19336c-0.07952,0.3528 -0.19987,0.70352 -0.16816,1.07115c0.03505,0.40764 0.41341,0.75093 0.66191,1.04603c0.33263,0.39445 0.49458,0.8948 0.29636,1.38729c-0.33879,0.83748 -1.57441,1.15154 -2.35172,1.36135c-2.84217,0.76907 -6.34543,0.1364 -8.76682,-1.55627c-0.09271,-0.06473 0.05028,-0.09111 0.1043,-0.05319c2.45267,1.71454 5.91185,2.25818 8.76843,1.459c0.83748,-0.2341 2.19263,-0.67631 2.16916,-1.74872c-0.01197,-0.59887 -0.56673,-1.01349 -0.87584,-1.4689c-0.32681,-0.48265 -0.12117,-1.02625 -0.00534,-1.54104c0.01401,-0.06182 0.18217,-0.01896 0.16772,0.0433zM236.2944,169.97544c-0.70686,0.6351 -1.50022,0.60586 -2.27753,0.11128c-0.94959,-0.60338 -1.45076,-2.05211 -2.66413,-2.0731c-0.0643,-0.00126 -0.17683,-0.10017 -0.0639,-0.09809c0.80286,0.01358 1.21172,0.3977 1.682,1.00686c0.75588,0.97926 2.00508,2.03315 3.16898,0.98751c0.04451,-0.04204 0.20195,0.02269 0.15458,0.06555zM233.63604,167.49221c-0.49254,0.30954 -1.02339,-0.02555 -1.43098,-0.34659c-0.5692,-0.44842 -0.72911,-1.07323 -0.25141,-1.6387c0.4921,-0.58486 1.31475,-0.98299 1.93297,-1.41328c0.91167,-0.63471 1.7784,-1.33245 2.43948,-2.23423c0.03505,-0.04781 0.19618,0.00946 0.15458,0.06633c-0.81484,1.11115 -1.94039,1.89879 -3.06556,2.66538c-0.48594,0.33176 -1.01718,0.63592 -1.39965,1.09054c-0.64668,0.76781 0.65653,2.2495 1.48621,1.7269c0.05028,-0.02885 0.20399,0.04039 0.13436,0.08364zM231.25053,167.9835c-0.19536,-0.53167 0.04902,-1.05592 0.59267,-1.22447c0.05562,-0.01692 0.19657,0.06386 0.10056,0.09397c-0.50942,0.15826 -0.70438,0.66686 -0.52551,1.15072c0.02143,0.0577 -0.14672,0.03748 -0.16772,-0.02022zM241.40009,154.56852c-0.30664,0.00039 -0.61206,-0.01978 -0.78929,-0.30542c-0.04204,-0.06842 0.12612,-0.05397 0.15579,-0.00577c0.13354,0.21514 0.34043,0.21349 0.5692,0.2131c0.06512,-0.00043 0.17722,0.09809 0.0643,0.09809z" fill="#000000" stroke="none" stroke-width="0.95"/><path d="M245.97493,218.24538c-0.96568,-0.41835 -0.84078,-1.8456 -0.33922,-2.59944c0.03588,-0.05397 0.25141,0.0161 0.20772,0.08243c-0.42369,0.63761 -0.63553,2.07146 0.21514,2.43953c0.14425,0.06304 0.01033,0.11744 -0.08364,0.07748zM258.13864,214.03159c0.35241,1.12226 0.60959,2.3443 -0.60955,2.99879c-0.05605,0.03007 -0.26256,-0.05484 -0.17931,-0.09935c1.18781,-0.6384 0.90551,-1.85506 0.56673,-2.9312c-0.01939,-0.06594 0.20152,-0.03501 0.22213,0.03176zM257.73434,216.93064c-0.66521,0.50898 -1.44707,0.81974 -2.27176,0.95245c-0.43319,0.07007 -0.87336,0.03462 -1.30816,0.00989c-0.6413,-0.03501 -1.28013,0.04082 -1.90165,0.19579c-1.00399,0.24933 -1.96018,0.71341 -2.93905,1.04642c-0.42325,0.14343 -0.85397,0.25883 -1.29041,0.35197c-0.25267,0.0544 -0.50859,0.0882 -0.76495,0.11787c-0.23575,0.02638 -0.5997,-0.02803 -0.821,0.0433c-0.06226,0.02182 -0.16612,-0.00495 -0.19948,-0.06473c-0.25679,-0.46902 -0.36104,-0.87623 -0.3318,-1.40746c0.00412,-0.06017 0.22751,-0.01692 0.22256,0.06017c-0.02924,0.53453 0.07748,0.91909 0.33054,1.38109c-0.06677,-0.02265 -0.13354,-0.04369 -0.2003,-0.06551c0.31406,-0.10265 0.72126,-0.03753 1.05592,-0.07748c0.55887,-0.0643 1.10664,-0.2131 1.642,-0.37961c0.99124,-0.30868 1.94122,-0.73527 2.92998,-1.05137c0.83419,-0.26625 1.7108,-0.29345 2.5784,-0.23701c1.08972,0.07132 2.19961,-0.29714 3.06265,-0.95783c0.05523,-0.04451 0.25761,0.04286 0.20651,0.08204zM258.00801,213.95942c0.18135,0.20568 -0.14672,0.64174 -0.25553,0.83666c-0.18837,0.34087 -0.46369,0.62607 -0.75549,0.87831c-0.68868,0.59679 -1.58798,0.93597 -2.4535,1.17996c-0.91579,0.25844 -1.86126,0.38043 -2.81085,0.39814c-0.55766,0.01072 -1.11653,0.00291 -1.67415,-0.00863c-0.59887,-0.01115 -1.25419,-0.03918 -1.79202,0.2646c-0.05566,0.03089 -0.26213,-0.05275 -0.18052,-0.09935c0.70269,-0.39566 1.59623,-0.2679 2.36903,-0.27119c1.0823,-0.00495 2.13614,-0.0033 3.20278,-0.21432c0.92777,-0.18338 1.84395,-0.49002 2.65341,-0.98586c0.33384,-0.2036 0.62855,-0.45913 0.89106,-0.74764c0.13562,-0.14876 0.80122,-1.00564 0.60052,-1.23354c-0.05813,-0.06638 0.16321,-0.04495 0.20525,0.00286zM258.04301,213.99652c-1.40378,0.01362 -2.92543,0.31531 -4.25706,-0.26581c-0.14343,-0.06308 -0.0095,-0.11705 0.08408,-0.07748c1.26035,0.54937 2.7515,0.24438 4.08274,0.23163c0.07375,-0.00043 0.23944,0.11046 0.09024,0.11167zM248.39134,217.47589c-0.75957,0.30707 -1.44169,0.78104 -2.29072,0.75549c-0.07336,-0.00208 -0.23987,-0.11666 -0.09024,-0.1121c0.81397,0.02512 1.47506,-0.44924 2.20169,-0.7423c0.05935,-0.0239 0.26295,0.06512 0.17926,0.09892z" fill="#000000" stroke="none" stroke-width="0.95"/><path d="M220.03143,213.14053c-0.38659,0.08985 -0.66109,0.56547 -0.81562,0.89601c-0.03215,0.06881 -0.24855,-0.00456 -0.22299,-0.06017c0.17766,-0.37753 0.46369,-0.84534 0.89931,-0.94508c0.06143,-0.01401 0.26091,0.08161 0.13931,0.10924zM225.79699,219.20195c-1.60616,-0.39358 -3.06022,-1.24178 -4.31519,-2.30473c-0.91085,-0.77154 -2.3715,-1.85879 -2.5174,-3.12859c-0.00907,-0.07792 0.21349,-0.0338 0.22048,0.03215c0.13683,1.18616 1.39388,2.0669 2.19718,2.82486c1.23315,1.16347 2.79107,2.07597 4.44048,2.48152c0.13354,0.03258 0.10672,0.12694 -0.02555,0.09479zM230.11834,220.83572c-1.30981,0.24811 -2.70287,0.1315 -4.01636,-0.04902c-1.03905,-0.14469 -2.29237,-0.3767 -3.16035,-0.99822c-0.49831,-0.35653 -0.84985,-0.90343 -1.25666,-1.3531c-0.61284,-0.6784 -1.30486,-1.29002 -1.96386,-1.92226c-0.26668,-0.25553 -0.5292,-0.5131 -0.79132,-0.77401c-0.19414,-0.19245 -0.67883,-0.5403 -0.76165,-0.79874c-0.05358,-0.16816 0.20443,-0.58564 0.28191,-0.72989c0.12816,-0.2403 0.3223,-0.42082 0.55063,-0.5626c0.06139,-0.03874 0.25757,0.05154 0.20855,0.08243c-0.31037,0.19332 -1.05549,0.98339 -0.6784,1.38855c0.53744,0.5774 1.10907,1.12434 1.67909,1.67002c0.85271,0.81605 1.65766,1.65189 2.43992,2.53428c0.82512,0.93145 2.24044,1.17176 3.4171,1.35558c1.26694,0.19783 2.64972,0.28521 3.91172,0.04616c0.06221,-0.01072 0.26169,0.08694 0.1397,0.11085zM231.84689,218.30225c-0.10633,1.16968 -0.35197,2.40859 -1.72855,2.53306c-0.06017,0.00534 -0.25965,-0.09853 -0.13931,-0.11046c1.34156,-0.12117 1.54434,-1.37124 1.64573,-2.48196c0.00577,-0.06182 0.22954,-0.01566 0.22213,0.05935zM231.75582,218.18769c0.10095,0.30004 -0.62647,0.73319 -0.84161,0.85519c-0.50655,0.28646 -1.0485,0.43731 -1.62304,0.51189c-1.16143,0.15332 -2.37029,-0.06017 -3.49463,-0.3528c-0.13145,-0.03419 -0.10633,-0.12859 0.02599,-0.09436c0.94091,0.24482 1.89957,0.39853 2.87471,0.37341c0.56052,-0.01527 1.11362,-0.12777 1.63501,-0.33466c0.19453,-0.07709 1.31597,-0.65575 1.20347,-0.99124c-0.02351,-0.06347 0.19701,-0.03419 0.22009,0.03258zM231.69483,218.2293c-1.2925,-0.52673 -2.81458,-0.83458 -3.81115,-1.88061c-0.06056,-0.06017 0.16156,-0.04204 0.20486,0.00495c0.95493,1.00109 2.44898,1.29371 3.68994,1.79861c0.14508,0.06017 0.00989,0.1154 -0.08364,0.07705z" fill="#000000" stroke="none" stroke-width="0.95"/><path d="M243.74742,147.20805c0,-0.59901 0.48559,-1.0846 1.0846,-1.0846c0.59901,0 1.0846,0.48559 1.0846,1.0846c0,0.59901 -0.48559,1.0846 -1.0846,1.0846c-0.59901,0 -1.0846,-0.48559 -1.0846,-1.0846z" fill="#ffbb80" stroke="none" stroke-width="0.5"/><path d="M275.4343,161.3795l-41.4427,41.6697c-1.6436,1.6531 -3.8325,2.5632 -6.1646,2.5632c0,0 0,0 -0.0006,0c-1.4574,0 -2.9009,-0.367 -4.1744,-1.0628c-0.1168,-0.0616 -0.2461,-0.1401 -0.3754,-0.2185l-0.0827,-0.0503c-0.0646,-0.0383 -0.1293,-0.0784 -0.1927,-0.1204c-0.5419,-0.3514 -1.055,-0.7717 -1.5023,-1.2346l-13.0866,-13.5488c-3.3343,-3.4523 -3.2385,-8.9738 0.2144,-12.3094c1.6309,-1.5753 3.778,-2.4429 6.0454,-2.4429c2.3836,0 4.6067,0.9443 6.2628,2.6578l6.9615,7.207l35.1944,-35.3859c1.6459,-1.6555 3.8385,-2.5668 6.173,-2.5668c2.3153,0 4.4953,0.8987 6.1364,2.5321c3.4032,3.3846 3.4182,8.908 0.0341,12.3106z" fill="#284a00" stroke="none" stroke-width="0.59874"/><path d="M274.1596,160.1138l-41.4427,41.6697c-2.2172,2.2297 -5.5767,2.6248 -8.2051,1.1902c-0.115,-0.0616 -0.2258,-0.1311 -0.3383,-0.1987c-0.0581,-0.0366 -0.1162,-0.0695 -0.1731,-0.1066c-0.4298,-0.2796 -0.8382,-0.6065 -1.21,-0.9915l-13.086,-13.5476c-2.6506,-2.7446 -2.5752,-7.1184 0.17,-9.7696c2.7435,-2.65 7.1166,-2.574 9.7678,0.1706l8.2357,8.5254l36.487,-36.6858c2.6907,-2.7057 7.0645,-2.7177 9.7684,-0.0275c2.7063,2.6913 2.7177,7.0651 0.0263,9.7714z" fill="#3cf300" stroke="none" stroke-width="0.59874"/></g></g></svg>