<svg version="1.1" xmlns="http://www.w3.org/2000/svg" xmlns:xlink="http://www.w3.org/1999/xlink" width="83" height="83" viewBox="0,0,83,83"><defs><radialGradient cx="215.3451" cy="182.42286" r="33.944" gradientUnits="userSpaceOnUse" id="color-1"><stop offset="0" stop-color="#cf0000"/><stop offset="1" stop-color="#ff0000"/></radialGradient></defs><g transform="translate(-197.375,-136.632)"><g data-paper-data="{&quot;isPaintingLayer&quot;:true}" fill-rule="nonzero" stroke="none" stroke-width="1" stroke-linecap="butt" stroke-linejoin="miter" stroke-miterlimit="10" stroke-dasharray="" stroke-dashoffset="0" style="mix-blend-mode: normal"><path d="M280.375,178.132c0,22.882 -18.616,41.5 -41.5,41.5c-22.883,0 -41.5,-18.618 -41.5,-41.5c0,-22.883 18.616,-41.5 41.5,-41.5c22.884,0 41.5,18.618 41.5,41.5z" fill="#930000"/><path d="M204.931,178.133c0,-18.74675 15.19725,-33.944 33.944,-33.944c18.74675,0 33.944,15.19725 33.944,33.944c0,18.74675 -15.19725,33.944 -33.944,33.944c-18.74675,0 -33.944,-15.19725 -33.944,-33.944z" fill="url(#color-1)"/><text transform="translate(225.94737,190.7629) scale(1.03612,1.03612)" font-size="40" xml:space="preserve" fill="#000000" fill-rule="nonzero" stroke="none" stroke-width="1" stroke-linecap="butt" stroke-linejoin="miter" stroke-miterlimit="10" stroke-dasharray="" stroke-dashoffset="0" font-family="Pixel" font-weight="normal" text-anchor="start" style="mix-blend-mode: normal"><tspan x="0" dy="0">x</tspan></text></g></g></svg>