<svg version="1.1" xmlns="http://www.w3.org/2000/svg" xmlns:xlink="http://www.w3.org/1999/xlink" width="165.34492" height="99.33669" viewBox="0,0,165.34492,99.33669"><defs><linearGradient x1="155.9751" y1="152.00097" x2="321.3182" y2="152.00097" gradientUnits="userSpaceOnUse" id="color-1"><stop offset="0.012" stop-color="#a7a9ac"/><stop offset="1" stop-color="#414042"/></linearGradient><linearGradient x1="162.17656" y1="151.99934" x2="315.11511" y2="151.99934" gradientUnits="userSpaceOnUse" id="color-2"><stop offset="0" stop-color="#d1d2d3"/><stop offset="1" stop-color="#a4a5a8"/></linearGradient></defs><g transform="translate(-155.97346,-102.33227)"><g data-paper-data="{&quot;isPaintingLayer&quot;:true}" fill-rule="nonzero" stroke="none" stroke-width="1" stroke-linecap="butt" stroke-linejoin="miter" stroke-miterlimit="10" stroke-dasharray="" stroke-dashoffset="0" style="mix-blend-mode: normal"><path d="M321.31838,186.03404c0,8.63418 -7.00255,15.63492 -15.63492,15.63492h-134.0769c-8.63418,0 -15.6331,-7.00255 -15.6331,-15.63492v-68.06867c0,-8.63418 6.99892,-15.6331 15.6331,-15.6331h134.07508c8.63781,0 15.63492,6.99892 15.63492,15.6331v68.06867z" fill="url(#color-1)"/><path d="M315.11347,117.96537v68.06685c0,5.20013 -4.22806,9.43001 -9.43182,9.43001h-134.07508c-5.19831,0 -9.43001,-4.22988 -9.43001,-9.43001v-68.06867c0,-5.20013 4.23169,-9.43001 9.43001,-9.43001h134.07508c5.20377,0 9.43182,4.23169 9.43182,9.43182z" fill="url(#color-2)"/><text transform="translate(175.28179,133.88258) scale(0.5,0.5)" font-size="40" xml:space="preserve" fill="#000000" fill-rule="nonzero" stroke="none" stroke-width="1" stroke-linecap="butt" stroke-linejoin="miter" stroke-miterlimit="10" stroke-dasharray="" stroke-dashoffset="0" font-family="Pixel" font-weight="normal" text-anchor="start" style="mix-blend-mode: normal"><tspan x="0" dy="0">Duraklatıldı</tspan></text></g></g></svg>