<svg version="1.1" xmlns="http://www.w3.org/2000/svg" xmlns:xlink="http://www.w3.org/1999/xlink" width="171.298" height="143.86925" viewBox="0,0,171.298,143.86925"><defs><linearGradient x1="181.04795" y1="164.07671" x2="242.04795" y2="164.07671" gradientUnits="userSpaceOnUse" id="color-1"><stop offset="0" stop-color="#fbb040"/><stop offset="1" stop-color="#f15a29"/></linearGradient><linearGradient x1="183.33692" y1="164.07621" x2="239.75842" y2="164.07621" gradientUnits="userSpaceOnUse" id="color-2"><stop offset="0" stop-color="#ed7340"/><stop offset="0.5181" stop-color="#f4aa46"/><stop offset="1" stop-color="#f29746"/></linearGradient></defs><g transform="translate(-70.75,-150.787)"><g data-paper-data="{&quot;isPaintingLayer&quot;:true}" fill-rule="nonzero" stroke="none" stroke-width="1" stroke-linecap="butt" stroke-linejoin="miter" stroke-miterlimit="10" stroke-dasharray="" stroke-dashoffset="0" style="mix-blend-mode: normal"><path d="M242.048,164.07687c0,7.32762 -5.96275,13.28986 -13.29088,13.28986h-34.41976c-7.32762,0 -13.28936,-5.96173 -13.28936,-13.28986c0,-7.32813 5.96122,-13.28987 13.28936,-13.28987h34.41976c7.32813,0 13.29038,5.96122 13.29088,13.28987z" fill="url(#color-1)"/><path d="M239.75847,164.07585c0,6.07611 -4.92524,11.00084 -11.00135,11.00084h-34.41976c-6.0756,0 -11.00033,-4.92474 -11.00033,-11.00084v0c0,-6.07509 4.92473,-11.00033 11.00033,-11.00033h34.41976c6.0756,0 11.00135,4.92524 11.00135,11.00033z" fill="url(#color-2)"/><text transform="translate(189.66527,168.38512) scale(0.25417,0.25417)" font-size="40" xml:space="preserve" fill="#000000" fill-rule="nonzero" stroke="none" stroke-width="1" stroke-linecap="butt" stroke-linejoin="miter" stroke-miterlimit="10" stroke-dasharray="" stroke-dashoffset="0" font-family="Pixel" font-weight="normal" text-anchor="start" style="mix-blend-mode: normal"><tspan x="0" dy="0">Ana Menü</tspan></text><text transform="translate(71,289.40625) scale(0.5,0.5)" font-size="40" xml:space="preserve" fill="#000000" fill-rule="nonzero" stroke="none" stroke-width="1" stroke-linecap="butt" stroke-linejoin="miter" stroke-miterlimit="10" stroke-dasharray="" stroke-dashoffset="0" font-family="Pixel" font-weight="normal" text-anchor="start" style="mix-blend-mode: normal"><tspan x="0" dy="0"> </tspan></text></g></g></svg>