<svg version="1.1" xmlns="http://www.w3.org/2000/svg" xmlns:xlink="http://www.w3.org/1999/xlink" width="46.67783" height="188.97822" viewBox="0,0,46.67783,188.97822"><g transform="translate(-218.19548,-86.1511)"><g data-paper-data="{&quot;isPaintingLayer&quot;:true}" fill-rule="nonzero" stroke="none" stroke-linecap="butt" stroke-linejoin="miter" stroke-miterlimit="10" stroke-dasharray="" stroke-dashoffset="0" style="mix-blend-mode: normal"><path d="M245.218,166.144c0,0.497 -0.006,0.959 0.104,1.419c0.154,0.629 0.174,1.51 0.345,2.129c0.385,1.401 0.659,3.145 1.088,4.553c0.525,1.721 0.907,2.979 1.434,4.717c0.445,1.469 0.761,2.878 1.066,4.377c0.462,2.267 1.73,3.942 2.984,5.821c0.508,0.761 1.284,1.535 1.422,2.425c0.154,0.984 -0.174,2.059 0.06,3.004c0.155,0.632 1.292,2.013 1.079,2.189c-1.298,1.059 -2.097,-0.231 -2.546,0.943c-0.376,0.979 -0.97,1.943 -1.374,2.958c-0.346,0.864 -0.902,1.832 -1.641,2.427c-0.403,0.326 -0.718,0.535 -1.241,0.535c-0.227,0 -0.383,-0.092 -0.651,-0.06c-0.261,0.026 -0.437,0.167 -0.709,0.175c-1.108,0.028 -0.987,-1.425 -1.226,-2.189c-0.665,-2.112 -1.139,-3.912 -1.035,-6.194c0.048,-1.072 -0.223,-1.984 -0.223,-3.031c0,-1.042 -0.041,-1.967 0.157,-2.954c0.233,-1.162 0.463,-1.694 -0.111,-2.784c-0.528,-1.003 -0.857,-2.013 -1.422,-3.016c-1.176,-2.092 -2.283,-4.247 -3.428,-6.342c-1.298,-2.378 -2.516,-4.852 -3.594,-7.319c-0.457,-1.051 -1.101,-1.994 -1.49,-3.076c-0.173,-0.479 -0.991,-2.508 0.028,-2.026c0.705,0.337 1.253,1.112 1.995,1.479c0.889,0.44 1.735,0.687 2.72,0.784c1.1,0.11 2.061,-0.013 3.157,-0.169c0.524,-0.076 1.21,-0.218 1.695,-0.413c0.377,-0.15 0.959,-0.276 1.356,-0.306" fill="#ffbb80" stroke-width="1"/><path d="M248.762,181.459c-0.057,0.611 0.215,0.846 0.49,1.332c0.258,0.458 0.394,1.068 0.516,1.562c0.143,0.572 0.203,2.331 0.997,2.42c0.057,-1.096 0.732,-1.825 0.837,-2.889c0.127,-1.256 -0.966,-1.573 -1.941,-2.021c-0.084,-0.367 -0.592,-0.358 -0.896,-0.462M244.626,188.261c0.105,0.298 -0.055,1.141 -0.166,1.489c-0.269,0.855 -0.324,1.778 -0.367,2.709c-0.02,0.429 0.006,0.908 -0.282,1.198c-0.25,0.253 -0.838,0.462 -1.151,0.678c-1.736,1.193 -3.593,1.593 -5.713,1.487c-0.003,-0.078 0.023,-0.278 -0.01,-0.346c-0.213,-0.439 -0.79,-2.066 -0.535,-2.363c0.255,-0.298 1.119,-0.411 1.482,-0.578c0.509,-0.235 1.012,-0.538 1.538,-0.769c1.927,-0.843 3.223,-2.694 5.143,-3.444" fill="#4e3a78" stroke-width="1"/><path d="M250.21,127.508c0.072,-0.279 0.019,-0.594 0.473,-0.774c0.716,-0.284 1.506,1.038 1.693,1.381c0.55,1.012 0.793,2.264 1.068,3.358c0.288,1.147 0.646,2.178 0.973,3.321c0.353,1.228 1.139,2.558 1.574,3.781c0.726,2.042 1.276,3.835 1.489,5.979c0.239,2.418 -0.708,4.184 -1.705,6.278c-0.95,1.997 -2.314,3.905 -2.908,6.028c-0.285,1.016 0.001,2.221 -0.057,3.325c-0.07,1.311 -0.141,2.362 0.213,3.631c0.31,1.108 0.179,2.417 0.292,3.537c0.115,1.112 -0.264,2.205 -0.062,3.305c0.101,0.548 0.309,1.025 0.527,1.52c0.3,0.675 0.368,0.86 0.892,1.322c0.793,0.699 0.417,2.066 0.063,2.859c-0.925,2.086 -3.236,2.589 -5.266,3.203c-1.544,0.469 -1.316,-0.74 -1.654,-1.833c-0.157,-0.508 -0.44,-0.941 -0.63,-1.454c-0.196,-0.528 -0.145,-1.113 -0.279,-1.652c-0.338,-1.374 -0.67,-2.624 -0.938,-4.03c-0.14,-0.732 -0.224,-1.398 -0.464,-2.115c-0.22,-0.654 -0.566,-1.326 -0.523,-2.04c-1.035,-0.212 -1.839,0.245 -2.813,0.48c-0.944,0.228 -2.405,0.148 -3.458,-0.023c-0.89,-0.143 -1.848,-0.481 -2.707,-0.862c-0.896,-0.398 -1.483,-1.288 -2.313,-1.645c-0.307,0.394 0.108,1.134 0.199,1.578c0.115,0.571 0.467,0.889 0.711,1.404c0.245,0.511 0.546,1.216 0.754,1.729c0.22,0.543 0.236,0.932 0.532,1.432c0.536,0.912 1.191,1.854 1.623,2.853c0.415,0.959 0.725,1.931 1.253,2.842c0.799,1.38 1.81,2.641 1.726,4.334c-2.7,0.307 -4.678,-0.288 -6.96,-1.143c-1.862,-0.697 -5.153,-3.116 -4.467,-5.489c0.287,-0.985 0.849,-1.627 0.943,-2.678c-0.19,-0.422 -0.665,-2.007 -0.86,-2.458c-0.189,-0.437 -0.331,-1.003 -0.214,-1.503c0.122,-0.528 0.59,-0.916 0.841,-1.386c0.53,-0.991 0.348,-2.207 0.348,-3.306c-0.004,-1.12 0.482,-2.003 0.528,-3.103c0.053,-1.208 -0.277,-2.208 -0.396,-3.359c-0.13,-1.259 -0.138,-2.503 -0.216,-3.78c-0.141,-2.347 -0.14,-4.773 -0.25,-7.137c-0.104,-2.277 -0.095,-4.349 0.328,-6.557c0.127,-0.651 0.367,-1.235 0.402,-1.902c0.026,-0.573 0.041,-1.1 0.13,-1.652c0.184,-1.16 0.665,-2.27 1.104,-3.37c0.441,-1.102 0.949,-2.175 1.358,-3.289c0.379,-1.028 1.105,-1.854 1.64,-2.793c0.474,-0.838 0.987,-1.59 1.45,-2.458c0.563,-1.059 1.889,-1.197 2.597,-2.017c1.096,-1.271 1.494,-0.167 2.188,0.458c0.83,0.747 1.87,1.106 2.849,1.707c0.904,0.552 2.165,0.64 3.077,1.057c0.815,0.374 1.575,1.148 2.097,1.85c0.399,0.536 0.944,0.856 1.336,1.388" fill="#82654f" stroke-width="1"/><path d="M248.296,179.715c1.174,-0.149 3.651,-0.784 5.033,-1.672c0.373,1.923 0.845,3.689 1.305,5.618c0.458,1.919 0.42,2.994 0.887,4.855c0.5,2.002 2.02,4.918 2.417,6.934c0.406,2.068 0.925,4.39 1.439,6.433c0.933,3.713 3.952,9.008 1.772,12.854c-2.414,4.26 -4.726,7.3 -6.515,11.462c-0.936,2.174 -1.844,4.669 -1.957,7.036c-0.108,2.245 -1.083,3.998 -1.077,6.216c0.005,2.159 -0.368,3.646 -0.047,5.863c0.244,1.688 2.027,4.653 1.077,6.53c-0.362,0.714 -2.415,1.152 -1.727,2.02c0.401,0.504 1.748,1.018 2.298,1.938c0.804,1.341 -0.05,4.215 -0.972,5.189c-1.669,1.767 -4.434,2.353 -6.652,2.656c-3.032,0.417 -6.566,0.363 -9.574,1.082c-4.219,1.009 -8.146,2.596 -9.627,3.821c-0.715,0.591 -4.705,-1.407 -4.749,-2.8c-0.045,-1.391 0.384,-1.971 1.307,-2.513c0.66,-0.386 1.693,-0.725 2.031,-1.413c0.483,-0.991 -0.455,-1.946 -0.783,-2.811c-0.491,-1.295 -0.198,-3.811 0.753,-4.999c0.917,-1.146 2.412,-2.457 3.515,-3.705c-1.738,-0.536 -2.641,-3.178 -3.317,-4.643c-0.393,-0.848 -0.893,-1.92 -1.028,-2.779c-0.206,-1.329 -0.105,-2.059 -0.975,-3.063c-1.544,-1.781 -3.492,-1.307 -3.833,-3.754c-0.122,-0.887 -0.266,-2.777 0.291,-3.555c0.662,-0.931 4.411,-1.701 5.316,-2.343c1.051,-0.745 -0.769,-2.344 0.34,-4.075c1.387,-2.161 5.222,-3.688 7.16,-5.542c2.265,-2.166 1.166,-3.635 1.172,-6.24c0.005,-2.602 -0.541,-4.507 -1.145,-7.007c-0.266,-1.096 -0.458,-2.542 -0.85,-3.604c-0.46,-1.255 -0.797,-2.728 -1.163,-4.03c-0.643,-2.297 -1.993,-4.312 -2.449,-6.612c-0.467,-2.372 -0.544,-5.772 -0.167,-8.194c0.168,-1.081 0.109,-2.45 0.555,-3.466c0.23,-0.531 1.988,-3.332 2.146,-3.874c0.085,-0.291 1.449,1.053 1.666,1.211c0.894,0.644 3.46,1.307 4.623,1.676c1.458,0.462 3.817,-0.486 4.788,0.989c0.298,0.453 0.413,1.091 0.629,1.488c0.271,0.5 0.616,1.657 0.996,2.103c0.621,0.728 0.981,1.39 1.305,2.249c0.476,1.272 -0.632,1.604 -1.768,2.578c-0.812,0.694 -2.738,1.628 -3.65,2.215c-1.209,0.779 -1.911,0.712 -3.209,1.314c0.755,0.744 0.773,1.515 1.065,2.474c2.516,0.193 5.396,-0.933 7.354,-2.353c0.051,0.951 -0.33,2.054 -0.104,3.026c0.169,0.734 1.121,5.586 1.457,6.297c0.835,1.772 0.564,0.657 1.428,0.908c2.814,0.814 4.511,-4.545 5.33,-6.527c0.825,0.274 1.725,0.272 2.389,-0.396c-0.618,-1.237 -1.226,-1.615 -1.22,-3.059c0.006,-1.783 0.478,-1.943 -0.727,-3.535c-0.519,-0.684 -2.016,-2.564 -2.154,-3.363c-0.222,-1.285 1.166,-2.365 0.897,-3.85c-0.777,-0.194 -1.099,-0.89 -2.116,-1.346c-1.147,-0.518 -0.495,-0.962 -1.056,-1.916" fill="#c6cda6" stroke-width="1"/><path d="M223.842,243.68c0.543,-0.561 1.222,1.83 1.503,2.318c0.523,0.906 0.866,1.818 1.354,2.769c0.467,0.91 1.615,1.47 0.844,2.449c-0.513,0.651 -1.292,1.654 -2.046,2.064c-0.795,0.431 -1.662,-0.574 -2.433,-0.96c-0.981,-0.491 -1.547,-0.922 -1.984,-1.966c-0.386,-0.926 -0.774,-2.197 -0.263,-3.169c0.473,-0.902 1.521,-1.708 2.219,-2.46c0.303,-0.328 0.613,-0.655 0.806,-1.045" fill="#000000" stroke-width="1"/><path d="M224.968,253.592c0.276,0.229 -0.571,2.086 -0.995,2.204c-0.33,0.094 -1.312,-0.862 -1.863,-1.259c-0.845,-0.608 -1.681,-1.139 -2.479,-1.817c-0.427,-0.362 -0.916,-0.679 -1.011,-1.239c-0.094,-0.574 0.133,-1.144 0.267,-1.652c0.138,-0.518 0.179,-0.982 0.473,-1.449c0.328,-0.523 0.921,-0.822 1.232,-1.319c-0.576,0.953 0.179,3.396 0.818,4.206c0.469,0.592 1.211,0.855 1.832,1.223c0.466,0.268 1.759,0.564 1.722,1.171" fill="#ffffff" stroke-width="1"/><path d="M249.658,262.757c-0.171,0.511 3.889,1.097 4.36,1.146c0.882,0.086 1.711,0.09 2.601,0.043c0.523,-0.028 1.898,-0.139 1.895,0.615c-0.001,0.304 -0.378,0.787 -0.529,1.058c-0.179,0.322 -0.241,0.732 -0.44,1.013c-0.301,0.422 -0.861,0.73 -1.235,1.098c-0.455,0.451 -0.843,0.832 -1.439,1.093c-1.231,0.537 -2.38,1.248 -3.67,1.651c-1.399,0.438 -2.905,0.99 -4.354,1.179c-1.24,0.162 -2.719,0.336 -3.973,0.134c-0.946,-0.153 -1.704,-0.166 -2.642,-0.298c-1.303,-0.184 -2.868,-0.694 -4.129,-1.113c-1.033,-0.346 -2.062,-0.81 -3.138,-1.005c-0.923,-0.166 -1.848,-0.258 -2.678,-0.702c-0.641,-0.344 -1.639,-0.484 -1.858,-1.29c2.522,-1.288 5.257,-2.223 8.055,-2.761c1.578,-0.305 3.024,-0.644 4.628,-0.715c1.469,-0.067 2.994,-0.091 4.449,-0.266c0.881,-0.106 1.722,-0.371 2.565,-0.607c0.541,-0.151 1.146,-0.332 1.708,-0.186" fill="#000000" stroke-width="1"/><path d="M258.47,264.343c-0.145,0.06 0.507,0.824 0.617,1.099c0.141,0.353 0.201,0.814 0.22,1.191c0.034,0.728 0.206,1.834 -0.056,2.515c-0.356,0.922 -1.228,1.726 -2.026,2.252c-1.325,0.878 -3.009,1.359 -4.47,2.006c-3.1,1.377 -7.68,1.994 -10.6,1.529c-1.75,-0.28 -2.891,-0.782 -4.483,-1.519c-1.392,-0.645 -2.92,-1.104 -4.401,-1.488c-1.613,-0.418 -3.228,-1.011 -4.805,-1.565c-0.404,-0.138 -0.971,-0.266 -1.176,-0.657c-0.17,-0.323 -0.099,-0.778 -0.099,-1.135c0,-0.59 0.004,-0.592 0.531,-0.848c0.414,-0.203 0.635,-0.532 0.97,-0.166c0.485,0.528 1.249,1.047 2.071,1.232c1.34,0.299 2.733,0.6 4.097,0.914c1.331,0.303 2.593,0.938 3.921,1.278c1.349,0.346 2.233,0.706 3.616,0.843c1.57,0.156 3.83,0 5.384,-0.314c1.5,-0.302 3.004,-0.628 4.444,-1.173c1.079,-0.413 2.208,-1.043 3.212,-1.6c0.364,-0.202 0.544,-0.545 0.877,-0.794c0.367,-0.272 0.698,-0.577 1.013,-0.914c0.676,-0.721 0.893,-1.342 1.132,-2.249c0.036,-0.13 0.114,-0.257 0.145,-0.393" fill="#ffffff" stroke-width="1"/><path d="M245.239,166.213c0.892,6.541 3.362,12.701 4.733,19.137c0.021,0.102 -0.477,0.026 -0.502,-0.093c-1.376,-6.451 -3.847,-12.625 -4.74,-19.181c-0.009,-0.05 0.489,-0.012 0.509,0.137zM244.51,187.77c-1.963,-3.74 -3.979,-7.456 -5.867,-11.233c-1.238,-2.477 -2.441,-4.972 -3.562,-7.501c-0.676,-1.528 -1.752,-3.405 -1.811,-5.118c-0.002,-0.067 0.507,-0.006 0.511,0.137c0.06,1.776 1.214,3.746 1.917,5.329c1.119,2.523 2.329,5.008 3.563,7.477c1.848,3.7 3.828,7.341 5.753,11.004c0.029,0.059 -0.439,0.03 -0.504,-0.095zM253.55,191.989c-0.876,-2.603 -3.256,-4.421 -4.132,-7.043c-0.03,-0.086 0.46,-0.031 0.501,0.095c0.878,2.622 3.257,4.438 4.133,7.043c0.03,0.084 -0.46,0.03 -0.502,-0.095zM244.008,195.709c0.044,-2.625 -0.567,-5.462 0.499,-7.963c0.05,-0.115 0.546,0.055 0.51,0.139c-1.064,2.5 -0.453,5.337 -0.497,7.962c-0.002,0.074 -0.515,0 -0.512,-0.138zM254.011,191.923c0.299,2.196 -1.032,4.476 -1.855,6.433c-0.049,0.117 -0.546,-0.052 -0.511,-0.137c0.824,-1.957 2.153,-4.238 1.856,-6.435c-0.008,-0.048 0.49,-0.01 0.51,0.139zM252.453,196.444c-2.696,0.791 -5.315,0.095 -7.884,-0.822c-0.343,-0.122 -0.014,-0.17 0.175,-0.102c2.391,0.853 4.781,1.469 7.287,0.734c0.113,-0.034 0.562,0.149 0.422,0.19zM252.215,198.248c-0.595,1.558 -1.43,3.08 -2.437,4.407c-0.524,0.693 -1.244,1.471 -2.142,0.959c-0.214,-0.121 0.301,-0.054 0.389,-0.004c0.495,0.281 1.867,-1.981 2.064,-2.295c0.63,-1.011 1.19,-2.092 1.615,-3.204c0.043,-0.116 0.545,0.046 0.511,0.137zM249.948,197.911c-0.463,1.981 -0.679,4.501 -2.116,6.064c-0.082,0.09 -0.552,-0.097 -0.481,-0.173c1.419,-1.544 1.63,-4.077 2.086,-6.029c0.023,-0.1 0.535,0.026 0.511,0.138zM247.339,203.843c-1.276,-1.608 -0.171,-4.424 0.106,-6.209c0.013,-0.093 0.529,0.017 0.51,0.138c-0.275,1.762 -1.362,4.593 -0.113,6.166c0.026,0.03 -0.409,0.023 -0.503,-0.095zM254.378,196.603c-0.44,-0.937 -0.774,-1.859 -0.923,-2.884c-0.008,-0.049 0.49,-0.013 0.511,0.137c0.149,1.014 0.482,1.918 0.916,2.842c0.032,0.066 -0.443,0.031 -0.504,-0.095zM255.079,196.751c-0.575,0.944 -2.081,0.881 -2.866,0.249c-0.102,-0.082 0.367,-0.027 0.46,0.047c0.573,0.46 1.534,0.16 1.895,-0.432c0.073,-0.121 0.547,0.078 0.511,0.136zM245.296,202.25c-0.72,-2.165 -1.324,-4.396 -1.34,-6.707c-0.001,-0.07 0.509,-0.002 0.511,0.139c0.017,2.279 0.622,4.529 1.331,6.663c0.03,0.086 -0.461,0.03 -0.502,-0.095zM247.566,203.549c-0.717,0.719 -1.599,0.713 -1.975,-0.313c-0.665,-1.806 0.161,-3.988 0.106,-5.855c-0.003,-0.067 0.507,-0.004 0.51,0.137c0.033,1.092 -0.174,2.108 -0.249,3.187c-0.05,0.738 -0.253,4.056 1.125,2.676c0.09,-0.093 0.551,0.098 0.483,0.168z" fill="#010101" stroke-width="1"/><path d="M230.773,160.127c-0.339,0.662 -0.298,1.601 -0.354,2.323c-0.079,1.009 -0.122,2.026 -0.311,3.022c-0.176,0.924 -1.124,1.334 -1.029,2.353c0.095,1.052 1.092,1.895 1.25,2.987c0.036,0.248 -0.484,0.172 -0.516,-0.045c-0.161,-1.119 -0.978,-1.914 -1.25,-2.986c-0.256,-0.998 0.83,-1.569 1.035,-2.445c0.396,-1.692 -0.095,-3.864 0.709,-5.427c0.094,-0.191 0.585,-0.012 0.466,0.218zM229.214,175.9c-1.078,-1.8 0.504,-3.446 0.599,-5.278c0.016,-0.259 0.53,-0.168 0.516,0.044c-0.091,1.758 -1.654,3.473 -0.629,5.187c0.141,0.237 -0.378,0.228 -0.486,0.047zM250.412,127.492c-0.21,-0.101 -0.331,0.205 -0.277,-0.149c0.056,-0.362 0.188,-0.541 0.407,-0.829c0.077,-0.102 0.243,-0.069 0.344,-0.03c1.018,0.403 1.661,1.096 2.006,2.135c0.486,1.46 0.783,3.006 1.226,4.485c1.271,4.233 3.735,8.113 3.509,12.677c-0.195,3.969 -3.227,6.782 -4.279,10.459c-0.576,2.015 -0.231,4.164 -0.169,6.22c0.063,2.023 0.641,3.816 0.36,5.857c-0.031,0.222 -0.542,0.097 -0.512,-0.137c0.279,-2.014 -0.28,-3.776 -0.365,-5.765c-0.077,-1.819 -0.257,-3.625 -0.008,-5.437c0.518,-3.767 3.637,-6.571 4.345,-10.318c0.851,-4.49 -1.774,-8.628 -3.126,-12.722c-0.533,-1.615 -1.023,-3.26 -1.379,-4.924c-0.133,-0.627 -0.389,-1.167 -0.816,-1.648c-1.082,-1.217 -0.707,0.014 -1.047,0.419c-0.08,0.097 -0.243,0.079 -0.345,0.031c-0.033,-0.016 -0.064,-0.03 -0.095,-0.046c-0.315,-0.151 -0.032,-0.4 0.221,-0.278zM253.574,168.077c-0.188,1.301 -0.226,3.694 0.742,4.691c0.904,0.931 1.319,2.128 0.822,3.376c-0.934,2.344 -4.467,3.327 -6.65,3.87c-0.204,0.049 -0.604,-0.254 -0.298,-0.33c2.318,-0.575 6.117,-1.643 6.643,-4.375c0.302,-1.568 -1.337,-2.385 -1.629,-3.78c-0.238,-1.122 -0.304,-2.452 -0.14,-3.589c0.031,-0.22 0.543,-0.096 0.51,0.137zM247.25,159.255c0.139,1.165 0.2,2.321 0.114,3.494c-0.044,0.624 -0.248,2.639 -0.938,2.96c-2.535,1.183 -5.179,1.839 -7.978,1.406c-1.96,-0.304 -3.974,-1.302 -5.091,-2.993c-1.191,-1.802 -1.584,-3.973 -2.215,-6.005c-0.068,-0.227 0.453,-0.164 0.516,0.044c0.5,1.616 0.864,3.284 1.565,4.828c0.914,2.018 2.68,3.151 4.78,3.688c1.324,0.337 2.717,0.274 4.054,0.069c1.181,-0.18 3.684,-0.704 4.266,-1.893c0.828,-1.692 0.631,-3.836 0.412,-5.644c-0.033,-0.25 0.488,-0.172 0.515,0.046zM250.049,127.121c2.136,2.944 2.198,7.415 1.304,10.817c-0.315,1.194 -0.838,2.335 -1.338,3.462c-0.624,1.407 -1.622,3.111 -1.082,4.685c0.329,0.958 1.105,1.316 0.988,2.421c-0.035,0.332 -0.294,0.689 -0.461,0.971c-0.597,1.015 -0.62,1.827 -0.072,2.884c0.13,0.248 -0.386,0.234 -0.485,0.047c-0.443,-0.853 -0.602,-1.528 -0.276,-2.451c0.456,-1.293 1.216,-1.778 0.217,-3.198c-1.408,-2.005 0.194,-4.418 1.036,-6.347c1.698,-3.886 2.413,-9.477 -0.254,-13.154c-0.189,-0.262 0.293,-0.315 0.423,-0.137zM249.323,152.24c0.235,1.355 1.04,2.378 0.75,3.796c-0.186,0.909 -0.853,1.776 -1.557,2.344c-1.581,1.276 -3.751,1.993 -5.748,1.383c-0.309,-0.094 -0.224,-0.423 0.087,-0.329c1.918,0.585 4.023,-0.223 5.464,-1.518c0.681,-0.613 1.121,-1.422 1.302,-2.312c0.24,-1.173 -0.619,-2.277 -0.814,-3.409c-0.043,-0.243 0.479,-0.169 0.516,0.045zM234.241,141.074c-0.683,-2.726 -1.218,-5.489 -0.841,-8.304c0.373,-2.765 1.966,-5.199 4.11,-6.924c1.816,-1.462 4.292,-2.309 6.627,-2.215c1.098,0.044 2.062,0.281 3.033,0.806c1.181,0.639 1.945,1.759 2.878,2.682c0.225,0.222 -0.272,0.284 -0.423,0.135c-0.802,-0.792 -1.47,-1.676 -2.384,-2.351c-1.229,-0.907 -2.763,-0.979 -4.224,-0.862c-2.541,0.204 -4.862,1.604 -6.555,3.444c-3.524,3.827 -2.865,9.009 -1.705,13.633c0.06,0.234 -0.461,0.167 -0.516,-0.044zM231.3,158.268c-0.466,-1.197 -0.141,-2.13 0.73,-3.038c0.599,-0.625 1.145,-0.725 0.939,-1.759c-0.194,-0.968 -0.4,-1.933 -0.572,-2.906c-0.622,-3.558 -0.046,-6.662 1.87,-9.714c0.115,-0.183 0.607,0.003 0.468,0.218c-1.292,2.062 -2.078,4.152 -2.109,6.607c-0.03,2.29 0.617,4.566 1.042,6.799c0.011,0.05 -0.021,0.093 -0.06,0.12c-1.279,0.851 -2.474,1.965 -1.823,3.625c0.105,0.266 -0.407,0.245 -0.485,0.048zM235.884,157.718c-1.498,-0.771 -2.549,-1.858 -2.616,-3.609c-0.009,-0.257 0.508,-0.173 0.516,0.044c0.059,1.593 0.947,2.578 2.322,3.285c0.309,0.16 0.028,0.408 -0.222,0.28zM235.896,123.146c0.948,-1.361 2.403,-1.815 3.593,-2.884c0.142,-0.128 0.376,-0.064 0.477,0.086c1.063,1.564 3.515,2.848 5.283,3.391c0.307,0.095 0.223,0.423 -0.089,0.329c-1.937,-0.595 -4.514,-1.961 -5.679,-3.672c0.159,0.029 0.319,0.058 0.477,0.086c-1.183,1.06 -2.651,1.531 -3.594,2.882c-0.124,0.179 -0.613,-0.01 -0.468,-0.218zM240.975,180.512c-1.947,0.862 -4.487,0.061 -6.395,-0.545c-2.314,-0.735 -4.132,-1.885 -5.367,-4.066c-0.138,-0.242 0.382,-0.231 0.485,-0.048c1.156,2.039 2.833,3.077 4.974,3.785c1.787,0.59 4.189,1.351 6.005,0.545c0.198,-0.088 0.591,0.2 0.298,0.329zM230.282,159.994c-0.03,-5.261 -0.941,-10.493 -0.947,-15.759c-0.01,-7.312 2.13,-15.222 6.562,-21.09c0.132,-0.176 0.619,0.018 0.468,0.218c-4.479,5.931 -6.583,13.962 -6.512,21.349c0.048,5.12 0.915,10.208 0.945,15.326c0.002,0.258 -0.515,0.171 -0.516,-0.044z" fill="#010101" stroke-width="1"/><path d="M235.884,193.151c3.329,-1.156 6.382,-2.674 8.699,-5.403c0.066,-0.078 0.429,0.054 0.36,0.136c-2.329,2.744 -5.405,4.263 -8.746,5.425c-0.094,0.031 -0.438,-0.114 -0.313,-0.158zM244.362,193.341c-0.998,0.706 -1.978,1.462 -3.118,1.929c-1.343,0.55 -2.91,0.61 -4.333,0.729c-0.091,0.008 -0.445,-0.152 -0.247,-0.169c1.436,-0.119 2.906,-0.216 4.268,-0.717c1.125,-0.416 2.105,-1.223 3.072,-1.908c0.092,-0.063 0.426,0.088 0.358,0.136zM248.7,181.103c0.982,0.707 2.219,1.067 3.066,1.96c0.09,0.094 -0.282,0.051 -0.348,-0.02c-0.829,-0.873 -2.051,-1.223 -3.014,-1.917c-0.161,-0.115 0.222,-0.076 0.296,-0.023zM236.274,193.306c0.401,0.774 0.822,1.682 0.75,2.575c-0.006,0.086 -0.391,0.012 -0.382,-0.101c0.072,-0.877 -0.353,-1.777 -0.747,-2.537c-0.036,-0.069 0.325,-0.038 0.379,0.063zM251.788,183.024c-0.094,1.417 -0.601,2.633 -0.881,4.008c-0.02,0.094 -0.403,0.001 -0.383,-0.103c0.28,-1.374 0.786,-2.593 0.881,-4.007c0.006,-0.084 0.391,-0.013 0.383,0.102z" fill="#000000" stroke-width="1"/><path d="M234.308,220.842c0.966,1.521 3.529,1.339 4.634,0.08c0.131,-0.146 0.617,0.043 0.472,0.209c-1.347,1.529 -4.452,1.527 -5.588,-0.26c-0.135,-0.217 0.383,-0.185 0.482,-0.029zM238.707,224.868c-1.533,-0.197 -3.278,-0.179 -4.55,-1.181c-0.711,-0.563 -1.481,-2.835 0.07,-2.677c0.263,0.026 0.416,0.348 0.062,0.313c-0.787,-0.08 -0.363,1.333 -0.237,1.617c0.287,0.655 0.996,0.976 1.634,1.173c0.952,0.297 1.976,0.311 2.958,0.439c0.261,0.035 0.415,0.363 0.063,0.316zM230.759,199.752c1.703,5.992 3.135,12.108 3.315,18.362c0.071,2.483 0.021,5.004 -0.186,7.48c-0.138,1.62 -0.522,3.208 -0.859,4.793c-0.164,0.779 -0.263,1.53 -0.536,2.287c-0.347,0.957 -0.635,1.739 -0.371,2.775c0.055,0.209 -0.463,0.136 -0.511,-0.056c-0.368,-1.426 0.364,-2.58 0.7,-3.933c0.412,-1.645 0.701,-3.371 0.96,-5.047c0.408,-2.64 0.346,-5.417 0.297,-8.082c-0.111,-6.337 -1.596,-12.57 -3.321,-18.635c-0.06,-0.204 0.457,-0.132 0.512,0.056zM250.559,253.626c1.295,0.629 2.589,1.472 3.252,2.792c0.742,1.473 -0.633,3.52 -1.48,4.66c-1.107,1.484 -3.132,2.044 -4.848,2.431c-1.952,0.441 -3.992,0.539 -5.984,0.441c-0.267,-0.015 -0.413,-0.334 -0.061,-0.314c3.181,0.158 6.782,-0.151 9.536,-1.887c1.316,-0.829 2.157,-2.74 2.485,-4.19c0.395,-1.739 -1.822,-3.062 -3.11,-3.688c-0.317,-0.156 -0.029,-0.361 0.21,-0.245zM251.856,239.853c-0.028,2.807 -0.421,5.595 0.616,8.282c0.413,1.068 0.668,2.069 0.342,3.188c-0.136,0.473 -0.442,0.876 -0.815,1.182c-0.343,0.281 -1.326,0.756 -0.864,1.403c0.146,0.207 -0.374,0.178 -0.479,0.028c-0.395,-0.552 -0.045,-0.947 0.446,-1.32c1.451,-1.1 1.562,-2.475 1.011,-4.121c-0.495,-1.485 -0.836,-2.822 -0.887,-4.4c-0.045,-1.432 0.103,-2.864 0.118,-4.298c0.002,-0.232 0.515,-0.13 0.512,0.056zM253.491,177.908c1.622,5.65 2.734,11.312 2.455,17.206c-0.127,2.659 -0.444,5.309 -0.695,7.957c-0.158,1.685 -0.291,3.368 -0.401,5.056c-0.074,1.125 0.083,2.136 -0.119,3.243c-0.036,0.195 -0.547,0.067 -0.51,-0.14c0.152,-0.834 0.022,-1.51 0.065,-2.332c0.089,-1.731 0.231,-3.462 0.383,-5.188c0.241,-2.707 0.558,-5.41 0.73,-8.123c0.385,-6.074 -0.753,-11.915 -2.423,-17.733c-0.057,-0.206 0.46,-0.136 0.515,0.054zM254.732,211.328c0.088,1.709 0.489,3.437 0.736,5.126c0.256,1.752 0.729,3.527 0.205,5.248c-0.993,3.26 -2.06,6.502 -2.51,9.886c-0.37,2.77 -0.7,5.577 -1.308,8.307c-0.045,0.197 -0.556,0.064 -0.512,-0.139c0.562,-2.521 0.873,-5.104 1.221,-7.66c0.451,-3.316 1.316,-6.496 2.328,-9.685c0.323,-1.013 0.591,-1.771 0.485,-2.812c-0.11,-1.069 -0.271,-2.135 -0.425,-3.199c-0.244,-1.689 -0.646,-3.419 -0.735,-5.126c-0.009,-0.233 0.506,-0.137 0.515,0.054zM231.975,234.99c-0.025,5.816 -0.949,12.494 -4.765,17.129c-0.123,0.15 -0.615,-0.036 -0.471,-0.209c3.769,-4.58 4.699,-11.227 4.722,-16.976c0.002,-0.234 0.516,-0.132 0.514,0.056zM224.797,261.221c-0.375,-1.765 -1.143,-3.383 -0.965,-5.221c0.177,-1.795 1.601,-3.038 2.908,-4.087c0.153,-0.124 0.629,0.082 0.471,0.209c-1.25,1 -2.329,1.98 -2.785,3.575c-0.533,1.865 0.5,3.789 0.882,5.58c0.048,0.214 -0.47,0.133 -0.511,-0.056zM226.656,268.715c-1.887,-0.055 -4.259,-0.853 -5.084,-2.7c-1.286,-2.881 3.186,-2.865 3.354,-5.093c0.016,-0.189 0.529,-0.076 0.511,0.139c-0.13,1.731 -2.081,1.866 -3.088,2.936c-0.865,0.919 -0.307,2.302 0.456,3.045c0.919,0.893 2.41,1.321 3.663,1.357c0.204,0.003 0.532,0.325 0.188,0.316zM226.323,268.452c1.902,-1.694 4.519,-2.414 6.925,-3.06c2.783,-0.75 5.603,-1.691 8.509,-1.738c0.211,-0.004 0.536,0.312 0.19,0.318c-2.757,0.045 -5.387,0.941 -8.032,1.625c-2.453,0.634 -5.182,1.337 -7.119,3.063c-0.148,0.131 -0.629,-0.069 -0.473,-0.208zM230.406,199.766c-2.046,-3.214 -3.45,-7.294 -3.33,-11.118c0.12,-3.902 0.982,-8.035 3.334,-11.223c0.116,-0.156 0.61,0.025 0.471,0.209c-2.255,3.057 -3.098,6.993 -3.279,10.73c-0.196,3.93 1.182,8.079 3.283,11.377c0.136,0.214 -0.38,0.182 -0.479,0.025zM227.612,250.346c-2.244,-2.811 -3.673,-5.958 -4.23,-9.515c-0.032,-0.22 0.485,-0.138 0.513,0.057c0.55,3.525 1.974,6.651 4.197,9.433c0.153,0.189 -0.366,0.167 -0.48,0.025zM224.902,229.858c-0.121,-1.235 -0.535,-2.564 0.03,-3.749c0.383,-0.787 1.366,-1.259 2.072,-1.688c1.353,-0.82 2.594,-1.894 3.803,-2.907c1.019,-0.85 2.53,-1.856 2.885,-3.196c0.052,-0.199 0.563,-0.061 0.508,0.138c-0.272,1.034 -1.095,1.668 -1.869,2.35c-1.06,0.933 -2.147,1.827 -3.271,2.684c-0.901,0.693 -1.852,1.269 -2.787,1.91c-1.594,1.093 -1.018,2.895 -0.86,4.513c0.025,0.228 -0.49,0.137 -0.511,-0.055zM223.449,240.896c-0.465,-1.722 -2.543,-2.16 -3.716,-3.29c-0.861,-0.833 -0.736,-2.25 -0.63,-3.354c0.131,-1.342 0.532,-2.302 1.814,-2.859c1.195,-0.518 3.211,-0.374 3.945,-1.609c0.096,-0.164 0.587,0.01 0.469,0.211c-0.535,0.904 -1.747,1.066 -2.683,1.284c-1.736,0.403 -2.704,1.011 -2.998,2.823c-0.124,0.768 -0.128,1.552 -0.02,2.322c0.136,0.963 0.889,1.451 1.662,1.926c1.106,0.679 2.306,1.262 2.672,2.605c0.055,0.202 -0.463,0.13 -0.515,-0.059zM255.52,186.956c1.368,4.125 2.23,8.328 3.396,12.507c0.816,2.921 1.766,5.806 2.542,8.738c0.708,2.673 0.924,5.103 -0.427,7.611c-0.103,0.187 -0.599,0.025 -0.511,-0.138c1.335,-2.481 1.105,-4.892 0.425,-7.529c-0.756,-2.936 -1.714,-5.82 -2.542,-8.738c-1.185,-4.175 -2.03,-8.382 -3.398,-12.507c-0.063,-0.198 0.453,-0.13 0.515,0.056zM252.943,229.359c1.981,-4.934 4.802,-9.476 7.797,-13.85c0.109,-0.158 0.604,0.021 0.473,0.21c-2.981,4.348 -5.79,8.873 -7.76,13.779c-0.078,0.195 -0.584,0.044 -0.51,-0.139z" fill="#000000" stroke-width="1"/><path d="M224.21,243.694c-1.504,1.408 -3.2,2.564 -3.47,4.767c-0.199,1.623 0.93,2.983 2.242,3.759c0.795,0.469 1.608,0.658 2.216,1.399c0.126,0.149 -0.379,0.093 -0.468,-0.016c-0.788,-0.951 -2.132,-1.126 -3.035,-1.962c-0.864,-0.803 -1.41,-1.701 -1.48,-2.895c-0.142,-2.381 1.989,-3.81 3.515,-5.24c0.116,-0.106 0.591,0.086 0.48,0.188zM223.736,256.182c-1.138,-1.873 -3.501,-2.294 -4.883,-3.93c-1.711,-2.031 0.273,-4.403 1.904,-5.674c0.126,-0.098 0.588,0.101 0.478,0.187c-1.998,1.56 -3.636,4.064 -1.296,6.131c1.386,1.226 3.259,1.642 4.269,3.3c0.106,0.177 -0.399,0.105 -0.472,-0.014z" fill="#010101" stroke-width="1"/><path d="M247.206,271.735c-3.767,0.688 -7.452,-0.018 -10.996,-1.35c-1.668,-0.627 -3.287,-0.842 -5.014,-1.235c-1.213,-0.275 -2.277,-0.856 -3.064,-1.83c-0.126,-0.154 0.381,-0.096 0.468,0.013c1.71,2.118 4.523,1.616 6.833,2.5c3.741,1.435 7.426,2.391 11.448,1.66c0.137,-0.024 0.599,0.194 0.325,0.242zM257.685,271.129c-2.192,1.533 -4.692,2.385 -7.197,3.263c-2.27,0.793 -4.74,0.715 -7.115,0.737c-2.301,0.024 -4.656,-1.287 -6.734,-2.119c-3.064,-1.227 -6.345,-1.747 -9.392,-3.02c-0.336,-0.139 -0.022,-0.25 0.186,-0.162c2.51,1.046 5.166,1.526 7.726,2.402c2.475,0.85 4.858,2.189 7.458,2.606c1.169,0.189 2.505,0.031 3.682,-0.026c1.283,-0.062 2.562,-0.212 3.777,-0.646c2.481,-0.888 4.95,-1.699 7.131,-3.227c0.133,-0.089 0.585,0.116 0.478,0.192zM258.875,264.235c0.864,2.527 1.546,5.327 -1.189,6.892c-0.141,0.082 -0.582,-0.129 -0.478,-0.187c2.705,-1.55 2.011,-4.298 1.159,-6.779c-0.047,-0.14 0.455,-0.072 0.508,0.074zM258.569,264.079c0.486,0.524 -0.56,2.048 -0.902,2.518c-0.798,1.11 -1.814,1.954 -2.978,2.661c-2.25,1.37 -4.911,2.045 -7.486,2.479c-0.134,0.022 -0.596,-0.195 -0.322,-0.242c2.34,-0.395 4.634,-1.02 6.756,-2.102c1.102,-0.561 2.097,-1.307 2.943,-2.207c0.339,-0.363 2.044,-2.555 1.52,-3.118c-0.13,-0.141 0.372,-0.092 0.469,0.011zM258.65,264.152c-3.119,0.08 -6.177,0.011 -9.089,-1.226c-0.331,-0.14 -0.023,-0.253 0.19,-0.163c2.782,1.182 5.713,1.216 8.688,1.141c0.165,-0.006 0.553,0.238 0.211,0.248zM227.025,269.876c-0.092,-0.739 -0.435,-1.514 0.08,-2.17c0.092,-0.114 0.58,0.057 0.478,0.187c-0.479,0.611 -0.137,1.376 -0.053,2.059c0.022,0.17 -0.486,0.071 -0.505,-0.076z" fill="#010101" stroke-width="1"/><g><path d="M241.19917,87.91884c-0.8673,1.0288 -1.9598,2.6723 -2.299,3.742c-0.4075,1.2892 -0.5576,2.8462 -0.2242,4.1192c0.1891,0.7173 0.2831,1.559 0.609,2.2591c0.2517,0.5453 0.5158,0.9985 0.7153,1.5647c0.2423,0.683 0.8683,1.082 1.1533,1.7527c0.19787,0.46263 0.93181,0.99689 1.23048,2.19322c-0.03583,0.01869 -0.52346,1.06771 -0.57588,1.15458c-0.3715,0.6156 -0.1872,1.1628 -0.0627,1.8117c0.07395,0.38724 0.14857,0.6768 0.25469,0.94007c-1.66171,-0.06854 -3.84179,0.344 -4.20386,0.3016c-0.82894,-0.09901 -4.11032,0.34766 -5.54331,-0.65093c0.14414,-0.01053 0.30075,-0.04288 0.47055,-0.10281c1.41449,-0.49923 0.91526,-1.91371 0.91526,-1.91371c-0.17926,-0.49564 -0.31243,-0.94384 -0.41126,-1.37317c0.3997,-0.17324 0.83011,-0.54633 0.83011,-1.34982c0,-0.63595 -0.26963,-1.00229 -0.58025,-1.2133c-0.18768,-0.32727 -0.36526,-0.64438 -0.53086,-0.95292v-1.61155c0,-0.73903 -0.53446,-1.35324 -1.23794,-1.47719c-0.28214,-1.39279 -0.0523,-2.70653 0.95707,-4.16387c0.25436,-0.05849 0.49075,-0.13889 0.63764,-0.33478c0.16425,-0.21905 0.22301,-0.48302 0.24568,-0.76234c0.08868,-0.09717 0.18072,-0.19512 0.2762,-0.29392c1.28005,0.4992 1.87219,-0.78377 1.87219,-0.78377c0.22222,-0.48148 0.44445,-0.96296 0.66667,-1.44444l0.09081,-0.17999c0,0 0.01431,-0.02862 0.03456,-0.07958c1.66463,-0.9595 3.65688,-1.56198 5.57944,-2.12706c-0.28869,0.30411 -0.57556,0.62796 -0.86969,0.97628z" fill="#3d241b" stroke-width="0.95"/><path d="M261.17767,94.89963c-1.6824,-1.13465 -2.9184,-1.35238 -4.9827,-1.45588c-2.2971,-0.11599 -5.2155,0.54958 -6.9141,1.51253c-1.1286,0.64078 -1.99517,1.74493 -2.09587,3.13896c-0.0817,1.12133 0.71813,2.29847 1.10763,3.33316c0.3819,1.01429 0.60064,1.86342 0.65284,2.95475c0.0532,1.13726 -0.6992,2.56929 -1.2967,2.96319c-0.3088,-0.73377 -0.2841,-1.57635 -0.7961,-2.33126c-0.2594,-0.38151 -0.5235,-0.72846 -0.8075,-1.03646c-0.3297,-0.3611 -0.6052,-0.41775 -1.0488,-0.69119c-0.5691,-0.35142 -0.5007,-0.37881 -0.7847,-0.93379c-0.2166,-0.42744 -0.3677,-0.7523 -0.4342,-1.22577c-0.1377,-0.98512 -0.7153,-2.25961 -0.7001,-3.28359c0.0085,-0.59476 0.114,-0.21419 0.0247,-0.79926c-0.1055,-0.69566 0.0836,-1.61165 0.4332,-2.29585c0.2479,-0.48231 0.3287,-1.33114 0.7505,-1.69048c0.5149,-0.43806 0.6707,-0.46107 1.0754,-1.02575c0.702,-0.98336 1.7499,-1.58165 2.7578,-2.26846c1.0678,-0.72836 2.2572,-1.65153 3.5825,-1.94621c2.4111,-0.53635 5.6097,0.35049 7.6275,1.59396c1.7243,1.06124 2.2221,3.56503 1.92,5.42637z" fill="#3d241b" stroke-width="0.95"/><path d="M242.00016,107.45611c0.27419,0.01131 0.53428,0.03572 0.76975,0.07743c1.3405,0.2365 0.39296,1.6463 -0.06214,1.0592c-0.35187,-0.45578 -0.56015,-0.77083 -0.70761,-1.13663z" fill="#371e10" stroke-width="0.95"/><path d="M242.43607,105.99487c-0.23217,0.26616 -0.26654,-0.2386 -0.30044,-0.72469c0.10228,0.3361 0.20354,0.59652 0.30044,0.72469z" fill="#371e10" stroke-width="0.95"/><path d="M242.13563,105.27019c-0.06521,-0.21427 -0.13083,-0.45931 -0.19603,-0.72043c0.14011,-0.07309 0.16791,0.31725 0.19603,0.72043z" fill="#371e10" stroke-width="0.95"/><path d="M240.64636,120.52184c0.5329,-0.2489 0.095,-0.2413 0.5567,-0.6175c0.5263,-0.418 0.7077,-0.7448 0.7951,-1.3794c0.0494,-0.3638 0.172,-0.5301 0.3401,-0.8483c0.1634,-0.3107 0.4142,-1.1837 0.5358,-1.5295c0.2594,-0.7306 0.152,-1.3509 0.4161,-2.0891c0.514,-1.4487 1.2255,-3.2974 -0.0313,-4.8326c-0.3268,-0.399 -0.6413,-0.7524 -0.989,-1.1419c-0.417,-0.4665 -0.3648,-1.2122 -0.5158,-1.8145c-0.1359,-0.5358 -0.1748,-1.1286 -0.0589,-1.6768c0.1349,-0.6298 0.4161,-1.0298 0.7704,-1.5371c0.342,-0.4921 0.3192,-0.5842 0.9595,-0.6754c0.5045,-0.0713 0.9557,0.1539 1.3604,0.4161c0.6251,0.4066 1.4488,0.9604 1.7157,1.6805c0.1682,0.4541 0.6973,0.9006 0.7866,1.3747c0.0779,0.4113 0.1843,1.0554 0.494,1.3623c0.6641,-0.5634 0.7657,-1.7499 0.799,-2.5365c0.1833,-0.0836 0.0883,-0.2622 0.0931,-0.4247c0.0038,-0.1368 0.2166,-1.2112 -0.0228,-1.2834c-0.0266,-0.3002 -0.1805,-0.3705 -0.1853,-0.6698c-0.0104,0.0048 -0.0912,-0.0161 -0.1016,-0.0085c0.0057,-0.3116 -0.0855,-0.4665 -0.095,-0.7771c-0.1368,-0.0447 -0.1682,-0.2508 -0.3211,-0.2689c-0.0133,-0.151 -0.2119,-0.456 -0.2736,-0.5947c-0.1454,-0.3239 -0.5339,-0.8768 -0.609,-1.1238c-0.0199,-0.3002 0.0694,-0.3135 0.0466,-0.6137c-0.0808,-0.0903 -0.4199,-0.5073 -0.0988,-0.5054c-0.0257,-0.3002 -0.1131,-0.2318 -0.1036,-0.533c-0.3087,0.3743 0.0238,-0.4104 0.001,-0.3971c-0.0276,-0.3011 0.2812,-0.5405 0.1368,-0.7999c0.0522,-0.0437 -0.0171,-0.4541 0.0294,-0.4075c-0.0009,-0.552 0.5729,-0.3449 0.609,-0.8959c-0.1159,0.5225 0.6526,-0.8094 0.7571,-0.8597c0.2926,-0.1397 0.3344,-0.3582 0.6137,-0.5111c0.343,-0.1872 0.5206,-0.3506 0.8522,-0.5434c0.3819,-0.2223 1.0155,-0.4541 1.4402,-0.6223c0.3781,-0.152 1.0098,-0.2584 1.4145,-0.3163c0.6327,-0.0903 1.0678,0.0104 1.7024,-0.0608c0.9329,-0.1055 2.0976,-0.0722 3.0286,-0.0589c0.3449,0.0047 0.8142,0.2061 1.1628,0.2736c0.3154,0.0627 0.5273,0.1406 0.8218,0.2859c0.5747,0.2822 1.0393,0.3506 1.5342,0.7866c0.2983,0.2613 0.3325,0.8332 0.5311,1.1609c0.1216,0.2024 0.2973,0.5273 0.3762,0.7429c0.0874,0.2404 0.1396,0.5149 0.2954,0.7173c0.2594,0.341 0.3449,0.7514 0.4266,1.1894c0.1415,0.7714 0.2707,1.7945 0,2.5517c-0.057,0.1577 0.0836,0.3068 0.0142,0.4721c-0.0807,0.1929 -0.208,0.3876 -0.265,0.5909c-0.1121,0.4028 -0.1387,0.8408 -0.267,1.2445c-0.2071,0.6555 -0.5358,1.3082 -0.5054,2.0482c0.0304,0.7429 0.1729,1.2512 0.609,1.8525c0.1976,0.2746 0.2859,0.6669 0.5063,0.9139c0.2166,0.2404 0.4551,0.6489 0.6774,0.8816c0.4123,0.4323 1.2834,0.7334 1.2112,1.4136c-0.0313,0.2879 -0.2593,0.5748 -0.4294,0.7952c-0.2118,0.2764 -0.5586,0.5548 -0.873,0.645c-0.4456,0.1254 -0.8541,0.1245 -1.0308,0.5852c-0.1339,0.3487 -0.0598,0.5254 0.0152,0.8892c0.0836,0.4057 0.3629,0.7534 0.3145,1.1989c-0.0656,0.5938 -0.6185,1.0165 -1.0707,1.1248c0.418,0.3791 0.2869,1.2075 -0.0703,1.5191c-0.4826,0.4218 -1.1694,0.1634 -1.6169,0.5994c-0.7932,0.7752 -0.3752,1.8753 -0.8759,2.7512c-1.0972,1.9171 -3.3981,0.7163 -4.8497,0.3648c-0.1055,-0.0997 -1.7566,-0.741 -1.8753,-0.5956c-0.1729,0.2109 -0.2413,0.323 -0.4741,0.3277c-0.0399,0.2907 -0.0171,0.2936 -0.0579,0.5843c-0.229,0.0066 -0.2071,0.2973 -0.438,0.3591c-0.0437,0.2983 -0.2289,0.3087 -0.2574,0.6089c-0.0124,-0.0351 -0.0209,-0.0703 -0.0266,-0.1064c-0.0428,0.285 -0.2271,0.1017 -0.285,0.3848c-0.0713,-0.0399 -0.3819,0.4161 -0.1967,0.5681c-0.0551,0.285 -0.2489,5.3409 0.1311,5.8586c-0.0541,-0.1463 -0.2812,0.1283 -1.0165,-0.2622c-0.0541,-0.0294 -0.7011,-0.4265 -0.7381,-0.455c-0.2204,-0.1786 -0.5615,-0.3012 -0.551,-0.476c-0.019,0.361 -0.4009,-0.8113 -0.4209,-0.4503c0.0162,-0.0513 -0.2498,-0.532 -0.2403,-0.5785c-0.2423,-0.2955 -0.456,-0.7049 -0.8113,-0.9111c-0.4161,-0.2432 -0.2755,-0.418 -0.6755,-0.6849c-0.5899,-0.3933 -0.6127,-0.5168 -1.2663,-0.8161c-0.6612,-0.304 -0.6061,-0.4427 -1.3148,-0.5443c-0.381,-0.057 -0.5444,-0.1881 -0.9215,-0.2489c-0.4456,-0.0703 -0.4047,-0.0874 -0.7619,-0.2641c-0.476,-0.2347 -0.9234,-0.5206 -1.5162,-1.0707c-0.988,-0.9215 0.6013,-0.3933 0.2242,-0.7049" fill="#ffbb80" stroke-width="0.95"/><path d="M260.18967,103.17674c-0.151,0.1197 -0.2907,0.2014 -0.4769,0.266c-0.1548,0.0532 -0.304,0.1197 -0.456,0.1786c-0.0883,0.0342 -0.1501,0.0599 -0.2099,0.1397c-0.0627,0.0826 -0.0703,0.2375 -0.1083,0.341c-0.0456,0.1273 -0.0171,0.2204 -0.0114,0.3534c0.0114,0.2176 0.1054,0.4142 0.151,0.6223c0.0228,0.1121 0.0589,0.19 0.1254,0.2888c0.0589,0.0893 0.1178,0.1586 0.1919,0.2337c0.0466,0.0465 0.077,0.0902 0.1368,0.1216c0.0399,0.0209 0.1387,0.0256 0.1577,0.0703c0.0437,0.0969 -0.2223,0.0513 -0.2669,0.0494c-0.3506,-0.0171 -0.6821,-0.0931 -1.0194,-0.1748c-0.1966,-0.0475 -0.5092,-0.21 -0.7001,-0.2698c-0.2033,-0.0637 -0.4921,-0.1967 -0.7002,-0.2689c-0.2451,-0.0845 -0.2574,-0.0199 -0.4769,-0.1586c-0.0731,-0.0456 -0.1672,-0.1093 -0.1719,-0.2071c-0.0038,-0.0732 0.0418,-0.1026 0.0817,-0.1596c0.0418,-0.0589 -0.1387,-0.1796 -0.0979,-0.2356c0.0722,-0.0998 0.4199,-0.1245 0.5273,-0.1758c0.3686,-0.1786 0.7676,-0.2983 1.159,-0.4113c0.3714,-0.1045 0.7486,-0.19 1.1162,-0.305c0.2138,-0.0665 0.4351,-0.1026 0.6498,-0.1691c0.1311,-0.0408 0.2632,-0.1026 0.3952,-0.1349" fill="#ffffff" stroke-width="0.95"/><path d="M259.00507,103.68404c0.0978,-0.0123 0.1738,-0.1007 0.2555,-0.1482c0.0874,-0.0513 0.1815,-0.0826 0.2803,-0.1102c0.1843,-0.0513 0.3933,-0.0864 0.5852,-0.0988c0.1026,-0.0085 0.1615,0.0143 0.2232,0.1045c0.0941,0.1397 0.1957,0.2622 0.2594,0.4209c0.0522,0.1273 0.1149,0.2403 0.1444,0.3762c0.0275,0.1282 0.0142,0.2622 0.0142,0.3933c0,0.3135 -0.1605,0.5719 -0.3258,0.8293c-0.1501,0.2356 -0.3278,0.3126 -0.6004,0.2983c-0.0903,-0.0038 -0.1739,-0.0294 -0.2584,-0.0646c-0.1292,-0.0541 -0.1976,-0.17 -0.3135,-0.2413c-0.0722,-0.0446 -0.1064,-0.0522 -0.1406,-0.1349c-0.0352,-0.0845 -0.0779,-0.1729 -0.0998,-0.2631c-0.0864,-0.343 -0.2128,-0.7467 -0.1216,-1.1011c0.0266,-0.1045 0.0523,-0.1833 0.115,-0.2679" fill="#371e10" stroke-width="0.95"/><path d="M244.91277,102.91934c-1.5276,-1.2664 -2.4824,0.5044 -2.8909,1.5418c-0.3249,0.8256 -0.2413,1.7357 0.0067,2.565c0.2859,0.9529 1.0032,1.7404 1.71,2.4035c0.2945,0.2736 0.6118,0.5111 0.9481,0.7249c1.0982,0.6935 1.6872,-0.1625 2.0795,-0.9804c0.0561,-0.1178 0.4247,0.0066 0.3781,0.1007c-1.3395,2.7911 -4.2759,0.2546 -5.1955,-1.6217c-0.8151,-1.6653 -0.627,-3.4817 0.645,-4.8706c0.7847,-0.8569 1.843,-0.5472 2.6163,0.094c0.1644,0.1349 -0.2147,0.1112 -0.2973,0.0428zM246.67787,109.27574c0.4816,-1.0089 -1.4307,-0.6393 -1.9903,-0.7058c-0.8132,-0.095 -1.5162,-0.6451 -1.7746,-1.4184c-0.038,-0.1111 0.3382,-0.0589 0.3772,0.0561c0.4959,1.4839 1.8886,1.0469 3.0637,1.196c0.57,0.0722 0.9842,0.3857 0.703,0.9747c-0.0551,0.1159 -0.4237,-0.0076 -0.379,-0.1026zM242.47697,104.76804c0.1111,-0.8617 1.0469,-1.0241 1.7679,-0.8227c1.2911,0.3629 1.6948,1.71 2.527,2.6315c0.0988,0.1111 -0.2764,0.076 -0.3496,-0.0057c-0.5576,-0.6156 -0.9272,-1.3661 -1.462,-1.9988c-0.571,-0.6736 -1.9665,-0.7629 -2.1043,0.2973c-0.0152,0.1093 -0.3961,0.0257 -0.379,-0.1016zM261.24517,94.13844c1.215,1.8183 1.9988,3.7962 1.6777,6.004c-0.2974,2.0311 -1.7604,4.5078 -0.2974,6.4353c0.095,0.1245 -0.284,0.0827 -0.3496,-0.0057c-1.0165,-1.3423 -0.6232,-3.1787 -0.1995,-4.6588c0.4057,-1.4145 0.7211,-2.7388 0.437,-4.2161c-0.246,-1.2863 -0.8977,-2.4899 -1.6159,-3.5663c-0.0912,-0.1311 0.2869,-0.0836 0.3477,0.0076zM262.58937,106.53404c0.5168,1.1942 2.2591,1.9836 2.2838,3.3317c0.0105,0.5348 -0.5738,0.8892 -0.9794,1.0877c-0.2128,0.1045 -0.5054,0.1235 -0.7334,0.1511c-0.8522,0.1045 -0.5719,1.1428 -0.5292,1.6406c0.0124,0.1349 -0.3676,0.057 -0.3762,-0.056c-0.0399,-0.475 -0.1197,-0.9519 0.02,-1.4146c0.1349,-0.4417 1.0545,-0.4151 1.3157,-0.4911c2.3978,-0.7059 -0.9148,-3.2348 -1.3775,-4.3045c-0.0446,-0.0997 0.3268,-0.0579 0.3762,0.0551zM262.55136,110.62094c-0.5804,0.1615 -1.1485,0.5121 -1.7651,0.2917c-0.5909,-0.2119 -0.7704,-0.7249 -0.3762,-1.2303c0.0713,-0.0912 0.4361,0.0371 0.3544,0.1416c-0.3316,0.4246 -0.228,1.0383 0.4427,0.9585c0.3591,-0.0437 0.6935,-0.2356 1.0393,-0.3325c0.1045,-0.0285 0.4446,0.1321 0.3049,0.171zM259.18836,113.80154c0.7401,-0.8949 2.0824,-1.1257 3.1787,-1.1808c0.1292,-0.0067 0.4095,0.1786 0.1539,0.1919c-1.0374,0.0532 -2.2828,0.2888 -2.9782,1.1305c-0.0751,0.0893 -0.438,-0.0399 -0.3544,-0.1416zM262.63217,112.74424c1.595,2.8823 -3.6119,2.4985 -4.9296,1.3756c-0.1605,-0.1378 0.2166,-0.114 0.2983,-0.0447c1.2293,1.0469 5.6858,1.2018 4.2551,-1.387c-0.0494,-0.0855 0.3163,-0.0522 0.3762,0.0561zM261.89396,114.73064c1.1001,2.0226 -1.8031,2.3304 -3.0713,1.6283c-0.2233,-0.1235 0.1187,-0.151 0.2289,-0.0902c0.5947,0.3287 1.4032,0.3325 2.034,0.1111c0.8189,-0.2859 0.7904,-1.0469 0.4313,-1.7052c-0.0475,-0.0865 0.3182,-0.0532 0.3771,0.056zM260.51647,116.72944c-0.9196,0.3677 -0.8141,1.8069 -0.9899,2.6173c-0.1567,0.7277 -0.8075,1.1504 -1.4763,1.3395c-1.4326,0.4047 -3.1407,-0.3458 -4.4536,-0.8379c-4.047,-1.5143 -8.4673,-4.6759 -8.6041,-9.4658c-0.0029,-0.096 0.3752,-0.0333 0.3771,0.1007c0.1321,4.5372 4.294,7.7083 8.1567,9.1561c1.5761,0.5899 3.9482,1.6938 5.3219,0.2118c0.8256,-0.8911 0.0409,-2.7635 1.3623,-3.2917c0.1017,-0.0409 0.4494,0.1121 0.3059,0.17zM244.31897,110.12604c0.0504,2.0738 -0.6327,4.3643 -1.216,6.346c-0.5833,1.9798 -1.5228,3.8855 -3.1853,5.1661c-0.0988,0.076 -0.4446,-0.0732 -0.3553,-0.1406c1.6691,-1.2854 2.5431,-3.1597 3.1587,-5.1262c0.6137,-1.9523 1.2664,-4.295 1.216,-6.346c0,-0.0969 0.3781,-0.0342 0.3819,0.1007zM250.52627,127.43974c-0.2574,-1.5304 -0.4322,-3.0238 -0.2147,-4.5695c0.2176,-1.5304 1.1267,-2.3921 1.9247,-3.6185c0.0589,-0.0931 0.4294,0.0256 0.3544,0.1415c-0.7942,1.2179 -1.597,2.1043 -1.9,3.5787c-0.305,1.481 -0.0361,3.0523 0.2118,4.522c0.0228,0.1282 -0.3572,0.0608 -0.3762,-0.0542zM254.39947,102.31514c0.968,-0.5919 1.8914,-1.2056 3.0029,-1.4877c1.1429,-0.2926 2.4472,0.1377 3.5996,0.1102c0.1282,-0.0029 0.4104,0.1862 0.1539,0.1928c-0.9101,0.0219 -1.7936,-0.1273 -2.7009,-0.1862c-1.3756,-0.0893 -2.5992,0.8379 -3.7012,1.5124c-0.1064,0.0646 -0.4398,-0.0893 -0.3543,-0.1415z" fill="#010101" stroke-width="0.95"/><path d="M261.18527,102.72454c-0.6678,0.5909 -1.4126,0.7439 -2.2581,0.9548c-0.1349,0.0323 -2.9735,0.5643 -2.5042,1.0203c0.0779,0.076 -0.2803,0.0313 -0.343,-0.0295c-0.4788,-0.4664 0.5938,-0.6821 0.9111,-0.7733c1.2929,-0.3724 2.7844,-0.3695 3.8361,-1.2996c0.075,-0.0655 0.4132,0.0798 0.3581,0.1273zM260.87177,105.69234c-1.3765,0.7999 -3.4741,-0.3733 -4.6768,-1.0402c-0.1606,-0.0893 0.2223,-0.0456 0.2897,-0.0076c1.0688,0.5928 2.8443,1.6083 4.028,0.9196c0.0941,-0.0532 0.4047,0.1035 0.3591,0.1282zM260.11656,105.87664c-1.2464,0.0361 -1.7737,-1.4763 -1.1277,-2.4348c0.0618,-0.0931 0.4085,0.0589 0.38,0.1007c-0.1966,0.2907 -0.2574,0.6327 -0.2574,0.9794c-0.0019,0.4285 0.19,1.2198 0.7581,1.2027c0.0779,-0.0009 0.4332,0.1473 0.247,0.152zM260.46137,103.26034c0.647,0.8246 0.7306,2.0473 -0.2907,2.6049c-0.0969,0.0513 -0.4018,-0.1054 -0.3581,-0.1282c1.0051,-0.5472 0.9053,-1.7385 0.2726,-2.5451c-0.0209,-0.0275 0.3069,-0.019 0.3762,0.0684zM257.51547,104.03844c-0.495,-0.0181 -0.9263,-0.2033 -1.3471,-0.4513c-0.0618,-0.037 -0.0494,-0.0779 0.0209,-0.0798c0.0902,-0.0028 0.19,0.0257 0.2679,0.0713c0.2517,0.1472 0.512,0.2954 0.8113,0.3068c0.0912,0.0029 0.1881,0.0209 0.2679,0.0713c0.0589,0.0361 0.0541,0.0836 -0.0209,0.0817zM258.29157,103.87974c-0.4788,0.0751 -1.0649,-0.1833 -1.4763,-0.4075c-0.0655,-0.0361 -0.0475,-0.0779 0.0209,-0.0798c0.0922,-0.0029 0.1872,0.0275 0.2679,0.0712c0.229,0.1245 0.6061,0.3116 0.874,0.2698c0.0874,-0.0133 0.1853,0.0124 0.2651,0.0494c0.0266,0.0133 0.1358,0.0827 0.0484,0.0969zM257.40617,105.19554c-0.7932,0.0684 -1.6672,-0.3724 -2.1498,-0.989c-0.0276,-0.0342 0.0522,-0.0408 0.0636,-0.0418c0.4228,-0.0342 0.8465,-0.094 1.2711,-0.1292c0.0789,-0.0076 0.4351,0.1359 0.247,0.1511c-0.4246,0.0361 -0.8464,0.0959 -1.2711,0.1301c0.02,-0.0152 0.0428,-0.0275 0.0637,-0.0418c0.3496,0.4475 0.9452,0.8189 1.5276,0.7695c0.0798,-0.0066 0.436,0.134 0.2479,0.1511zM256.21587,104.60464c0.2109,0.1985 0.456,0.3819 0.7429,0.4721c-0.0257,0.0333 -0.0532,0.0646 -0.0798,0.0979c-0.0969,-0.0371 -0.1919,-0.0722 -0.2879,-0.1093c0.0703,-0.0152 0.1397,-0.0285 0.21,-0.0456c0.0807,0.0437 0.1605,0.0884 0.2403,0.1311c-0.0969,0.0029 -0.1938,0.0057 -0.2897,0.0086c-0.058,-0.0266 -0.1131,-0.0551 -0.1701,-0.0808c-0.1938,-0.0836 0.0342,-0.1016 0.1254,-0.0798c0.0941,0.0228 0.1758,0.0494 0.267,0.0817c-0.0589,0.02 -0.1159,0.0428 -0.1748,0.0627c-0.0352,-0.0123 -0.0713,-0.0218 -0.1074,-0.0332c0.0095,-0.0371 0.02,-0.0732 0.0295,-0.1093c0.0959,0.0323 0.1909,0.0618 0.2859,0.0941c-0.0579,0.0209 -0.1159,0.0427 -0.1738,0.0636c-0.0608,-0.0266 -0.1197,-0.0551 -0.1786,-0.0807c0.0712,-0.0162 0.1406,-0.0295 0.2109,-0.0447c0.0437,0.0323 0.0902,0.0627 0.1387,0.0884c0.1634,0.094 -0.2005,0.0503 -0.2537,0.0266c-0.1206,-0.0551 -0.1805,-0.0931 -0.2878,-0.1701c-0.095,-0.0684 0.2384,-0.0285 0.2812,-0.0085c0.1197,0.0608 0.2337,0.1178 0.3439,0.1928c0.1567,0.1064 -0.1986,0.0561 -0.2537,0.0266c-0.1159,-0.0598 -0.228,-0.1273 -0.3429,-0.1862c-0.2071,-0.1111 0.0864,-0.0988 0.1757,-0.0646c0.1843,0.0732 0.3715,0.1416 0.552,0.2252c-0.0732,0.0161 -0.1454,0.0313 -0.2176,0.0465c-0.2479,-0.1235 -0.5063,-0.19 -0.6973,-0.4009c-0.0874,-0.0959 0.2698,-0.0199 0.3164,0.0114c0.3325,0.2242 0.6992,0.381 1.0469,0.5776c0.1482,0.0836 -0.114,0.0732 -0.1606,0.0589c-0.6716,-0.1824 -1.3034,-0.513 -1.8477,-0.9443c0.1149,0.0095 0.2289,0.019 0.3429,0.0295c0.2641,0.2574 0.5995,0.3676 0.9301,0.5101c-0.0732,0.0171 -0.1454,0.0304 -0.2176,0.0466c-0.3125,-0.1435 -0.6146,-0.2888 -0.8873,-0.5007c-0.0902,-0.0712 0.2641,-0.0199 0.3173,0.0114c0.2176,0.1292 0.4494,0.2309 0.6669,0.361c0.1634,0.0979 -0.2014,0.0485 -0.2546,0.0266c-0.3106,-0.1377 -0.6156,-0.2764 -0.8854,-0.4864c-0.094,-0.0722 0.2679,-0.0142 0.3164,0.0124c0.2242,0.1197 0.4455,0.227 0.646,0.3819c0.0893,0.0674 -0.2603,0.0228 -0.3164,-0.0124c-0.246,-0.1539 -0.5082,-0.2802 -0.7552,-0.4351c0.0969,-0.0028 0.1938,-0.0057 0.2907,-0.0085c0.1254,0.0769 0.2574,0.1387 0.3961,0.19c-0.0703,0.0152 -0.1396,0.0285 -0.2099,0.0446c-0.171,-0.1035 -0.3382,-0.1871 -0.4769,-0.3315c-0.096,-0.0979 0.2498,-0.02 0.2802,-0.0076c0.1245,0.0522 0.229,0.1168 0.3363,0.1985c0.0922,0.0684 -0.2622,0.019 -0.3163,-0.0114c-0.1197,-0.0693 -0.228,-0.1406 -0.3363,-0.2261c-0.0865,-0.0646 0.2574,-0.0275 0.3163,0.0133c0.0637,0.0437 0.095,0.0656 0.1492,0.1245c0.0902,0.0959 -0.2727,0.0152 -0.3164,-0.0124c-0.0788,-0.0437 -0.1529,-0.0921 -0.2242,-0.1453c0.1045,0.0038 0.2109,0.0076 0.3164,0.0114c0.0598,0.0693 0.1263,0.1377 0.1957,0.1985c0.0921,0.0874 -0.2708,0.0162 -0.3164,-0.0114c-0.0845,-0.0484 -0.17,-0.0959 -0.2565,-0.1396c-0.208,-0.1083 0.0865,-0.0979 0.1748,-0.0627c0.1397,0.056 0.2822,0.1083 0.4218,0.1653c-0.0589,0.0199 -0.1149,0.0427 -0.1738,0.0627c-0.1387,-0.0656 -0.2347,-0.1254 -0.323,-0.2527c-0.039,-0.0542 0.1387,-0.0361 0.151,-0.0333c0.1349,0.0285 0.2537,0.0599 0.3848,0.1036c0.1035,0.0332 0.1833,0.132 0.018,0.1149c-0.1558,-0.0171 -0.2983,-0.0456 -0.4474,-0.094c-0.1055,-0.0314 -0.1834,-0.133 -0.019,-0.115c0.0969,0.0114 0.1919,0.02 0.2897,0.0219c0.0684,0.0503 0.1387,0.0997 0.2071,0.1501c-0.1396,-0.0095 -0.2736,-0.0247 -0.4123,-0.0447c-0.0285,-0.0028 -0.3154,-0.1187 -0.1919,-0.1396c0.1777,-0.0314 0.3382,-0.0618 0.5083,-0.1311c0.1121,0.0465 0.2242,0.0921 0.3363,0.1377c-0.1663,0.02 -0.324,0.058 -0.4864,0.1017c-0.0931,-0.0494 -0.1853,-0.0988 -0.2793,-0.1482c0.2232,-0.0219 0.4455,-0.0599 0.6669,-0.0836c0.0617,-0.0057 0.398,0.1197 0.2793,0.1482c-0.2223,0.056 -0.4351,0.1254 -0.6508,0.2071c-0.0912,0.0342 -0.4066,-0.1045 -0.3581,-0.1283c0.4997,-0.2479 1.044,-0.4303 1.5941,-0.5206c0.1035,0.0475 0.208,0.096 0.3116,0.1435c-0.6128,0.0788 -1.1942,0.3021 -1.8117,0.3505c-0.0788,0.0067 -0.4351,-0.1368 -0.247,-0.151c0.5947,-0.0466 1.1562,-0.2679 1.7471,-0.343c0.0836,-0.0123 0.4161,0.1264 0.3125,0.1435c-0.5367,0.0883 -1.0621,0.2631 -1.5485,0.5035c-0.1187,-0.0428 -0.2384,-0.0855 -0.3581,-0.1283c0.2289,-0.0864 0.4569,-0.1634 0.6954,-0.2223c0.094,0.0485 0.1862,0.0988 0.2793,0.1473c-0.2214,0.0218 -0.4437,0.0608 -0.666,0.0836c-0.0608,0.0066 -0.399,-0.1159 -0.2793,-0.1482c0.1615,-0.0437 0.3183,-0.0808 0.4855,-0.1007c0.0627,-0.0086 0.3952,0.113 0.3353,0.1368c-0.1805,0.0731 -0.361,0.114 -0.5548,0.1472c-0.0617,-0.0465 -0.1282,-0.094 -0.1909,-0.1406c0.1045,0.0162 0.2118,0.0257 0.3163,0.0314c0.0637,0.0047 0.3924,0.152 0.2071,0.1501c-0.1254,0 -0.246,-0.0114 -0.3714,-0.0247c-0.0067,-0.039 -0.0124,-0.077 -0.0181,-0.115c0.0504,0.0086 0.0998,0.0171 0.152,0.0247c0.0057,0.039 0.0114,0.077 0.0181,0.1159c-0.0599,-0.018 -0.1226,-0.0332 -0.1834,-0.0503c0.0504,-0.0124 0.0998,-0.0219 0.1501,-0.0342c0.057,0.0465 0.1102,0.0921 0.1672,0.1387c0.2119,0.1007 -0.0874,0.0988 -0.1748,0.0636c-0.1396,-0.057 -0.2821,-0.1092 -0.4227,-0.1653c0.0598,-0.0209 0.1159,-0.0427 0.1748,-0.0636c0.1102,0.0589 0.2204,0.114 0.3277,0.1786c-0.1045,-0.0048 -0.2109,-0.0095 -0.3163,-0.0133c-0.0684,-0.0608 -0.1349,-0.1283 -0.1957,-0.1986c-0.0865,-0.0921 0.2688,-0.0209 0.3163,0.0124c0.0713,0.0541 0.1463,0.1026 0.2242,0.1463c-0.1045,-0.0038 -0.2109,-0.0076 -0.3163,-0.0114c-0.0323,-0.0285 -0.0646,-0.058 -0.0969,-0.0865c0.1045,0.0038 0.2118,0.0076 0.3163,0.0114c0.0903,0.0713 0.1843,0.134 0.285,0.1872c-0.1045,-0.0038 -0.2118,-0.0076 -0.3163,-0.0114c-0.0713,-0.0409 -0.1416,-0.0827 -0.2128,-0.1226c0.094,-0.0028 0.1862,-0.0057 0.2802,-0.0085c0.1226,0.1263 0.2746,0.2014 0.4228,0.2926c0.1577,0.0969 -0.1615,0.0646 -0.21,0.0456c-0.1947,-0.077 -0.38,-0.1511 -0.5567,-0.2632c-0.1586,-0.1007 0.2233,-0.0494 0.2898,-0.0085c0.247,0.1548 0.5092,0.2812 0.7552,0.436c-0.1054,-0.0038 -0.2109,-0.0076 -0.3163,-0.0114c-0.1815,-0.1406 -0.3905,-0.2365 -0.5919,-0.3439c0.1055,0.0038 0.2119,0.0076 0.3164,0.0114c0.2289,0.1796 0.4959,0.2936 0.76,0.4095c-0.0855,0.0085 -0.1701,0.018 -0.2546,0.0256c-0.2176,-0.1292 -0.4494,-0.2308 -0.6669,-0.36c0.1045,0.0038 0.2109,0.0076 0.3163,0.0114c0.2318,0.1814 0.495,0.3011 0.76,0.4246c0.229,0.1064 -0.132,0.0836 -0.2175,0.0466c-0.3781,-0.1653 -0.7543,-0.2945 -1.0555,-0.5862c-0.0845,-0.0826 0.2822,-0.018 0.342,0.0295c0.4513,0.3591 0.9766,0.6507 1.5343,0.8037c-0.0532,0.019 -0.1055,0.0389 -0.1596,0.0589c-0.3468,-0.1976 -0.7144,-0.3525 -1.046,-0.5776c0.1055,0.0047 0.2119,0.0085 0.3164,0.0123c0.1529,0.1672 0.3762,0.2261 0.5728,0.3249c0.2261,0.1121 -0.132,0.0855 -0.2175,0.0466c-0.153,-0.0703 -0.3088,-0.1292 -0.4646,-0.19c0.0589,-0.0209 0.1159,-0.0437 0.1748,-0.0637c0.115,0.0599 0.2271,0.1273 0.342,0.1862c-0.0845,0.0095 -0.17,0.019 -0.2546,0.0276c-0.0874,-0.058 -0.1786,-0.1093 -0.2726,-0.1549c0.094,-0.0019 0.1862,-0.0047 0.2802,-0.0076c0.0542,0.0314 0.1074,0.0618 0.1606,0.0931c-0.0846,0.0086 -0.1691,0.0181 -0.2537,0.0266c-0.0494,-0.0256 -0.095,-0.0551 -0.1387,-0.0883c-0.151,-0.1064 0.1606,-0.0646 0.21,-0.0447c0.095,0.0371 0.1748,0.0694 0.265,0.1159c0.2147,0.1055 -0.0902,0.0912 -0.1748,0.0627c-0.0969,-0.0323 -0.1909,-0.0617 -0.2859,-0.094c-0.1615,-0.0513 -0.1378,-0.1454 0.0275,-0.1083c0.1444,0.0313 0.2603,0.0684 0.3971,0.1244c0.2176,0.0893 -0.0874,0.095 -0.1738,0.0637c-0.058,-0.0181 -0.1131,-0.0333 -0.1691,-0.0504c0.0418,-0.0266 0.0826,-0.0541 0.1244,-0.0798c0.0874,0.038 0.1568,0.0722 0.2404,0.1188c0.1615,0.0883 -0.2233,0.0446 -0.2898,0.0085c-0.0817,-0.0437 -0.1615,-0.0864 -0.2413,-0.1301c-0.1596,-0.0874 0.1625,-0.0646 0.2119,-0.0456c0.0959,0.037 0.1909,0.0722 0.2878,0.1092c0.21,0.0817 0.0751,0.1463 -0.0807,0.0988c-0.3971,-0.1206 -0.7477,-0.3287 -1.0507,-0.6127c-0.0722,-0.0751 0.284,-0.0314 0.3496,0.0304zM257.99707,105.47864c-0.1862,-0.001 -0.3629,-0.0314 -0.5443,-0.0504c-0.0941,-0.0104 -0.4161,-0.1691 -0.1653,-0.1491c0.1871,0.0152 0.3724,0.0418 0.5557,0.0779c0.0903,0.0171 0.3534,0.171 0.1188,0.1425c-0.1397,-0.019 -0.2803,-0.039 -0.419,-0.058c-0.0931,-0.0104 -0.418,-0.171 -0.1662,-0.1482c0.1795,0.0181 0.3562,0.0447 0.5339,0.0789c0.0066,0.0418 0.0133,0.0836 0.0209,0.1263c-0.1273,-0.0323 -0.2546,-0.0655 -0.38,-0.1026c0.0266,-0.0332 0.0541,-0.0655 0.0798,-0.0988c0.1159,0.0447 0.2337,0.0789 0.3534,0.1064c0.0494,0.0133 0.2783,0.1264 0.1083,0.133c-0.2461,0.0105 -0.4655,-0.019 -0.6973,-0.1045c-0.1007,-0.037 -0.1862,-0.133 -0.0181,-0.1149c0.1501,0.0133 0.2974,0.0332 0.4456,0.0636c0.0893,0.0171 0.3572,0.1501 0.1187,0.1406c-0.8654,-0.0304 -1.6549,-0.4151 -2.2334,-1.0564c-0.076,-0.0855 0.284,-0.0351 0.3429,0.0304c0.4589,0.5092 1.0232,0.8522 1.7233,0.8778c0.0399,0.0475 0.0789,0.095 0.1188,0.1416c-0.1159,-0.0266 -0.2328,-0.0428 -0.3515,-0.0513c-0.0057,-0.038 -0.0133,-0.077 -0.019,-0.115c0.1064,0.0124 0.2147,0.0228 0.3211,0.0361c0.0361,0.0437 0.0712,0.0884 0.1083,0.1321c-0.1558,-0.039 -0.305,-0.0827 -0.4541,-0.1387c-0.2147,-0.077 -0.0751,-0.1425 0.0798,-0.0979c0.1254,0.0371 0.2527,0.0703 0.379,0.1026c0.1549,0.039 0.2432,0.1682 0.02,0.1245c-0.1454,-0.0276 -0.2926,-0.0523 -0.4399,-0.0656c-0.057,-0.0494 -0.1102,-0.0978 -0.1672,-0.1482c0.1406,0.0181 0.2812,0.038 0.4199,0.057c0.0399,0.0466 0.0789,0.0941 0.1188,0.1406c-0.153,-0.0285 -0.3059,-0.0513 -0.4617,-0.0627c-0.0551,-0.0503 -0.1093,-0.0997 -0.1653,-0.1491c0.1463,0.0161 0.3268,0.0475 0.4664,0.0484c0.0789,0.001 0.4332,0.153 0.2489,0.1511zM256.38016,104.66634c0.0295,0.0371 0.0665,0.0656 0.096,0.1026c-0.1245,-0.0285 -0.2499,-0.057 -0.3762,-0.0855c0.0038,-0.037 0.0123,-0.0731 0.0152,-0.1102c0.0047,-0.0551 0.1824,-0.0123 0.2052,-0.0057c0.1928,0.0551 0.3828,0.1416 0.475,0.3306c0.0399,0.0827 -0.3002,-0.0085 -0.3325,-0.0285c-0.1368,-0.0912 -0.3002,-0.1757 -0.3496,-0.3429c-0.0209,-0.0732 0.3467,-0.0266 0.3743,0.0674c0.0399,0.1349 0.1548,0.1938 0.265,0.266c-0.1111,-0.0095 -0.2213,-0.019 -0.3325,-0.0285c-0.0256,-0.0541 -0.0674,-0.132 -0.1311,-0.1491c0.0684,-0.0019 0.1378,-0.0038 0.2052,-0.0057c-0.0038,0.037 -0.0114,0.0731 -0.0142,0.1102c-0.0067,0.0931 -0.342,-0.0418 -0.3762,-0.0865c-0.0285,-0.0361 -0.0665,-0.0636 -0.096,-0.1007c-0.0418,-0.0541 0.1425,-0.0361 0.1511,-0.0342c0.075,0.0124 0.1719,0.039 0.2213,0.1007zM258.28307,105.64964c-0.5928,-0.1929 -1.2426,-0.2565 -1.8107,-0.5197c-0.4579,-0.2118 -0.742,-0.5975 -1.1353,-0.8987c-0.0788,-0.0589 0.2727,-0.0228 0.343,0.0304c0.4066,0.3126 0.6555,0.6888 1.1628,0.8788c0.5063,0.19 1.0554,0.2593 1.5703,0.4275c0.2575,0.0836 0.0124,0.1292 -0.1301,0.0817z" fill="#000000" stroke-width="0.95"/><path d="M233.83333,128.75938c-0.4,4.11926 -5.1,5.12396 -5.1,5.12396c1.1,-0.40188 2.1,-2.10987 2.1,-2.10987c-2.9,3.21504 -6.5,0.50235 -6.5,0.50235c1,0.30141 4.1,0.30141 3.8,-2.91362c-0.3,-3.21504 1.7,-4.32021 3.6,-3.91832c1.8,0.40188 2.3,2.10986 2.1,3.3155z" fill="#3d241b" stroke-width="1"/><path d="M224.33333,132.3763c0,0 0.2,0 0.4,0.10047c0.3,0 0.7,0 1.1,-0.10047c0.4,-0.10047 0.9,-0.50235 1.2,-0.90423c0.2,-0.20094 0.3,-0.50235 0.5,-0.70329c0.1,-0.20094 0.2,-0.50234 0.2,-0.80375c0.1,-0.60282 0,-1.30611 0.1,-1.90893c0.1,-0.70329 0.5,-1.30611 0.9,-1.60752c0.4,-0.30141 0.8,-0.50235 1.1,-0.60282c0.3,-0.10047 0.4,-0.10047 0.4,-0.10047c0,0 -0.1,0.10047 -0.4,0.20094c-0.2,0.10047 -0.6,0.40188 -0.9,0.70329c-0.3,0.30141 -0.5,0.80376 -0.6,1.40658c0,0.60282 0,1.20564 0,2.0094c0,0.40188 -0.1,0.70328 -0.3,1.10516c-0.2,0.30141 -0.4,0.60282 -0.6,0.80376c-0.5,0.50235 -1,0.80375 -1.6,0.90422c-0.5,0.10047 -1,0 -1.3,-0.10047c0,-0.30141 -0.2,-0.40187 -0.2,-0.40187z" fill="#241510" stroke-width="1"/><path d="M243.83333,91.28415c3.6,5.52584 -4.4,11.55403 -4.4,11.55403c3.1,7.23382 -2.9,10.14745 -2.9,10.14745c1.5,3.91832 -1.4,7.43476 -1.4,7.43476c0.9,6.02819 -4.2,5.82725 -4.2,5.82725c-2.3,-3.71738 0.4,-5.82725 0.4,-5.82725c-3.4,-5.12396 0.7,-7.73618 0.7,-7.73618c-3.2,-7.03288 1.4,-9.44416 1.4,-9.44416c-5.6,-6.63101 1.12222,-13.28434 1.12222,-13.28434c1.38216,-1.31923 9.33843,-4.56754 11.80933,-3.31428c1.1045,0.56021 -3.64365,2.93568 -2.53155,4.64271z" fill="#3d241b" stroke-width="1"/><path d="M236.73333,93.29355c0,0 0.4,0.30141 0.9,0.80376c0.5,0.60282 1,1.50704 1.2,2.41127c0.1,0.50235 0.2,1.0047 0.2,1.40658c0,0.50235 0,0.90422 -0.1,1.30611c0,0.40188 -0.1,0.70329 -0.2,0.90423c-0.1,0.20094 -0.1,0.30141 -0.1,0.30141c0,0 0,-0.10047 0,-0.30141c0,-0.20094 0,-0.50235 -0.1,-0.90423c-0.1,-0.70329 -0.2,-1.60752 -0.4,-2.51175c-0.1,-0.40188 -0.3,-0.90422 -0.4,-1.30611c-0.2,-0.40188 -0.3,-0.80376 -0.5,-1.10517c-0.2,-0.60282 -0.5,-1.0047 -0.5,-1.0047z" fill="#241510" stroke-width="1"/><path d="M238.73333,97.1114c0,0 0.1,-0.30141 0.2,-0.70329c0.2,-0.40188 0.5,-0.90422 0.9,-1.30611c0.4,-0.40188 0.9,-0.70329 1.3,-0.90423c0.4,-0.20094 0.7,-0.20094 0.7,-0.20094c0,0 0,0.10047 -0.1,0.10047c-0.1,0.10047 -0.2,0.20094 -0.4,0.40188c-0.3,0.30141 -0.7,0.70329 -1.1,1.0047c-0.4,0.40188 -0.8,0.80375 -1.1,1.00469c-0.1,0.40188 -0.4,0.60282 -0.4,0.60282z" fill="#241510" stroke-width="1"/><path d="M236.03333,104.84757c0,0 0.3,0.20094 0.7,0.70329c0.4,0.40188 0.8,1.10516 1,1.90892c0.1,0.40188 0.1,0.80375 0.1,1.20564c0,0.20094 0,0.40188 0,0.50235c0,0.20094 -0.1,0.30141 -0.1,0.50235c-0.1,0.30141 -0.2,0.50235 -0.3,0.70329c-0.1,0.20094 -0.1,0.20094 -0.1,0.20094c0,0 0,-0.40188 0,-0.90423c0,-0.60282 -0.1,-1.30611 -0.2,-2.00939c-0.2,-0.70329 -0.4,-1.40658 -0.7,-1.90893c-0.2,-0.60282 -0.4,-0.90422 -0.4,-0.90422z" fill="#241510" stroke-width="1"/><path d="M238.43333,106.25415c0,0 0,0.10047 0,0.30141c0,0.10047 0,0.20094 -0.1,0.30141c0,0.10047 -0.1,0.20094 -0.1,0.30141c-0.1,0.10047 -0.1,0.20094 -0.2,0.30141c-0.1,0.10047 -0.1,0.20094 -0.2,0.20094c-0.1,0.10047 -0.2,0.20094 -0.2,0.20094c0,0 0,-0.10047 0,-0.30141c0,-0.10047 0,-0.20094 0.1,-0.30141c0,-0.10047 0.1,-0.20094 0.1,-0.30141c0.1,-0.10047 0.1,-0.20094 0.2,-0.30141c0.1,-0.10047 0.1,-0.20094 0.2,-0.20094c0.1,-0.20094 0.2,-0.20094 0.2,-0.20094z" fill="#241510" stroke-width="1"/><path d="M233.13333,113.58844c0,0 0.3,0.20094 0.6,0.70329c0.2,0.20094 0.4,0.50235 0.5,0.80376c0.2,0.30141 0.3,0.60281 0.5,0.90422c0.1,0.30141 0.2,0.70329 0.3,1.0047c0.1,0.30141 0.1,0.70329 0.1,0.90423c0,0.30141 -0.1,0.50234 -0.1,0.60281c0,0.20094 -0.1,0.20094 -0.1,0.20094c0,0 0,-0.10047 0,-0.20094c0,-0.20094 0,-0.40187 -0.1,-0.60281c0,-0.30141 -0.1,-0.50235 -0.2,-0.90423c-0.1,-0.30141 -0.2,-0.60282 -0.3,-0.90423c-0.2,-0.60282 -0.5,-1.3061 -0.8,-1.70798c-0.2,-0.50235 -0.4,-0.80376 -0.4,-0.80376z" fill="#241510" stroke-width="1"/><path d="M235.53333,115.29643c0,0 0,0.10046 -0.1,0.30141c0,0.10047 0,0.20094 -0.1,0.20094c0,0.10047 -0.1,0.20094 -0.1,0.20094c-0.1,0.10047 -0.1,0.10047 -0.2,0.20094c0,0.10047 -0.1,0.10047 -0.2,0.20094c-0.1,0.10047 -0.2,0.20094 -0.2,0.20094c0,0 -0.1,-0.10047 -0.1,-0.30141c0,-0.10047 0,-0.20094 0.1,-0.30141c0,-0.10047 0.1,-0.20094 0.1,-0.30141c0.1,-0.10047 0.1,-0.20094 0.2,-0.20094c0.1,-0.10047 0.1,-0.10047 0.2,-0.20094c0.3,0.10047 0.4,0 0.4,0z" fill="#241510" stroke-width="1"/><path d="M232.93333,120.82227c0,0 0.2,0.20094 0.3,0.60282c0.1,0.40188 0.2,1.0047 0.2,1.60752c0,0.30141 -0.1,0.60282 -0.2,0.80376c-0.1,0.30141 -0.2,0.50235 -0.3,0.70329c-0.1,0.20094 -0.2,0.30141 -0.3,0.40188c-0.1,0.10047 -0.1,0.10047 -0.1,0.10047c0,0 0,-0.10047 0.1,-0.20094c0,-0.10047 0.1,-0.30141 0.1,-0.50235c0.1,-0.20094 0.1,-0.40188 0.2,-0.70329c0.1,-0.20094 0.1,-0.50234 0.1,-0.80375c0,-0.30141 0,-0.50235 0,-0.80376c0,-0.30141 0,-0.50235 0,-0.70329c0,-0.20094 -0.1,-0.50235 -0.1,-0.50235z" fill="#241510" stroke-width="1"/><path d="M234.43333,121.92744c0,0 0,0.10047 -0.1,0.20094c0,0.10047 -0.1,0.10047 -0.1,0.20094c-0.1,0.10047 -0.1,0.10047 -0.2,0.20094c-0.1,0.10047 -0.2,0.10047 -0.2,0.20094c-0.1,0.10047 -0.2,0.10047 -0.2,0.10047c-0.1,0.10047 -0.3,0.10046 -0.3,0.10046c0,0 0,-0.10046 0.1,-0.30141c0,-0.10047 0.1,-0.10047 0.1,-0.20094c0.1,-0.10047 0.1,-0.10047 0.2,-0.20094c0.1,-0.10047 0.2,-0.10047 0.2,-0.20094c0.1,-0.10047 0.2,-0.10047 0.2,-0.10047c0.1,0 0.3,0 0.3,0z" fill="#241510" stroke-width="1"/><path d="M239.53333,102.83818c0,0 0.5,0.60281 0.9,1.60751c0.1,0.30141 0.2,0.60282 0.3,0.90423c0.1,0.30141 0.1,0.70328 0.2,1.00469c0,0.40188 0,0.70329 0,1.10517l-0.1,0.60282l-0.1,0.60281c-0.1,0.40188 -0.3,0.70329 -0.4,1.10517c-0.2,0.30141 -0.4,0.60281 -0.6,0.90422c-0.2,0.30141 -0.5,0.50235 -0.7,0.80376c-0.2,0.20094 -0.5,0.40188 -0.7,0.60282c-0.4,0.40188 -0.9,0.50235 -1.1,0.70329c-0.3,0.20094 -0.5,0.20094 -0.5,0.20094c0,0 0.1,-0.10047 0.4,-0.30141c0.2,-0.20094 0.6,-0.50235 1,-0.90423c0.2,-0.20094 0.4,-0.40188 0.6,-0.60282c0.2,-0.20094 0.4,-0.50234 0.6,-0.80375c0.2,-0.30141 0.3,-0.60282 0.5,-0.90423c0.1,-0.30141 0.3,-0.60282 0.4,-1.0047l0.1,-0.50234l0.1,-0.50235c0.1,-0.30141 0,-0.70329 0.1,-1.0047c0,-0.30141 0,-0.70328 -0.1,-1.00469c0,-0.30141 -0.1,-0.60282 -0.1,-0.90423c-0.1,-0.50235 -0.2,-1.00469 -0.3,-1.30611c-0.5,-0.30141 -0.5,-0.40188 -0.5,-0.40188z" fill="#241510" stroke-width="1"/><path d="M232.03333,112.68422c0,0 -0.4,0.40188 -0.8,1.0047c-0.2,0.30141 -0.4,0.70329 -0.6,1.20564c-0.1,0.20094 -0.1,0.50235 -0.2,0.70329c0,0.20094 -0.1,0.50235 -0.1,0.70329c0,0.30141 0,0.50235 0,0.80376c0,0.20094 0,0.50235 0.1,0.70329c0.1,0.20094 0.1,0.50234 0.2,0.70328c0.1,0.20094 0.1,0.40188 0.2,0.60282c0.1,0.40188 0.2,0.70329 0.3,0.90423c0.1,0.20094 0.1,0.40188 0.1,0.40188c0,0 -0.1,-0.10047 -0.2,-0.30141c-0.1,-0.20094 -0.4,-0.50235 -0.6,-0.80376c-0.2,-0.40188 -0.4,-0.80376 -0.6,-1.30611c-0.1,-0.20094 -0.1,-0.50235 -0.2,-0.80376c-0.1,-0.30141 0,-0.60282 -0.1,-0.80376c0,-0.60282 0.1,-1.10516 0.4,-1.60752c0.2,-0.50235 0.5,-0.90423 0.8,-1.20564c0.8,-0.80376 1.3,-0.90423 1.3,-0.90423z" fill="#241510" stroke-width="1"/><path d="M235.13333,120.42039c0,0 0.2,0.50235 0.3,1.30611c0,0.40188 0.1,0.90422 0,1.40658c0,0.30141 -0.1,0.50235 -0.2,0.80376c-0.1,0.20094 -0.2,0.50235 -0.4,0.70329c-0.1,0.20094 -0.3,0.50235 -0.5,0.60282c-0.2,0.20094 -0.4,0.3014 -0.6,0.50234c-0.2,0.10047 -0.5,0.20094 -0.7,0.30141c-0.2,0.10047 -0.4,0.10047 -0.6,0.10047c-0.4,0.10047 -0.7,0 -1,0c-0.2,0 -0.4,0 -0.4,0c0,0 0.1,0 0.3,-0.10047c0.2,-0.10047 0.5,-0.10047 0.9,-0.30141c0.2,-0.10047 0.4,-0.10047 0.5,-0.20094c0.2,-0.10047 0.4,-0.20094 0.6,-0.30141c0.2,-0.10047 0.4,-0.30141 0.5,-0.40188c0.2,-0.20094 0.3,-0.30141 0.4,-0.50235c0.2,-0.20094 0.2,-0.40188 0.3,-0.60282c0.1,-0.20094 0.2,-0.40188 0.2,-0.70329c0.1,-0.40188 0.2,-0.90422 0.2,-1.20564c0.2,-0.90423 0.2,-1.40658 0.2,-1.40658z" fill="#241510" stroke-width="1"/><path d="M252.48617,87.94645c-2.0919,-1.40036 -4.4783,-1.64486 -7.0015,-1.66367c-0.0741,0 -0.4294,-0.13337 -0.248,-0.13166c2.7417,0.02052 5.3352,0.31551 7.5915,1.8261c0.075,0.05048 -0.2717,0.0171 -0.342,-0.03078zM244.10047,102.35614c-0.9253,-2.28092 -1.7679,-5.34153 -0.8189,-7.71397c1.1248,-2.81781 4.6275,-4.87555 7.3036,-6.3623c0.0893,-0.05039 0.4,0.0898 0.3582,0.11374c-2.7968,1.55334 -5.9565,3.51965 -7.2846,6.34088c-1.0659,2.26472 -0.0675,5.50657 0.816,7.68491c0.0219,0.05382 -0.3391,0.01962 -0.3743,-0.06327zM242.19007,103.06311c-2.4947,-2.66815 -4.6028,-6.01601 -3.7155,-9.60927c0.684,-2.77587 3.7174,-6.27168 6.7089,-7.29416c0.1017,-0.035 0.3829,0.1043 0.3591,0.11375c-3.1274,1.06946 -5.8263,4.45151 -6.687,7.27274c-1.064,3.48212 1.3195,7.024 3.7078,9.58021c0.0171,0.0171 -0.3021,0.01368 -0.3733,-0.06327z" fill="#010101" stroke-width="0.95"/><path d="M252.34177,87.68917c-0.0751,0.04014 0.0066,0.15982 -0.0732,0.19231c-0.6593,0.26251 -1.615,0.51808 -2.2448,0.84637c-0.4684,0.24451 -0.8607,0.50188 -1.2806,0.8002c-0.4484,0.31551 -0.8683,0.42746 -1.312,0.75917c-0.4636,0.34709 -0.8445,0.68484 -1.2597,1.07639c-0.8616,0.81046 -1.899,1.50637 -2.3797,2.5887c-0.2157,0.48641 -0.285,0.9917 -0.5045,1.46784c-0.2071,0.44114 -0.2783,0.96696 -0.2688,1.444c0.0104,0.49415 0.0817,0.9549 0.0921,1.4431c0.0124,0.51466 0.2347,1.04642 0.3259,1.52086c0.1843,0.97119 0.6631,1.61238 0.8255,2.59553c-0.4446,0.09836 -0.7514,-0.00594 -1.1514,0.2428c-0.1225,0.07694 -0.4028,0.3839 -0.5358,0.39074c-0.227,0.00936 -0.5158,-0.27187 -0.5842,-0.39498c-0.2195,-0.38904 -0.3753,-0.57279 -0.6536,-0.94041c-0.2841,-0.37535 -0.6061,-0.71984 -0.8921,-1.09006c-0.6507,-0.84034 -1.1191,-1.8945 -1.4497,-2.87162c-0.3486,-1.03364 -0.7391,-2.1399 -0.5282,-3.25301c0.114,-0.59673 0.2698,-1.22253 0.4266,-1.81414c0.1748,-0.66342 0.5605,-1.20885 1.0146,-1.73972c0.3933,-0.45914 0.7343,-0.94725 1.0583,-1.45597c0.3344,-0.52663 0.8512,-0.93951 1.3366,-1.37039c0.5691,-0.50359 1.2189,-0.85834 1.8098,-1.30119c0.4161,-0.3129 0.8616,-0.57027 1.405,-0.60789c0.6137,-0.04184 1.2578,0.01287 1.8658,0.05733c0.7087,0.0521 1.4421,0.05129 2.1233,0.23847c0.4873,0.13336 1.0108,0.28212 1.4848,0.46427c0.2575,0.09917 0.4294,0.25647 0.6698,0.37958c0.2384,0.12221 0.3999,0.20428 0.6802,0.33171" fill="#9c70ff" stroke-width="0.95"/></g></g></g></svg>