<svg version="1.1" xmlns="http://www.w3.org/2000/svg" xmlns:xlink="http://www.w3.org/1999/xlink" width="100.67827" height="188.90692" viewBox="0,0,100.67827,188.90692"><g transform="translate(-190.64848,-87.81777)"><g data-paper-data="{&quot;isPaintingLayer&quot;:true}" fill-rule="nonzero" stroke="none" stroke-linecap="butt" stroke-linejoin="miter" stroke-miterlimit="10" stroke-dasharray="" stroke-dashoffset="0" style="mix-blend-mode: normal"><g><path d="M244.5325,89.5855c-0.8673,1.0288 -1.9598,2.6723 -2.299,3.742c-0.4075,1.2892 -0.5576,2.8462 -0.2242,4.1192c0.1891,0.7173 0.2831,1.559 0.609,2.2591c0.2517,0.5453 0.5158,0.9985 0.7153,1.5647c0.2423,0.683 0.8683,1.082 1.1533,1.7527c0.19786,0.46263 0.93181,0.99688 1.23048,2.19321c-0.03583,0.0187 -0.52346,1.06771 -0.57588,1.15458c-0.3715,0.6156 -0.1872,1.1628 -0.0627,1.8117c0.07395,0.38724 0.14857,0.6768 0.25469,0.94007c-1.66171,-0.06854 -3.84179,0.344 -4.20385,0.30159c-0.82894,-0.09901 -4.11033,0.34766 -5.54331,-0.65093c0.14414,-0.01053 0.30076,-0.04288 0.47056,-0.10281c1.41449,-0.49923 0.91526,-1.91372 0.91526,-1.91372c-0.17926,-0.49564 -0.31243,-0.94383 -0.41126,-1.37317c0.3997,-0.17324 0.83011,-0.54633 0.83011,-1.34983c0,-0.63595 -0.26963,-1.00229 -0.58025,-1.2133c-0.18768,-0.32727 -0.36526,-0.64438 -0.53086,-0.95293v-1.61155c0,-0.73903 -0.53446,-1.35324 -1.23795,-1.47719c-0.28214,-1.39279 -0.0523,-2.70653 0.95707,-4.16387c0.25436,-0.05849 0.49075,-0.13889 0.63764,-0.33478c0.16425,-0.21905 0.22301,-0.48301 0.24568,-0.76234c0.08868,-0.09717 0.18072,-0.19512 0.2762,-0.29392c1.28005,0.49919 1.87219,-0.78377 1.87219,-0.78377c0.22222,-0.48148 0.44445,-0.96297 0.66666,-1.44445l0.09082,-0.17999c0,0 0.01431,-0.02862 0.03456,-0.07958c1.66463,-0.9595 3.65688,-1.56198 5.57944,-2.12706c-0.28869,0.30411 -0.57556,0.62796 -0.86969,0.97628z" fill="#3d241b" stroke-width="0.95"/><path d="M264.51099,96.56629c-1.6824,-1.13465 -2.9184,-1.35238 -4.9827,-1.45588c-2.2971,-0.11599 -5.2155,0.54958 -6.9141,1.51253c-1.1286,0.64079 -1.99516,1.74493 -2.09587,3.13896c-0.0817,1.12133 0.71813,2.29847 1.10763,3.33316c0.3819,1.01429 0.60063,1.86342 0.65283,2.95475c0.0532,1.13726 -0.6992,2.5693 -1.2967,2.9632c-0.3088,-0.73377 -0.2841,-1.57635 -0.7961,-2.33126c-0.2594,-0.38151 -0.5235,-0.72846 -0.8075,-1.03646c-0.3297,-0.3611 -0.6052,-0.41774 -1.0488,-0.69119c-0.5691,-0.35142 -0.5007,-0.37881 -0.7847,-0.93379c-0.2166,-0.42744 -0.3677,-0.75231 -0.4342,-1.22577c-0.1377,-0.98512 -0.7153,-2.25961 -0.7001,-3.28359c0.0085,-0.59476 0.114,-0.21418 0.0247,-0.79926c-0.1055,-0.69566 0.0836,-1.61165 0.4332,-2.29586c0.2479,-0.48231 0.3287,-1.33114 0.7505,-1.69047c0.5149,-0.43806 0.6707,-0.46108 1.0754,-1.02575c0.702,-0.98336 1.7499,-1.58166 2.7578,-2.26847c1.0678,-0.72836 2.2572,-1.65153 3.5825,-1.94621c2.4111,-0.53635 5.6097,0.35048 7.6275,1.59395c1.7243,1.06124 2.2221,3.56503 1.92,5.42638z" fill="#3d241b" stroke-width="0.95"/><path d="M245.33349,109.12277c0.2742,0.01131 0.53428,0.03572 0.76975,0.07743c1.3405,0.2365 0.39296,1.6463 -0.06214,1.0592c-0.35187,-0.45578 -0.56016,-0.77083 -0.70761,-1.13663z" fill="#371e10" stroke-width="0.95"/><path d="M245.7694,107.66154c-0.23217,0.26616 -0.26654,-0.2386 -0.30043,-0.72469c0.10228,0.3361 0.20353,0.59652 0.30043,0.72469z" fill="#371e10" stroke-width="0.95"/><path d="M245.46897,106.93685c-0.06521,-0.21427 -0.13084,-0.4593 -0.19603,-0.72043c0.14011,-0.07309 0.16791,0.31725 0.19603,0.72043z" fill="#371e10" stroke-width="0.95"/><path d="M243.97969,122.1885c0.5329,-0.2489 0.095,-0.2413 0.5567,-0.6175c0.5263,-0.418 0.7077,-0.7448 0.7951,-1.3794c0.0494,-0.3638 0.172,-0.5301 0.3401,-0.8483c0.1634,-0.3107 0.4142,-1.1837 0.5358,-1.5295c0.2594,-0.7306 0.152,-1.3509 0.4161,-2.0891c0.514,-1.4487 1.2255,-3.2974 -0.0313,-4.8326c-0.3268,-0.399 -0.6413,-0.7524 -0.989,-1.1419c-0.417,-0.4665 -0.3648,-1.2122 -0.5158,-1.8145c-0.1359,-0.5358 -0.1748,-1.1286 -0.0589,-1.6768c0.1349,-0.6298 0.4161,-1.0298 0.7704,-1.5371c0.342,-0.4921 0.3192,-0.5842 0.9595,-0.6754c0.5045,-0.0713 0.9557,0.1539 1.3604,0.4161c0.6251,0.4066 1.4488,0.9604 1.7157,1.6805c0.1682,0.4541 0.6973,0.9006 0.7866,1.3747c0.0779,0.4113 0.1843,1.0554 0.494,1.3623c0.6641,-0.5634 0.7657,-1.7499 0.799,-2.5365c0.1833,-0.0836 0.0883,-0.2622 0.0931,-0.4247c0.0038,-0.1368 0.2166,-1.2112 -0.0228,-1.2834c-0.0266,-0.3002 -0.1805,-0.3705 -0.1853,-0.6698c-0.0104,0.0048 -0.0912,-0.0161 -0.1016,-0.0085c0.0057,-0.3116 -0.0855,-0.4665 -0.095,-0.7771c-0.1368,-0.0447 -0.1682,-0.2508 -0.3211,-0.2689c-0.0133,-0.151 -0.2119,-0.456 -0.2736,-0.5947c-0.1454,-0.3239 -0.5339,-0.8768 -0.609,-1.1238c-0.0199,-0.3002 0.0694,-0.3135 0.0466,-0.6137c-0.0808,-0.0903 -0.4199,-0.5073 -0.0988,-0.5054c-0.0257,-0.3002 -0.1131,-0.2318 -0.1036,-0.533c-0.3087,0.3743 0.0238,-0.4104 0.001,-0.3971c-0.0276,-0.3011 0.2812,-0.5405 0.1368,-0.7999c0.0522,-0.0437 -0.0171,-0.4541 0.0294,-0.4075c-0.0009,-0.552 0.5729,-0.3449 0.609,-0.8959c-0.1159,0.5225 0.6526,-0.8094 0.7571,-0.8597c0.2926,-0.1397 0.3344,-0.3582 0.6137,-0.5111c0.343,-0.1872 0.5206,-0.3506 0.8522,-0.5434c0.3819,-0.2223 1.0155,-0.4541 1.4402,-0.6223c0.3781,-0.152 1.0098,-0.2584 1.4145,-0.3163c0.6327,-0.0903 1.0678,0.0104 1.7024,-0.0608c0.9329,-0.1055 2.0976,-0.0722 3.0286,-0.0589c0.3449,0.0047 0.8142,0.2061 1.1628,0.2736c0.3154,0.0627 0.5273,0.1406 0.8218,0.2859c0.5747,0.2822 1.0393,0.3506 1.5342,0.7866c0.2983,0.2613 0.3325,0.8332 0.5311,1.1609c0.1216,0.2024 0.2973,0.5273 0.3762,0.7429c0.0874,0.2404 0.1396,0.5149 0.2954,0.7173c0.2594,0.341 0.3449,0.7514 0.4266,1.1894c0.1415,0.7714 0.2707,1.7945 0,2.5517c-0.057,0.1577 0.0836,0.3068 0.0142,0.4721c-0.0807,0.1929 -0.208,0.3876 -0.265,0.5909c-0.1121,0.4028 -0.1387,0.8408 -0.267,1.2445c-0.2071,0.6555 -0.5358,1.3082 -0.5054,2.0482c0.0304,0.7429 0.1729,1.2512 0.609,1.8525c0.1976,0.2746 0.2859,0.6669 0.5063,0.9139c0.2166,0.2404 0.4551,0.6489 0.6774,0.8816c0.4123,0.4323 1.2834,0.7334 1.2112,1.4136c-0.0313,0.2879 -0.2593,0.5748 -0.4294,0.7952c-0.2118,0.2764 -0.5586,0.5548 -0.873,0.645c-0.4456,0.1254 -0.8541,0.1245 -1.0308,0.5852c-0.1339,0.3487 -0.0598,0.5254 0.0152,0.8892c0.0836,0.4057 0.3629,0.7534 0.3145,1.1989c-0.0656,0.5938 -0.6185,1.0165 -1.0707,1.1248c0.418,0.3791 0.2869,1.2075 -0.0703,1.5191c-0.4826,0.4218 -1.1694,0.1634 -1.6169,0.5994c-0.7932,0.7752 -0.3752,1.8753 -0.8759,2.7512c-1.0972,1.9171 -3.3981,0.7163 -4.8497,0.3648c-0.1055,-0.0997 -1.7566,-0.741 -1.8753,-0.5956c-0.1729,0.2109 -0.2413,0.323 -0.4741,0.3277c-0.0399,0.2907 -0.0171,0.2936 -0.0579,0.5843c-0.229,0.0066 -0.2071,0.2973 -0.438,0.3591c-0.0437,0.2983 -0.2289,0.3087 -0.2574,0.6089c-0.0124,-0.0351 -0.0209,-0.0703 -0.0266,-0.1064c-0.0428,0.285 -0.2271,0.1017 -0.285,0.3848c-0.0713,-0.0399 -0.3819,0.4161 -0.1967,0.5681c-0.0551,0.285 -0.2489,5.3409 0.1311,5.8586c-0.0541,-0.1463 -0.2812,0.1283 -1.0165,-0.2622c-0.0541,-0.0294 -0.7011,-0.4265 -0.7381,-0.455c-0.2204,-0.1786 -0.5615,-0.3012 -0.551,-0.476c-0.019,0.361 -0.4009,-0.8113 -0.4209,-0.4503c0.0162,-0.0513 -0.2498,-0.532 -0.2403,-0.5785c-0.2423,-0.2955 -0.456,-0.7049 -0.8113,-0.9111c-0.4161,-0.2432 -0.2755,-0.418 -0.6755,-0.6849c-0.5899,-0.3933 -0.6127,-0.5168 -1.2663,-0.8161c-0.6612,-0.304 -0.6061,-0.4427 -1.3148,-0.5443c-0.381,-0.057 -0.5444,-0.1881 -0.9215,-0.2489c-0.4456,-0.0703 -0.4047,-0.0874 -0.7619,-0.2641c-0.476,-0.2347 -0.9234,-0.5206 -1.5162,-1.0707c-0.988,-0.9215 0.6013,-0.3933 0.2242,-0.7049" fill="#ffbb80" stroke-width="0.95"/><path d="M263.52299,104.8434c-0.151,0.1197 -0.2907,0.2014 -0.4769,0.266c-0.1548,0.0532 -0.304,0.1197 -0.456,0.1786c-0.0883,0.0342 -0.1501,0.0599 -0.2099,0.1397c-0.0627,0.0826 -0.0703,0.2375 -0.1083,0.341c-0.0456,0.1273 -0.0171,0.2204 -0.0114,0.3534c0.0114,0.2176 0.1054,0.4142 0.151,0.6223c0.0228,0.1121 0.0589,0.19 0.1254,0.2888c0.0589,0.0893 0.1178,0.1586 0.1919,0.2337c0.0466,0.0465 0.077,0.0902 0.1368,0.1216c0.0399,0.0209 0.1387,0.0256 0.1577,0.0703c0.0437,0.0969 -0.2223,0.0513 -0.2669,0.0494c-0.3506,-0.0171 -0.6821,-0.0931 -1.0194,-0.1748c-0.1966,-0.0475 -0.5092,-0.21 -0.7001,-0.2698c-0.2033,-0.0637 -0.4921,-0.1967 -0.7002,-0.2689c-0.2451,-0.0845 -0.2574,-0.0199 -0.4769,-0.1586c-0.0731,-0.0456 -0.1672,-0.1093 -0.1719,-0.2071c-0.0038,-0.0732 0.0418,-0.1026 0.0817,-0.1596c0.0418,-0.0589 -0.1387,-0.1796 -0.0979,-0.2356c0.0722,-0.0998 0.4199,-0.1245 0.5273,-0.1758c0.3686,-0.1786 0.7676,-0.2983 1.159,-0.4113c0.3714,-0.1045 0.7486,-0.19 1.1162,-0.305c0.2138,-0.0665 0.4351,-0.1026 0.6498,-0.1691c0.1311,-0.0408 0.2632,-0.1026 0.3952,-0.1349" fill="#ffffff" stroke-width="0.95"/><path d="M262.3384,105.3507c0.0978,-0.0123 0.1738,-0.1007 0.2555,-0.1482c0.0874,-0.0513 0.1815,-0.0826 0.2803,-0.1102c0.1843,-0.0513 0.3933,-0.0864 0.5852,-0.0988c0.1026,-0.0085 0.1615,0.0143 0.2232,0.1045c0.0941,0.1397 0.1957,0.2622 0.2594,0.4209c0.0522,0.1273 0.1149,0.2403 0.1444,0.3762c0.0275,0.1282 0.0142,0.2622 0.0142,0.3933c0,0.3135 -0.1605,0.5719 -0.3258,0.8293c-0.1501,0.2356 -0.3278,0.3126 -0.6004,0.2983c-0.0903,-0.0038 -0.1739,-0.0294 -0.2584,-0.0646c-0.1292,-0.0541 -0.1976,-0.17 -0.3135,-0.2413c-0.0722,-0.0446 -0.1064,-0.0522 -0.1406,-0.1349c-0.0352,-0.0845 -0.0779,-0.1729 -0.0998,-0.2631c-0.0864,-0.343 -0.2128,-0.7467 -0.1216,-1.1011c0.0266,-0.1045 0.0523,-0.1833 0.115,-0.2679" fill="#371e10" stroke-width="0.95"/><path d="M248.2461,104.586c-1.5276,-1.2664 -2.4824,0.5044 -2.8909,1.5418c-0.3249,0.8256 -0.2413,1.7357 0.0067,2.565c0.2859,0.9529 1.0032,1.7404 1.71,2.4035c0.2945,0.2736 0.6118,0.5111 0.9481,0.7249c1.0982,0.6935 1.6872,-0.1625 2.0795,-0.9804c0.0561,-0.1178 0.4247,0.0066 0.3781,0.1007c-1.3395,2.7911 -4.2759,0.2546 -5.1955,-1.6217c-0.8151,-1.6653 -0.627,-3.4817 0.645,-4.8706c0.7847,-0.8569 1.843,-0.5472 2.6163,0.094c0.1644,0.1349 -0.2147,0.1112 -0.2973,0.0428zM250.0112,110.9424c0.4816,-1.0089 -1.4307,-0.6393 -1.9903,-0.7058c-0.8132,-0.095 -1.5162,-0.6451 -1.7746,-1.4184c-0.038,-0.1111 0.3382,-0.0589 0.3772,0.0561c0.4959,1.4839 1.8886,1.0469 3.0637,1.196c0.57,0.0722 0.9842,0.3857 0.703,0.9747c-0.0551,0.1159 -0.4237,-0.0076 -0.379,-0.1026zM245.8103,106.4347c0.1111,-0.8617 1.0469,-1.0241 1.7679,-0.8227c1.2911,0.3629 1.6948,1.71 2.527,2.6315c0.0988,0.1111 -0.2764,0.076 -0.3496,-0.0057c-0.5576,-0.6156 -0.9272,-1.3661 -1.462,-1.9988c-0.571,-0.6736 -1.9665,-0.7629 -2.1043,0.2973c-0.0152,0.1093 -0.3961,0.0257 -0.379,-0.1016zM264.57849,95.8051c1.215,1.8183 1.9988,3.7962 1.6777,6.004c-0.2974,2.0311 -1.7604,4.5078 -0.2974,6.4353c0.095,0.1245 -0.284,0.0827 -0.3496,-0.0057c-1.0165,-1.3423 -0.6232,-3.1787 -0.1995,-4.6588c0.4057,-1.4145 0.7211,-2.7388 0.437,-4.2161c-0.246,-1.2863 -0.8977,-2.4899 -1.6159,-3.5663c-0.0912,-0.1311 0.2869,-0.0836 0.3477,0.0076zM265.92269,108.2007c0.5168,1.1942 2.2591,1.9836 2.2838,3.3317c0.0105,0.5348 -0.5738,0.8892 -0.9794,1.0877c-0.2128,0.1045 -0.5054,0.1235 -0.7334,0.1511c-0.8522,0.1045 -0.5719,1.1428 -0.5292,1.6406c0.0124,0.1349 -0.3676,0.057 -0.3762,-0.056c-0.0399,-0.475 -0.1197,-0.9519 0.02,-1.4146c0.1349,-0.4417 1.0545,-0.4151 1.3157,-0.4911c2.3978,-0.7059 -0.9148,-3.2348 -1.3775,-4.3045c-0.0446,-0.0997 0.3268,-0.0579 0.3762,0.0551zM265.8847,112.2876c-0.5804,0.1615 -1.1485,0.5121 -1.7651,0.2917c-0.5909,-0.2119 -0.7704,-0.7249 -0.3762,-1.2303c0.0713,-0.0912 0.4361,0.0371 0.3544,0.1416c-0.3316,0.4246 -0.228,1.0383 0.4427,0.9585c0.3591,-0.0437 0.6935,-0.2356 1.0393,-0.3325c0.1045,-0.0285 0.4446,0.1321 0.3049,0.171zM262.5217,115.4682c0.7401,-0.8949 2.0824,-1.1257 3.1787,-1.1808c0.1292,-0.0067 0.4095,0.1786 0.1539,0.1919c-1.0374,0.0532 -2.2828,0.2888 -2.9782,1.1305c-0.0751,0.0893 -0.438,-0.0399 -0.3544,-0.1416zM265.96549,114.4109c1.595,2.8823 -3.6119,2.4985 -4.9296,1.3756c-0.1605,-0.1378 0.2166,-0.114 0.2983,-0.0447c1.2293,1.0469 5.6858,1.2018 4.2551,-1.387c-0.0494,-0.0855 0.3163,-0.0522 0.3762,0.0561zM265.2273,116.3973c1.1001,2.0226 -1.8031,2.3304 -3.0713,1.6283c-0.2233,-0.1235 0.1187,-0.151 0.2289,-0.0902c0.5947,0.3287 1.4032,0.3325 2.034,0.1111c0.8189,-0.2859 0.7904,-1.0469 0.4313,-1.7052c-0.0475,-0.0865 0.3182,-0.0532 0.3771,0.056zM263.84979,118.3961c-0.9196,0.3677 -0.8141,1.8069 -0.9899,2.6173c-0.1567,0.7277 -0.8075,1.1504 -1.4763,1.3395c-1.4326,0.4047 -3.1407,-0.3458 -4.4536,-0.8379c-4.047,-1.5143 -8.4673,-4.6759 -8.6041,-9.4658c-0.0029,-0.096 0.3752,-0.0333 0.3771,0.1007c0.1321,4.5372 4.294,7.7083 8.1567,9.1561c1.5761,0.5899 3.9482,1.6938 5.3219,0.2118c0.8256,-0.8911 0.0409,-2.7635 1.3623,-3.2917c0.1017,-0.0409 0.4494,0.1121 0.3059,0.17zM247.6523,111.7927c0.0504,2.0738 -0.6327,4.3643 -1.216,6.346c-0.5833,1.9798 -1.5228,3.8855 -3.1853,5.1661c-0.0988,0.076 -0.4446,-0.0732 -0.3553,-0.1406c1.6691,-1.2854 2.5431,-3.1597 3.1587,-5.1262c0.6137,-1.9523 1.2664,-4.295 1.216,-6.346c0,-0.0969 0.3781,-0.0342 0.3819,0.1007zM253.8596,129.1064c-0.2574,-1.5304 -0.4322,-3.0238 -0.2147,-4.5695c0.2176,-1.5304 1.1267,-2.3921 1.9247,-3.6185c0.0589,-0.0931 0.4294,0.0256 0.3544,0.1415c-0.7942,1.2179 -1.597,2.1043 -1.9,3.5787c-0.305,1.481 -0.0361,3.0523 0.2118,4.522c0.0228,0.1282 -0.3572,0.0608 -0.3762,-0.0542zM257.7328,103.9818c0.968,-0.5919 1.8914,-1.2056 3.0029,-1.4877c1.1429,-0.2926 2.4472,0.1377 3.5996,0.1102c0.1282,-0.0029 0.4104,0.1862 0.1539,0.1928c-0.9101,0.0219 -1.7936,-0.1273 -2.7009,-0.1862c-1.3756,-0.0893 -2.5992,0.8379 -3.7012,1.5124c-0.1064,0.0646 -0.4398,-0.0893 -0.3543,-0.1415z" fill="#010101" stroke-width="0.95"/><path d="M264.5186,104.3912c-0.6678,0.5909 -1.4126,0.7439 -2.2581,0.9548c-0.1349,0.0323 -2.9735,0.5643 -2.5042,1.0203c0.0779,0.076 -0.2803,0.0313 -0.343,-0.0295c-0.4788,-0.4664 0.5938,-0.6821 0.9111,-0.7733c1.2929,-0.3724 2.7844,-0.3695 3.8361,-1.2996c0.075,-0.0655 0.4132,0.0798 0.3581,0.1273zM264.20509,107.359c-1.3765,0.7999 -3.4741,-0.3733 -4.6768,-1.0402c-0.1606,-0.0893 0.2223,-0.0456 0.2897,-0.0076c1.0688,0.5928 2.8443,1.6083 4.028,0.9196c0.0941,-0.0532 0.4047,0.1035 0.3591,0.1282zM263.4499,107.5433c-1.2464,0.0361 -1.7737,-1.4763 -1.1277,-2.4348c0.0618,-0.0931 0.4085,0.0589 0.38,0.1007c-0.1966,0.2907 -0.2574,0.6327 -0.2574,0.9794c-0.0019,0.4285 0.19,1.2198 0.7581,1.2027c0.0779,-0.0009 0.4332,0.1473 0.247,0.152zM263.7947,104.927c0.647,0.8246 0.7306,2.0473 -0.2907,2.6049c-0.0969,0.0513 -0.4018,-0.1054 -0.3581,-0.1282c1.0051,-0.5472 0.9053,-1.7385 0.2726,-2.5451c-0.0209,-0.0275 0.3069,-0.019 0.3762,0.0684zM260.8488,105.7051c-0.495,-0.0181 -0.9263,-0.2033 -1.3471,-0.4513c-0.0618,-0.037 -0.0494,-0.0779 0.0209,-0.0798c0.0902,-0.0028 0.19,0.0257 0.2679,0.0713c0.2517,0.1472 0.512,0.2954 0.8113,0.3068c0.0912,0.0029 0.1881,0.0209 0.2679,0.0713c0.0589,0.0361 0.0541,0.0836 -0.0209,0.0817zM261.62489,105.5464c-0.4788,0.0751 -1.0649,-0.1833 -1.4763,-0.4075c-0.0655,-0.0361 -0.0475,-0.0779 0.0209,-0.0798c0.0922,-0.0029 0.1872,0.0275 0.2679,0.0712c0.229,0.1245 0.6061,0.3116 0.874,0.2698c0.0874,-0.0133 0.1853,0.0124 0.2651,0.0494c0.0266,0.0133 0.1358,0.0827 0.0484,0.0969zM260.73949,106.8622c-0.7932,0.0684 -1.6672,-0.3724 -2.1498,-0.989c-0.0276,-0.0342 0.0522,-0.0408 0.0636,-0.0418c0.4228,-0.0342 0.8465,-0.094 1.2711,-0.1292c0.0789,-0.0076 0.4351,0.1359 0.247,0.1511c-0.4246,0.0361 -0.8464,0.0959 -1.2711,0.1301c0.02,-0.0152 0.0428,-0.0275 0.0637,-0.0418c0.3496,0.4475 0.9452,0.8189 1.5276,0.7695c0.0798,-0.0066 0.436,0.134 0.2479,0.1511zM259.5492,106.2713c0.2109,0.1985 0.456,0.3819 0.7429,0.4721c-0.0257,0.0333 -0.0532,0.0646 -0.0798,0.0979c-0.0969,-0.0371 -0.1919,-0.0722 -0.2879,-0.1093c0.0703,-0.0152 0.1397,-0.0285 0.21,-0.0456c0.0807,0.0437 0.1605,0.0884 0.2403,0.1311c-0.0969,0.0029 -0.1938,0.0057 -0.2897,0.0086c-0.058,-0.0266 -0.1131,-0.0551 -0.1701,-0.0808c-0.1938,-0.0836 0.0342,-0.1016 0.1254,-0.0798c0.0941,0.0228 0.1758,0.0494 0.267,0.0817c-0.0589,0.02 -0.1159,0.0428 -0.1748,0.0627c-0.0352,-0.0123 -0.0713,-0.0218 -0.1074,-0.0332c0.0095,-0.0371 0.02,-0.0732 0.0295,-0.1093c0.0959,0.0323 0.1909,0.0618 0.2859,0.0941c-0.0579,0.0209 -0.1159,0.0427 -0.1738,0.0636c-0.0608,-0.0266 -0.1197,-0.0551 -0.1786,-0.0807c0.0712,-0.0162 0.1406,-0.0295 0.2109,-0.0447c0.0437,0.0323 0.0902,0.0627 0.1387,0.0884c0.1634,0.094 -0.2005,0.0503 -0.2537,0.0266c-0.1206,-0.0551 -0.1805,-0.0931 -0.2878,-0.1701c-0.095,-0.0684 0.2384,-0.0285 0.2812,-0.0085c0.1197,0.0608 0.2337,0.1178 0.3439,0.1928c0.1567,0.1064 -0.1986,0.0561 -0.2537,0.0266c-0.1159,-0.0598 -0.228,-0.1273 -0.3429,-0.1862c-0.2071,-0.1111 0.0864,-0.0988 0.1757,-0.0646c0.1843,0.0732 0.3715,0.1416 0.552,0.2252c-0.0732,0.0161 -0.1454,0.0313 -0.2176,0.0465c-0.2479,-0.1235 -0.5063,-0.19 -0.6973,-0.4009c-0.0874,-0.0959 0.2698,-0.0199 0.3164,0.0114c0.3325,0.2242 0.6992,0.381 1.0469,0.5776c0.1482,0.0836 -0.114,0.0732 -0.1606,0.0589c-0.6716,-0.1824 -1.3034,-0.513 -1.8477,-0.9443c0.1149,0.0095 0.2289,0.019 0.3429,0.0295c0.2641,0.2574 0.5995,0.3676 0.9301,0.5101c-0.0732,0.0171 -0.1454,0.0304 -0.2176,0.0466c-0.3125,-0.1435 -0.6146,-0.2888 -0.8873,-0.5007c-0.0902,-0.0712 0.2641,-0.0199 0.3173,0.0114c0.2176,0.1292 0.4494,0.2309 0.6669,0.361c0.1634,0.0979 -0.2014,0.0485 -0.2546,0.0266c-0.3106,-0.1377 -0.6156,-0.2764 -0.8854,-0.4864c-0.094,-0.0722 0.2679,-0.0142 0.3164,0.0124c0.2242,0.1197 0.4455,0.227 0.646,0.3819c0.0893,0.0674 -0.2603,0.0228 -0.3164,-0.0124c-0.246,-0.1539 -0.5082,-0.2802 -0.7552,-0.4351c0.0969,-0.0028 0.1938,-0.0057 0.2907,-0.0085c0.1254,0.0769 0.2574,0.1387 0.3961,0.19c-0.0703,0.0152 -0.1396,0.0285 -0.2099,0.0446c-0.171,-0.1035 -0.3382,-0.1871 -0.4769,-0.3315c-0.096,-0.0979 0.2498,-0.02 0.2802,-0.0076c0.1245,0.0522 0.229,0.1168 0.3363,0.1985c0.0922,0.0684 -0.2622,0.019 -0.3163,-0.0114c-0.1197,-0.0693 -0.228,-0.1406 -0.3363,-0.2261c-0.0865,-0.0646 0.2574,-0.0275 0.3163,0.0133c0.0637,0.0437 0.095,0.0656 0.1492,0.1245c0.0902,0.0959 -0.2727,0.0152 -0.3164,-0.0124c-0.0788,-0.0437 -0.1529,-0.0921 -0.2242,-0.1453c0.1045,0.0038 0.2109,0.0076 0.3164,0.0114c0.0598,0.0693 0.1263,0.1377 0.1957,0.1985c0.0921,0.0874 -0.2708,0.0162 -0.3164,-0.0114c-0.0845,-0.0484 -0.17,-0.0959 -0.2565,-0.1396c-0.208,-0.1083 0.0865,-0.0979 0.1748,-0.0627c0.1397,0.056 0.2822,0.1083 0.4218,0.1653c-0.0589,0.0199 -0.1149,0.0427 -0.1738,0.0627c-0.1387,-0.0656 -0.2347,-0.1254 -0.323,-0.2527c-0.039,-0.0542 0.1387,-0.0361 0.151,-0.0333c0.1349,0.0285 0.2537,0.0599 0.3848,0.1036c0.1035,0.0332 0.1833,0.132 0.018,0.1149c-0.1558,-0.0171 -0.2983,-0.0456 -0.4474,-0.094c-0.1055,-0.0314 -0.1834,-0.133 -0.019,-0.115c0.0969,0.0114 0.1919,0.02 0.2897,0.0219c0.0684,0.0503 0.1387,0.0997 0.2071,0.1501c-0.1396,-0.0095 -0.2736,-0.0247 -0.4123,-0.0447c-0.0285,-0.0028 -0.3154,-0.1187 -0.1919,-0.1396c0.1777,-0.0314 0.3382,-0.0618 0.5083,-0.1311c0.1121,0.0465 0.2242,0.0921 0.3363,0.1377c-0.1663,0.02 -0.324,0.058 -0.4864,0.1017c-0.0931,-0.0494 -0.1853,-0.0988 -0.2793,-0.1482c0.2232,-0.0219 0.4455,-0.0599 0.6669,-0.0836c0.0617,-0.0057 0.398,0.1197 0.2793,0.1482c-0.2223,0.056 -0.4351,0.1254 -0.6508,0.2071c-0.0912,0.0342 -0.4066,-0.1045 -0.3581,-0.1283c0.4997,-0.2479 1.044,-0.4303 1.5941,-0.5206c0.1035,0.0475 0.208,0.096 0.3116,0.1435c-0.6128,0.0788 -1.1942,0.3021 -1.8117,0.3505c-0.0788,0.0067 -0.4351,-0.1368 -0.247,-0.151c0.5947,-0.0466 1.1562,-0.2679 1.7471,-0.343c0.0836,-0.0123 0.4161,0.1264 0.3125,0.1435c-0.5367,0.0883 -1.0621,0.2631 -1.5485,0.5035c-0.1187,-0.0428 -0.2384,-0.0855 -0.3581,-0.1283c0.2289,-0.0864 0.4569,-0.1634 0.6954,-0.2223c0.094,0.0485 0.1862,0.0988 0.2793,0.1473c-0.2214,0.0218 -0.4437,0.0608 -0.666,0.0836c-0.0608,0.0066 -0.399,-0.1159 -0.2793,-0.1482c0.1615,-0.0437 0.3183,-0.0808 0.4855,-0.1007c0.0627,-0.0086 0.3952,0.113 0.3353,0.1368c-0.1805,0.0731 -0.361,0.114 -0.5548,0.1472c-0.0617,-0.0465 -0.1282,-0.094 -0.1909,-0.1406c0.1045,0.0162 0.2118,0.0257 0.3163,0.0314c0.0637,0.0047 0.3924,0.152 0.2071,0.1501c-0.1254,0 -0.246,-0.0114 -0.3714,-0.0247c-0.0067,-0.039 -0.0124,-0.077 -0.0181,-0.115c0.0504,0.0086 0.0998,0.0171 0.152,0.0247c0.0057,0.039 0.0114,0.077 0.0181,0.1159c-0.0599,-0.018 -0.1226,-0.0332 -0.1834,-0.0503c0.0504,-0.0124 0.0998,-0.0219 0.1501,-0.0342c0.057,0.0465 0.1102,0.0921 0.1672,0.1387c0.2119,0.1007 -0.0874,0.0988 -0.1748,0.0636c-0.1396,-0.057 -0.2821,-0.1092 -0.4227,-0.1653c0.0598,-0.0209 0.1159,-0.0427 0.1748,-0.0636c0.1102,0.0589 0.2204,0.114 0.3277,0.1786c-0.1045,-0.0048 -0.2109,-0.0095 -0.3163,-0.0133c-0.0684,-0.0608 -0.1349,-0.1283 -0.1957,-0.1986c-0.0865,-0.0921 0.2688,-0.0209 0.3163,0.0124c0.0713,0.0541 0.1463,0.1026 0.2242,0.1463c-0.1045,-0.0038 -0.2109,-0.0076 -0.3163,-0.0114c-0.0323,-0.0285 -0.0646,-0.058 -0.0969,-0.0865c0.1045,0.0038 0.2118,0.0076 0.3163,0.0114c0.0903,0.0713 0.1843,0.134 0.285,0.1872c-0.1045,-0.0038 -0.2118,-0.0076 -0.3163,-0.0114c-0.0713,-0.0409 -0.1416,-0.0827 -0.2128,-0.1226c0.094,-0.0028 0.1862,-0.0057 0.2802,-0.0085c0.1226,0.1263 0.2746,0.2014 0.4228,0.2926c0.1577,0.0969 -0.1615,0.0646 -0.21,0.0456c-0.1947,-0.077 -0.38,-0.1511 -0.5567,-0.2632c-0.1586,-0.1007 0.2233,-0.0494 0.2898,-0.0085c0.247,0.1548 0.5092,0.2812 0.7552,0.436c-0.1054,-0.0038 -0.2109,-0.0076 -0.3163,-0.0114c-0.1815,-0.1406 -0.3905,-0.2365 -0.5919,-0.3439c0.1055,0.0038 0.2119,0.0076 0.3164,0.0114c0.2289,0.1796 0.4959,0.2936 0.76,0.4095c-0.0855,0.0085 -0.1701,0.018 -0.2546,0.0256c-0.2176,-0.1292 -0.4494,-0.2308 -0.6669,-0.36c0.1045,0.0038 0.2109,0.0076 0.3163,0.0114c0.2318,0.1814 0.495,0.3011 0.76,0.4246c0.229,0.1064 -0.132,0.0836 -0.2175,0.0466c-0.3781,-0.1653 -0.7543,-0.2945 -1.0555,-0.5862c-0.0845,-0.0826 0.2822,-0.018 0.342,0.0295c0.4513,0.3591 0.9766,0.6507 1.5343,0.8037c-0.0532,0.019 -0.1055,0.0389 -0.1596,0.0589c-0.3468,-0.1976 -0.7144,-0.3525 -1.046,-0.5776c0.1055,0.0047 0.2119,0.0085 0.3164,0.0123c0.1529,0.1672 0.3762,0.2261 0.5728,0.3249c0.2261,0.1121 -0.132,0.0855 -0.2175,0.0466c-0.153,-0.0703 -0.3088,-0.1292 -0.4646,-0.19c0.0589,-0.0209 0.1159,-0.0437 0.1748,-0.0637c0.115,0.0599 0.2271,0.1273 0.342,0.1862c-0.0845,0.0095 -0.17,0.019 -0.2546,0.0276c-0.0874,-0.058 -0.1786,-0.1093 -0.2726,-0.1549c0.094,-0.0019 0.1862,-0.0047 0.2802,-0.0076c0.0542,0.0314 0.1074,0.0618 0.1606,0.0931c-0.0846,0.0086 -0.1691,0.0181 -0.2537,0.0266c-0.0494,-0.0256 -0.095,-0.0551 -0.1387,-0.0883c-0.151,-0.1064 0.1606,-0.0646 0.21,-0.0447c0.095,0.0371 0.1748,0.0694 0.265,0.1159c0.2147,0.1055 -0.0902,0.0912 -0.1748,0.0627c-0.0969,-0.0323 -0.1909,-0.0617 -0.2859,-0.094c-0.1615,-0.0513 -0.1378,-0.1454 0.0275,-0.1083c0.1444,0.0313 0.2603,0.0684 0.3971,0.1244c0.2176,0.0893 -0.0874,0.095 -0.1738,0.0637c-0.058,-0.0181 -0.1131,-0.0333 -0.1691,-0.0504c0.0418,-0.0266 0.0826,-0.0541 0.1244,-0.0798c0.0874,0.038 0.1568,0.0722 0.2404,0.1188c0.1615,0.0883 -0.2233,0.0446 -0.2898,0.0085c-0.0817,-0.0437 -0.1615,-0.0864 -0.2413,-0.1301c-0.1596,-0.0874 0.1625,-0.0646 0.2119,-0.0456c0.0959,0.037 0.1909,0.0722 0.2878,0.1092c0.21,0.0817 0.0751,0.1463 -0.0807,0.0988c-0.3971,-0.1206 -0.7477,-0.3287 -1.0507,-0.6127c-0.0722,-0.0751 0.284,-0.0314 0.3496,0.0304zM261.3304,107.1453c-0.1862,-0.001 -0.3629,-0.0314 -0.5443,-0.0504c-0.0941,-0.0104 -0.4161,-0.1691 -0.1653,-0.1491c0.1871,0.0152 0.3724,0.0418 0.5557,0.0779c0.0903,0.0171 0.3534,0.171 0.1188,0.1425c-0.1397,-0.019 -0.2803,-0.039 -0.419,-0.058c-0.0931,-0.0104 -0.418,-0.171 -0.1662,-0.1482c0.1795,0.0181 0.3562,0.0447 0.5339,0.0789c0.0066,0.0418 0.0133,0.0836 0.0209,0.1263c-0.1273,-0.0323 -0.2546,-0.0655 -0.38,-0.1026c0.0266,-0.0332 0.0541,-0.0655 0.0798,-0.0988c0.1159,0.0447 0.2337,0.0789 0.3534,0.1064c0.0494,0.0133 0.2783,0.1264 0.1083,0.133c-0.2461,0.0105 -0.4655,-0.019 -0.6973,-0.1045c-0.1007,-0.037 -0.1862,-0.133 -0.0181,-0.1149c0.1501,0.0133 0.2974,0.0332 0.4456,0.0636c0.0893,0.0171 0.3572,0.1501 0.1187,0.1406c-0.8654,-0.0304 -1.6549,-0.4151 -2.2334,-1.0564c-0.076,-0.0855 0.284,-0.0351 0.3429,0.0304c0.4589,0.5092 1.0232,0.8522 1.7233,0.8778c0.0399,0.0475 0.0789,0.095 0.1188,0.1416c-0.1159,-0.0266 -0.2328,-0.0428 -0.3515,-0.0513c-0.0057,-0.038 -0.0133,-0.077 -0.019,-0.115c0.1064,0.0124 0.2147,0.0228 0.3211,0.0361c0.0361,0.0437 0.0712,0.0884 0.1083,0.1321c-0.1558,-0.039 -0.305,-0.0827 -0.4541,-0.1387c-0.2147,-0.077 -0.0751,-0.1425 0.0798,-0.0979c0.1254,0.0371 0.2527,0.0703 0.379,0.1026c0.1549,0.039 0.2432,0.1682 0.02,0.1245c-0.1454,-0.0276 -0.2926,-0.0523 -0.4399,-0.0656c-0.057,-0.0494 -0.1102,-0.0978 -0.1672,-0.1482c0.1406,0.0181 0.2812,0.038 0.4199,0.057c0.0399,0.0466 0.0789,0.0941 0.1188,0.1406c-0.153,-0.0285 -0.3059,-0.0513 -0.4617,-0.0627c-0.0551,-0.0503 -0.1093,-0.0997 -0.1653,-0.1491c0.1463,0.0161 0.3268,0.0475 0.4664,0.0484c0.0789,0.001 0.4332,0.153 0.2489,0.1511zM259.7135,106.333c0.0295,0.0371 0.0665,0.0656 0.096,0.1026c-0.1245,-0.0285 -0.2499,-0.057 -0.3762,-0.0855c0.0038,-0.037 0.0123,-0.0731 0.0152,-0.1102c0.0047,-0.0551 0.1824,-0.0123 0.2052,-0.0057c0.1928,0.0551 0.3828,0.1416 0.475,0.3306c0.0399,0.0827 -0.3002,-0.0085 -0.3325,-0.0285c-0.1368,-0.0912 -0.3002,-0.1757 -0.3496,-0.3429c-0.0209,-0.0732 0.3467,-0.0266 0.3743,0.0674c0.0399,0.1349 0.1548,0.1938 0.265,0.266c-0.1111,-0.0095 -0.2213,-0.019 -0.3325,-0.0285c-0.0256,-0.0541 -0.0674,-0.132 -0.1311,-0.1491c0.0684,-0.0019 0.1378,-0.0038 0.2052,-0.0057c-0.0038,0.037 -0.0114,0.0731 -0.0142,0.1102c-0.0067,0.0931 -0.342,-0.0418 -0.3762,-0.0865c-0.0285,-0.0361 -0.0665,-0.0636 -0.096,-0.1007c-0.0418,-0.0541 0.1425,-0.0361 0.1511,-0.0342c0.075,0.0124 0.1719,0.039 0.2213,0.1007zM261.6164,107.3163c-0.5928,-0.1929 -1.2426,-0.2565 -1.8107,-0.5197c-0.4579,-0.2118 -0.742,-0.5975 -1.1353,-0.8987c-0.0788,-0.0589 0.2727,-0.0228 0.343,0.0304c0.4066,0.3126 0.6555,0.6888 1.1628,0.8788c0.5063,0.19 1.0554,0.2593 1.5703,0.4275c0.2575,0.0836 0.0124,0.1292 -0.1301,0.0817z" fill="#000000" stroke-width="0.95"/><path d="M237.16667,130.42604c-0.4,4.11926 -5.1,5.12396 -5.1,5.12396c1.1,-0.40188 2.1,-2.10987 2.1,-2.10987c-2.9,3.21504 -6.5,0.50235 -6.5,0.50235c1,0.30141 4.1,0.30141 3.8,-2.91362c-0.3,-3.21504 1.7,-4.3202 3.6,-3.91832c1.8,0.40188 2.3,2.10986 2.1,3.3155z" fill="#3d241b" stroke-width="1"/><path d="M227.66667,134.04296c0,0 0.2,0 0.4,0.10047c0.3,0 0.7,0 1.1,-0.10047c0.4,-0.10047 0.9,-0.50235 1.2,-0.90423c0.2,-0.20094 0.3,-0.50235 0.5,-0.70329c0.1,-0.20094 0.2,-0.50235 0.2,-0.80375c0.1,-0.60282 0,-1.30611 0.1,-1.90893c0.1,-0.70329 0.5,-1.30611 0.9,-1.60752c0.4,-0.30141 0.8,-0.50235 1.1,-0.60282c0.3,-0.10047 0.4,-0.10047 0.4,-0.10047c0,0 -0.1,0.10047 -0.4,0.20094c-0.2,0.10047 -0.6,0.40188 -0.9,0.70329c-0.3,0.30141 -0.5,0.80375 -0.6,1.40658c0,0.60282 0,1.20564 0,2.0094c0,0.40188 -0.1,0.70328 -0.3,1.10516c-0.2,0.30141 -0.4,0.60282 -0.6,0.80376c-0.5,0.50235 -1,0.80376 -1.6,0.90422c-0.5,0.10047 -1,0 -1.3,-0.10047c0,-0.30141 -0.2,-0.40188 -0.2,-0.40188z" fill="#241510" stroke-width="1"/><path d="M247.16666,92.95081c3.6,5.52584 -4.4,11.55403 -4.4,11.55403c3.1,7.23382 -2.9,10.14745 -2.9,10.14745c1.5,3.91832 -1.4,7.43476 -1.4,7.43476c0.9,6.02819 -4.2,5.82725 -4.2,5.82725c-2.3,-3.71738 0.4,-5.82725 0.4,-5.82725c-3.4,-5.12396 0.7,-7.73618 0.7,-7.73618c-3.2,-7.03288 1.4,-9.44416 1.4,-9.44416c-5.6,-6.63101 1.12222,-13.28434 1.12222,-13.28434c1.38216,-1.31923 9.33843,-4.56754 11.80934,-3.31428c1.10451,0.56021 -3.64365,2.93569 -2.53156,4.64271z" fill="#3d241b" stroke-width="1"/><path d="M240.06667,94.96021c0,0 0.4,0.30141 0.9,0.80375c0.5,0.60282 1,1.50705 1.2,2.41128c0.1,0.50235 0.2,1.0047 0.2,1.40658c0,0.50235 0,0.90423 -0.1,1.30611c0,0.40188 -0.1,0.70329 -0.2,0.90423c-0.1,0.20094 -0.1,0.30141 -0.1,0.30141c0,0 0,-0.10047 0,-0.30141c0,-0.20094 0,-0.50235 -0.1,-0.90423c-0.1,-0.70329 -0.2,-1.60751 -0.4,-2.51174c-0.1,-0.40188 -0.3,-0.90423 -0.4,-1.30611c-0.2,-0.40188 -0.3,-0.80376 -0.5,-1.10517c-0.2,-0.60282 -0.5,-1.00469 -0.5,-1.00469z" fill="#241510" stroke-width="1"/><path d="M242.06667,98.77806c0,0 0.1,-0.30141 0.2,-0.70329c0.2,-0.40188 0.5,-0.90422 0.9,-1.30611c0.4,-0.40188 0.9,-0.70329 1.3,-0.90423c0.4,-0.20094 0.7,-0.20094 0.7,-0.20094c0,0 0,0.10047 -0.1,0.10047c-0.1,0.10047 -0.2,0.20094 -0.4,0.40188c-0.3,0.30141 -0.7,0.70329 -1.1,1.0047c-0.4,0.40188 -0.8,0.80375 -1.1,1.00469c-0.1,0.40188 -0.4,0.60282 -0.4,0.60282z" fill="#241510" stroke-width="1"/><path d="M239.36667,106.51424c0,0 0.3,0.20094 0.7,0.70329c0.4,0.40188 0.8,1.10516 1,1.90893c0.1,0.40188 0.1,0.80375 0.1,1.20564c0,0.20094 0,0.40188 0,0.50235c0,0.20094 -0.1,0.30141 -0.1,0.50235c-0.1,0.30141 -0.2,0.50235 -0.3,0.70329c-0.1,0.20094 -0.1,0.20094 -0.1,0.20094c0,0 0,-0.40188 0,-0.90423c0,-0.60282 -0.1,-1.3061 -0.2,-2.00939c-0.2,-0.70329 -0.4,-1.40658 -0.7,-1.90893c-0.2,-0.60282 -0.4,-0.90422 -0.4,-0.90422z" fill="#241510" stroke-width="1"/><path d="M241.76667,107.92081c0,0 0,0.10047 0,0.30141c0,0.10047 0,0.20094 -0.1,0.30141c0,0.10047 -0.1,0.20094 -0.1,0.30141c-0.1,0.10047 -0.1,0.20094 -0.2,0.30141c-0.1,0.10047 -0.1,0.20094 -0.2,0.20094c-0.1,0.10047 -0.2,0.20094 -0.2,0.20094c0,0 0,-0.10047 0,-0.30141c0,-0.10047 0,-0.20094 0.1,-0.30141c0,-0.10047 0.1,-0.20094 0.1,-0.30141c0.1,-0.10047 0.1,-0.20094 0.2,-0.30141c0.1,-0.10047 0.1,-0.20094 0.2,-0.20094c0.1,-0.20094 0.2,-0.20094 0.2,-0.20094z" fill="#241510" stroke-width="1"/><path d="M236.46667,115.25511c0,0 0.3,0.20094 0.6,0.70329c0.2,0.20094 0.4,0.50235 0.5,0.80376c0.2,0.30141 0.3,0.60281 0.5,0.90422c0.1,0.30141 0.2,0.70329 0.3,1.0047c0.1,0.30141 0.1,0.70329 0.1,0.90423c0,0.30141 -0.1,0.50234 -0.1,0.60281c0,0.20094 -0.1,0.20094 -0.1,0.20094c0,0 0,-0.10047 0,-0.20094c0,-0.20094 0,-0.40187 -0.1,-0.60281c0,-0.30141 -0.1,-0.50235 -0.2,-0.90423c-0.1,-0.30141 -0.2,-0.60282 -0.3,-0.90423c-0.2,-0.60282 -0.5,-1.30611 -0.8,-1.70799c-0.2,-0.50235 -0.4,-0.80376 -0.4,-0.80376z" fill="#241510" stroke-width="1"/><path d="M238.86667,116.9631c0,0 0,0.10046 -0.1,0.3014c0,0.10047 0,0.20094 -0.1,0.20094c0,0.10047 -0.1,0.20094 -0.1,0.20094c-0.1,0.10047 -0.1,0.10047 -0.2,0.20094c0,0.10047 -0.1,0.10047 -0.2,0.20094c-0.1,0.10047 -0.2,0.20094 -0.2,0.20094c0,0 -0.1,-0.10047 -0.1,-0.30141c0,-0.10047 0,-0.20094 0.1,-0.30141c0,-0.10047 0.1,-0.20094 0.1,-0.30141c0.1,-0.10047 0.1,-0.20094 0.2,-0.20094c0.1,-0.10047 0.1,-0.10047 0.2,-0.20094c0.3,0.10047 0.4,0 0.4,0z" fill="#241510" stroke-width="1"/><path d="M236.26667,122.48893c0,0 0.2,0.20094 0.3,0.60282c0.1,0.40188 0.2,1.00469 0.2,1.60752c0,0.30141 -0.1,0.60282 -0.2,0.80376c-0.1,0.30141 -0.2,0.50235 -0.3,0.70329c-0.1,0.20094 -0.2,0.30141 -0.3,0.40188c-0.1,0.10047 -0.1,0.10047 -0.1,0.10047c0,0 0,-0.10047 0.1,-0.20094c0,-0.10047 0.1,-0.30141 0.1,-0.50235c0.1,-0.20094 0.1,-0.40188 0.2,-0.70329c0.1,-0.20094 0.1,-0.50235 0.1,-0.80375c0,-0.30141 0,-0.50235 0,-0.80376c0,-0.30141 0,-0.50235 0,-0.70329c0,-0.20094 -0.1,-0.50235 -0.1,-0.50235z" fill="#241510" stroke-width="1"/><path d="M237.76667,123.5941c0,0 0,0.10047 -0.1,0.20094c0,0.10047 -0.1,0.10047 -0.1,0.20094c-0.1,0.10047 -0.1,0.10047 -0.2,0.20094c-0.1,0.10047 -0.2,0.10047 -0.2,0.20094c-0.1,0.10047 -0.2,0.10047 -0.2,0.10047c-0.1,0.10047 -0.3,0.10046 -0.3,0.10046c0,0 0,-0.10046 0.1,-0.3014c0,-0.10047 0.1,-0.10047 0.1,-0.20094c0.1,-0.10047 0.1,-0.10047 0.2,-0.20094c0.1,-0.10047 0.2,-0.10047 0.2,-0.20094c0.1,-0.10047 0.2,-0.10047 0.2,-0.10047c0.1,0 0.3,0 0.3,0z" fill="#241510" stroke-width="1"/><path d="M242.86667,104.50484c0,0 0.5,0.60281 0.9,1.60752c0.1,0.30141 0.2,0.60282 0.3,0.90423c0.1,0.30141 0.1,0.70329 0.2,1.0047c0,0.40188 0,0.70329 0,1.10517l-0.1,0.60282l-0.1,0.60282c-0.1,0.40188 -0.3,0.70329 -0.4,1.10517c-0.2,0.30141 -0.4,0.60282 -0.6,0.90422c-0.2,0.30141 -0.5,0.50235 -0.7,0.80376c-0.2,0.20094 -0.5,0.40188 -0.7,0.60282c-0.4,0.40188 -0.9,0.50235 -1.1,0.70329c-0.3,0.20094 -0.5,0.20094 -0.5,0.20094c0,0 0.1,-0.10047 0.4,-0.30141c0.2,-0.20094 0.6,-0.50235 1,-0.90423c0.2,-0.20094 0.4,-0.40188 0.6,-0.60282c0.2,-0.20094 0.4,-0.50234 0.6,-0.80375c0.2,-0.30141 0.3,-0.60282 0.5,-0.90423c0.1,-0.30141 0.3,-0.60282 0.4,-1.0047l0.1,-0.50235l0.1,-0.50235c0.1,-0.30141 0,-0.70329 0.1,-1.0047c0,-0.30141 0,-0.70328 -0.1,-1.00469c0,-0.30141 -0.1,-0.60282 -0.1,-0.90423c-0.1,-0.50235 -0.2,-1.00469 -0.3,-1.3061c-0.5,-0.30141 -0.5,-0.40188 -0.5,-0.40188z" fill="#241510" stroke-width="1"/><path d="M235.36667,114.35088c0,0 -0.4,0.40188 -0.8,1.0047c-0.2,0.30141 -0.4,0.70329 -0.6,1.20564c-0.1,0.20094 -0.1,0.50234 -0.2,0.70328c0,0.20094 -0.1,0.50235 -0.1,0.70329c0,0.30141 0,0.50235 0,0.80376c0,0.20094 0,0.50235 0.1,0.70329c0.1,0.20094 0.1,0.50234 0.2,0.70328c0.1,0.20094 0.1,0.40188 0.2,0.60282c0.1,0.40188 0.2,0.70329 0.3,0.90423c0.1,0.20094 0.1,0.40188 0.1,0.40188c0,0 -0.1,-0.10047 -0.2,-0.30141c-0.1,-0.20094 -0.4,-0.50235 -0.6,-0.80376c-0.2,-0.40188 -0.4,-0.80376 -0.6,-1.30611c-0.1,-0.20094 -0.1,-0.50235 -0.2,-0.80376c-0.1,-0.30141 0,-0.60282 -0.1,-0.80376c0,-0.60282 0.1,-1.10516 0.4,-1.60752c0.2,-0.50235 0.5,-0.90423 0.8,-1.20564c0.8,-0.80376 1.3,-0.90423 1.3,-0.90423z" fill="#241510" stroke-width="1"/><path d="M238.46667,122.08706c0,0 0.2,0.50235 0.3,1.30611c0,0.40188 0.1,0.90422 0,1.40658c0,0.30141 -0.1,0.50235 -0.2,0.80376c-0.1,0.20094 -0.2,0.50235 -0.4,0.70329c-0.1,0.20094 -0.3,0.50235 -0.5,0.60282c-0.2,0.20094 -0.4,0.3014 -0.6,0.50234c-0.2,0.10047 -0.5,0.20094 -0.7,0.30141c-0.2,0.10047 -0.4,0.10047 -0.6,0.10047c-0.4,0.10047 -0.7,0 -1,0c-0.2,0 -0.4,0 -0.4,0c0,0 0.1,0 0.3,-0.10047c0.2,-0.10047 0.5,-0.10047 0.9,-0.30141c0.2,-0.10047 0.4,-0.10047 0.5,-0.20094c0.2,-0.10047 0.4,-0.20094 0.6,-0.30141c0.2,-0.10047 0.4,-0.30141 0.5,-0.40188c0.2,-0.20094 0.3,-0.30141 0.4,-0.50235c0.2,-0.20094 0.2,-0.40188 0.3,-0.60282c0.1,-0.20094 0.2,-0.40188 0.2,-0.70329c0.1,-0.40188 0.2,-0.90422 0.2,-1.20564c0.2,-0.90423 0.2,-1.40658 0.2,-1.40658z" fill="#241510" stroke-width="1"/><path d="M255.8195,89.61312c-2.0919,-1.40035 -4.4783,-1.64486 -7.0015,-1.66367c-0.0741,0 -0.4294,-0.13337 -0.248,-0.13166c2.7417,0.02052 5.3352,0.31551 7.5915,1.8261c0.075,0.05049 -0.2717,0.0171 -0.342,-0.03078zM247.4338,104.0228c-0.9253,-2.28092 -1.7679,-5.34153 -0.8189,-7.71397c1.1248,-2.81781 4.6275,-4.87555 7.3036,-6.3623c0.0893,-0.05039 0.4,0.0898 0.3582,0.11375c-2.7968,1.55334 -5.9565,3.51965 -7.2846,6.34088c-1.0659,2.26472 -0.0675,5.50657 0.816,7.68491c0.0219,0.05382 -0.3391,0.01962 -0.3743,-0.06327zM245.5234,104.72977c-2.4947,-2.66815 -4.6028,-6.01601 -3.7155,-9.60927c0.684,-2.77588 3.7174,-6.27168 6.7089,-7.29416c0.1017,-0.035 0.3829,0.1043 0.3591,0.11375c-3.1274,1.06946 -5.8263,4.45151 -6.687,7.27274c-1.064,3.48213 1.3195,7.02401 3.7078,9.58021c0.0171,0.0171 -0.3021,0.01368 -0.3733,-0.06327z" fill="#010101" stroke-width="0.95"/><path d="M255.6751,89.35583c-0.0751,0.04013 0.0066,0.15983 -0.0732,0.19231c-0.6593,0.2625 -1.615,0.51808 -2.2448,0.84637c-0.4684,0.24451 -0.8607,0.50189 -1.2806,0.80021c-0.4484,0.31551 -0.8683,0.42745 -1.312,0.75916c-0.4636,0.34709 -0.8445,0.68483 -1.2597,1.07639c-0.8616,0.81046 -1.899,1.50637 -2.3797,2.5887c-0.2157,0.48641 -0.285,0.9917 -0.5045,1.46784c-0.2071,0.44114 -0.2783,0.96696 -0.2688,1.44401c0.0104,0.49415 0.0817,0.95489 0.0921,1.4431c0.0124,0.51466 0.2347,1.04642 0.3259,1.52085c0.1843,0.97118 0.6631,1.61238 0.8255,2.59553c-0.4446,0.09836 -0.7514,-0.00594 -1.1514,0.2428c-0.1225,0.07694 -0.4028,0.3839 -0.5358,0.39075c-0.227,0.00936 -0.5158,-0.27187 -0.5842,-0.39498c-0.2195,-0.38903 -0.3753,-0.57279 -0.6536,-0.94041c-0.2841,-0.37536 -0.6061,-0.71984 -0.8921,-1.09007c-0.6507,-0.84034 -1.1191,-1.8945 -1.4497,-2.87162c-0.3486,-1.03364 -0.7391,-2.1399 -0.5282,-3.25301c0.114,-0.59673 0.2698,-1.22253 0.4266,-1.81413c0.1748,-0.66342 0.5605,-1.20885 1.0146,-1.73972c0.3933,-0.45914 0.7343,-0.94725 1.0583,-1.45597c0.3344,-0.52663 0.8512,-0.93951 1.3366,-1.37039c0.5691,-0.50359 1.2189,-0.85834 1.8098,-1.30119c0.4161,-0.3129 0.8616,-0.57027 1.405,-0.60789c0.6137,-0.04184 1.2578,0.01287 1.8658,0.05733c0.7087,0.0521 1.4421,0.05129 2.1233,0.23848c0.4873,0.13336 1.0108,0.28212 1.4848,0.46427c0.2575,0.09917 0.4294,0.25647 0.6698,0.37958c0.2384,0.12221 0.3999,0.20428 0.6802,0.33171" fill="#9c70ff" stroke-width="0.95"/></g><path d="" fill="#371e10" stroke-width="0.95"/><path d="M240.13832,109.34588c0.11314,0.71543 0.2047,1.49512 0.31249,2.26931c-0.11005,-0.36337 -0.1995,-0.72389 -0.2634,-1.08078c-0.10077,-0.56276 -0.13163,-1.08958 -0.10829,-1.59078c0.01849,0.13568 0.03822,0.26981 0.0592,0.40225z" fill="#371e10" stroke-width="0.95"/><path d="M264.18662,164.13503c0.5045,0.4113 1.3357,0.7514 1.9504,1.0165c0.4902,0.2147 0.6232,0.5529 1.0887,0.7961c0.4427,0.2308 0.9747,0.6431 1.3756,0.9262c1.8525,1.2977 3.9434,2.4472 5.9821,3.4599c0.3791,0.1881 0.7914,0.3202 1.1818,0.5007c0.4047,0.1852 0.7116,0.1368 1.1723,0.1558c1.3804,0.0551 2.7303,0.2907 4.0964,0.4636c1.3006,0.1672 2.6325,0.1738 3.9311,0.3011c0.0874,0.0095 0.3658,0 0.4399,0.0371c0.1016,0.0513 0.1054,0.2166 0.208,0.304c0.3553,0.2983 1.0013,0.7495 1.4203,0.9699c0.5909,0.3126 0.8863,0.5387 1.5219,0.7771c0.3581,0.1359 0.8331,0.2081 1.1837,0.3591c0.2432,0.1036 0.6925,0.2071 0.8711,0.4171c0.1197,0.1406 0.4123,0.418 0.4294,0.5909c0.038,0.3762 -0.3401,0.5548 -0.6963,0.7115c-0.5472,0.2404 -1.2379,0.3031 -1.7813,0.1235c-0.0294,0.628 0.6859,1.2873 1.0203,1.7566c0.2337,0.3268 0.3914,0.4541 0.3582,0.8436c-0.0304,0.3534 -0.1872,0.513 -0.4218,0.7695c-0.418,0.4541 -0.9833,0.7153 -1.3215,1.1808c-0.2128,0.2974 -0.4199,0.3572 -0.7039,0.5491c-0.2413,0.1644 -0.3696,0.4076 -0.6565,0.5719c-0.2812,0.1596 -0.2574,0.4066 -0.5358,0.5548c-0.2707,0.1416 -0.95,1.084 -1.2426,1.0251c-0.3724,-0.0741 -0.8189,-0.3278 -1.4886,-0.5092c-0.9415,-0.2584 -1.9076,-0.6118 -2.8291,-0.9424c-0.6698,-0.2404 -1.4811,-0.4019 -2.0938,-0.7334c-0.4285,-0.2318 -0.647,-0.7002 -1.0479,-1.026c-0.4075,-0.3316 -0.8502,-0.6384 -1.1742,-1.0707c-0.3068,-0.4085 -0.5681,-0.608 -0.95,-0.9158c-0.4018,-0.3211 -0.6564,-0.7315 -1.0991,-1.0279c-0.3297,-0.2166 -0.5482,-0.3581 -0.798,-0.6935c-0.3012,-0.4066 -0.5358,-0.5823 -1.008,-0.7771c-1.1362,-0.4712 -2.2087,-1.1286 -3.3801,-1.5599c-1.3879,-0.5111 -2.622,-1.2321 -3.9805,-1.7385c-1.4345,-0.5358 -2.8623,-1.1219 -4.3139,-1.6425c-1.0384,-0.3734 -2.1081,-0.7154 -3.1569,-1.0346c-0.2422,-0.0731 -0.5567,-0.1482 -0.7714,-0.2764c-0.1178,-0.0713 -0.2907,0.0285 -0.1748,-0.1824c0.0447,-0.0827 0.3392,-0.1235 0.4218,-0.153c0.8474,-0.3192 1.7385,-0.4465 2.5726,-0.7657c0.665,-0.2527 1.2911,-0.6469 1.8715,-1.0573c0.5301,-0.3772 1.0973,-1.0764 1.4649,-1.5865c0.2062,-0.2907 0.3981,-0.5406 0.6213,-0.8075c0.1444,-0.1691 0.2451,-0.57 0.4418,-0.6232" fill="#ffbb80" stroke-width="0.95"/><path d="M228.36212,159.8305c-0.3733,0.5738 -0.7524,1.1324 -1.0868,1.7499c-0.2593,0.4845 -0.5282,1.1011 -0.8426,1.5552c-0.76,1.0972 -1.7376,2.1261 -2.5983,3.2157c-0.892,1.1324 -1.444,2.4985 -2.2914,3.6784c-0.6574,0.9215 -1.3471,1.8354 -1.8848,2.832c-0.5937,1.0991 -1.0697,2.3028 -1.7983,3.3117c-0.6375,0.8892 -1.1571,1.8135 -1.6426,2.7873c-0.4389,0.873 -0.8825,1.8002 -1.4373,2.5916c-0.2983,0.4275 -0.6774,0.551 -1.2046,0.8027c-0.4731,0.2223 -0.9073,0.494 -1.3747,0.7287c-1.0697,0.5367 -2.2515,0.9272 -3.2271,1.6596c-0.4532,0.3363 -1.7404,1.9333 -2.0216,1.0868c-0.2252,-0.684 0.6146,-2.0624 0.9975,-2.5944c0.5035,-0.7087 1.4421,-1.5172 2.2363,-1.8696c0.3762,-0.1682 0.6745,-0.1549 1.0915,-0.1786c-0.2964,-1.2037 0.5995,-2.1109 0.7239,-3.2414c-0.3486,0.1263 -0.9186,1.0649 -1.2578,1.3813c-0.399,0.3724 -0.7647,0.7733 -1.2692,1.0412c-0.3866,0.208 -0.8493,0.3895 -1.2074,-0.001c-0.4551,-0.4911 -0.02,-0.9196 0.3163,-1.2863c0.6099,-0.6631 1.2797,-1.652 1.6625,-2.5336c0.4456,-1.0241 0.989,-2.0957 1.3386,-3.1825c0.6023,-1.8592 1.1637,-3.9112 3.3212,-4.485c0.5586,-0.1463 0.9509,0.039 1.3917,-0.4161c0.3031,-0.3173 0.7002,-0.8664 0.8873,-1.2692c0.2461,-0.5415 0.3753,-0.6032 0.6536,-1.1675c0.2404,-0.4864 0.4028,-1.5884 0.7011,-2.034c0.6166,-0.911 1.216,-1.7841 1.6806,-2.7787c0.4066,-0.874 0.6479,-1.8316 0.9804,-2.7607c0.3382,-0.9472 0.7391,-1.8801 0.9975,-2.8025c0.1814,-0.6641 -0.0428,-1.0194 0.5339,-0.7828c0.5082,0.208 0.9243,0.7932 1.273,1.1694c1.0564,1.1343 1.9323,2.7436 3.5064,3.3174c0.1188,0.2337 0.3639,0.343 0.4427,0.5805c0.0618,0.0152 0.1207,0.0351 0.172,0.0703" fill="#ffbb80" stroke-width="0.95"/><path d="M242.53332,123.09885c1.0972,0.4408 2.0254,0.1985 3.1863,0c1.0611,-0.1805 2.2239,-0.0675 3.2015,0.2498c1.0754,0.3487 1.5228,0.6137 2.5137,1.1106c0.5434,0.2707 1.3746,0.8455 1.8696,1.2074c0.6745,0.494 0.6906,0.7866 1.0592,1.5305c0.2898,0.5785 0.8389,0.8977 1.0479,1.4088c0.2204,0.5444 0.3714,0.9804 0.6678,1.5238c0.5729,1.0593 1.2227,2.1214 1.6578,3.2557c0.4569,1.1894 0.9861,2.2752 1.3091,3.5159c0.3163,1.2122 0.8588,2.414 1.0583,3.6528c0.284,1.7489 0.4028,3.458 -0.1245,5.1661c-0.6669,0.6669 -0.6355,1.9988 -0.4569,2.7312c0.2954,1.2265 0.9775,1.8753 1.6482,2.9203c0.5862,0.913 1.2094,1.7936 1.444,2.8443c0.1216,0.5463 -0.0256,1.4963 -0.0323,2.0701c-0.0057,0.5348 -0.322,0.9785 -0.2052,1.5247c0.1891,0.8892 0.9643,1.6825 1.2778,2.5204c0.379,1.0146 0.8654,1.0307 0.8664,2.1631c0.0009,1.1286 -0.6223,2.6667 -1.4602,3.4134c-0.4094,0.3648 -0.8236,0.7391 -1.2777,1.0611c-0.4237,0.3021 -1.0697,0.5035 -1.3395,0.9187c-0.7591,0.0047 -1.5723,0.6745 -2.2211,0.9433c-0.5605,0.2318 -0.9443,0.3363 -1.5514,0.3952c-1.2863,0.1302 -2.4975,0.2423 -3.7021,-0.2574c-0.2603,0.5994 -0.5976,0.9889 -0.6641,1.6663c-0.076,0.7799 0.1872,1.1371 0.5862,1.7071c0.323,0.4598 0.7087,0.9491 1.0944,1.3699c0.4721,0.5178 0.93,0.7477 0.93,1.5191c0,2.8139 -3.0362,4.1857 -5.0834,4.6825c-0.7125,0.1729 -1.8155,0.4218 -2.5308,0.5425c-0.817,0.1368 -1.4032,0.1662 -2.2363,0.2413c-1.3823,0.1235 -3.1056,0.0826 -4.4707,-0.2043c-1.558,-0.3277 -3.1407,-0.4645 -4.4755,-0.9642c-1.406,-0.5244 -3.0818,-0.799 -4.084,-1.5514c-0.5054,-0.379 -0.5833,-0.2327 -1.1191,-0.5719c-0.476,-0.303 -1.4231,-0.7144 -1.862,-1.0801c-0.9016,-0.7477 -0.4817,-1.9323 -0.0817,-2.8025c0.4531,-0.9852 1.3452,-1.3737 0.6678,-2.4463c-0.3049,-0.4797 -0.5852,-1.1552 -0.8018,-1.7214c-0.1919,-0.4968 -0.3638,-1.1039 -0.1976,-1.6596c0.1682,-0.5672 0.5216,-0.6232 0.9956,-0.9434c0.5605,-0.38 0.9918,-0.9148 1.4744,-1.3661c0.7667,-0.7153 1.1334,-1.7556 1.3965,-2.735c0.2793,-1.0374 0.2024,-1.5495 -0.2413,-2.4444c-0.3847,-0.7761 -0.1149,-0.9205 -0.721,-0.5434c-0.5662,0.3506 -1.3623,0.6185 -1.995,0.5339c-1.4345,-0.1947 -3.4989,-1.5371 -4.4489,-2.8329c-0.9756,-1.3328 -2.7141,-2.5536 -4.2712,-3.021c0.0428,-0.4028 -0.0817,-1.1447 0.0561,-1.5162c0.1786,-0.4921 0.9224,-0.5177 1.2663,-0.9129c0.5928,-0.6764 -0.399,-1.7794 0.1302,-2.6866c0.2707,-0.4636 0.8578,-0.8997 1.2758,-1.2303c0.8712,-0.6906 1.6521,-1.0374 2.5631,-1.6625c1.3414,-0.9196 2.4643,-1.7119 3.7506,-2.7939c0.8731,-0.7325 2.4691,-1.9608 2.8253,-3.0134c0.4712,-1.3889 0.9823,-2.7284 1.5865,-4.0964c1.0118,-2.2952 1.4013,-4.8213 2.87,-6.8372c0.4664,-0.6412 0.778,-1.3718 1.2587,-1.9931c0.4722,-0.6137 0.6897,-1.3794 1.1286,-1.9921c0.4228,-0.589 1.0365,-1.0374 1.6616,-1.3452c0.6906,-0.3382 0.9823,-0.6774 1.4611,-1.1771" fill="#82654f" stroke-width="0.95"/><path d="M253.62642,178.83245c0.7714,1.1077 0.931,2.2981 1.9114,3.5046c1.2654,1.5627 1.2483,2.8281 2.0473,4.6084c0.5994,1.3348 0.8284,2.1746 1.007,3.6585c0.1662,1.3832 0.5956,2.7863 0.8996,4.1524c0.6061,2.717 1.2664,6.3261 1.7765,8.9509c0.608,3.1265 1.2417,5.4226 1.3889,8.4227c0.1121,2.2781 0.2271,6.5246 0.741,8.323c1.5172,0.1871 0.6441,5.1946 0.6403,6.5217c-0.0066,2.5726 -0.4275,4.4289 0.7771,6.5721c0.5976,1.064 1.7946,3.6385 2.3978,4.7652c0.5235,0.9728 1.5466,1.5409 1.901,2.603c0.3629,1.0887 -0.1216,2.4976 0.3135,3.5616c0.3904,0.9547 1.8211,1.6216 2.4747,2.3883c0.5339,0.6241 1.2474,0.8483 1.7803,1.4354c0.4665,0.5187 1.1951,0.7847 1.4326,1.4326c0.476,1.2996 0.9947,1.3728 0.8674,2.6106c-0.1577,1.52 -0.9215,2.4776 -0.6365,3.952c0.3049,1.5903 -0.5102,2.8177 -0.8227,3.9292c-1.748,0.1017 -3.1122,-0.1368 -4.7586,0.3743c-0.2052,1.2996 -2.4082,3.6794 -3.6062,4.2237c-1.5504,0.7068 -3.9548,0.6213 -5.6753,0.5377c-2.2182,-0.1054 -4.6227,-0.1102 -6.7621,-0.8255c-1.329,-0.4484 -2.4576,-1.9181 -3.7449,-1.9979c0.2907,-2.5317 1.1638,-4.8801 0.0827,-7.5088c-0.4703,-1.1466 -1.3709,-2.4386 -1.2901,-3.7496c0.0741,-1.1752 0.5329,-2.3826 0.5329,-3.7174c-0.0028,-2.5412 -0.7704,-4.9362 -1.4535,-7.3359c-0.4009,-1.4069 -0.5624,-2.4928 -0.8483,-3.9444c-0.2385,-1.2179 -1.216,-2.3807 -1.2778,-3.5862c-0.2584,-5.1148 -0.6916,-4.8669 -1.1989,-7.3027c-0.1938,-0.931 -0.4218,-1.7233 -0.7334,-2.6096c-0.4208,-1.1989 -0.797,-2.3864 -1.083,-3.6974c-0.0731,-0.0361 0.0162,-0.0713 -0.1681,0.0579c-0.2062,0.1473 -1.1201,2.3066 -1.3053,2.7009c-0.3914,0.8265 -0.5149,1.7888 -0.5634,2.7521c-0.0532,1.0517 0.3772,2.1641 0.1321,3.1863c-0.2252,0.932 -1.0621,1.9998 -1.5932,2.7911c-0.6384,0.9491 -1.6216,1.6986 -2.355,2.5498c-0.4465,0.5206 -0.9196,0.628 -1.2939,1.2018c-0.2831,0.436 -1.3205,1.4924 -1.5447,1.8202c-1.4982,2.1726 -3.3412,5.2706 -5.321,7.106c-1.4753,1.3708 -3.2423,2.7559 -3.4266,4.8488c-0.1644,1.8791 1.2568,4.5334 0.0028,5.9403c-0.9956,1.1125 -2.0596,0.6831 -1.292,2.3978c0.4988,1.1277 -0.0874,1.5751 -0.6308,2.8481c-0.4436,1.0355 -1.14,1.7661 -1.976,2.6638c-0.7343,0.7866 -0.8217,1.273 -1.2768,2.1214c-0.6897,0.2983 -3.7278,1.4231 -4.4688,1.5437c-6.2861,1.027 -9.8249,-0.2375 -11.3439,-0.8512c-1.2417,-0.5035 -2.0986,-1.0041 -2.8263,-2.1983c-0.8008,-1.3119 -1.5874,-2.6505 -5.5033,-3.7344c-2.3855,-0.6612 -0.6859,-0.1976 -2.1261,-0.9301c-0.6717,-1.8734 1.3072,-4.3643 2.3398,-5.8482c0.3183,-0.4579 0.5453,-1.2787 0.6289,-1.8382c0.076,-0.5197 -0.0484,-1.2331 0.0846,-1.463c0.3952,-0.6812 2.4738,-0.4551 3.1464,-0.6726c0.0038,-0.5472 0.0788,-1.121 0.2546,-1.6036c0.7239,-2.0007 2.2847,-4.0556 3.6005,-5.6221c1.4867,-1.7756 2.451,-2.9365 4.104,-4.5876c0.9395,-0.9443 1.8734,-1.6986 2.8319,-2.7113c0.9747,-1.025 2.1176,-1.9209 3.097,-2.9516c0.6926,-0.7296 1.8202,-1.9361 2.4738,-2.6657c0.3164,-0.3534 -0.2812,-1.0099 0.02,-1.957c0.3002,0.0608 0.2964,-2.0359 1.405,-1.4041c1.3262,-2.0834 1.2464,-4.3577 2.1765,-6.5816c1.1029,-2.6382 1.9636,-5.0797 2.5868,-7.8926c0.7315,-3.2908 1.6141,-7.7967 1.8031,-11.7762c0.1321,-2.7968 0.3107,-5.0208 0.3924,-7.8565c0.0693,-2.4444 0.2346,-5.1167 1.1903,-7.4243c0.476,-1.1495 0.5605,-2.4101 1.2208,-3.4751c0.5557,-0.8977 1.7081,-2.0406 1.6834,-3.1825c0.8056,0.21 1.6701,0.8123 2.3949,1.2103c1.5447,0.8465 1.692,1.1391 3.0011,1.4507c1.6463,0.3923 3.2737,0.9234 4.9172,1.3632c0.8635,0.2318 1.6055,0.3582 2.5488,0.3696c4.0565,0.0475 8.7277,-0.9567 11.819,-2.1242" fill="#c6cda6" stroke-width="0.95"/><path d="M245.01562,182.96115c0.6327,0.1824 1.217,0.6166 1.7803,0.9766c0.2784,0.1777 0.6052,0.3268 0.8712,0.5083c0.4465,0.2992 0.2964,0.4455 0.265,0.9386c-0.0427,0.7153 0.0171,1.2663 -0.2574,1.9304c-0.2917,0.7096 -0.6308,1.4468 -1.007,2.1061c-0.3344,0.5852 -0.7743,1.4535 -1.2692,1.9333c-0.5748,0.5576 -0.9082,1.1286 -1.4326,1.7356c-0.2223,0.2565 -0.7325,0.6413 -0.9386,0.9092c-0.3078,0.3999 -0.475,0.4237 -0.8788,0.7077c-0.2964,0.2062 -0.6859,0.437 -0.9699,0.6603c-0.2394,0.1909 -0.4342,0.1092 -0.684,0.2802c-0.3876,0.2613 -0.9776,0.6422 -1.4108,0.817c-0.3087,0.1273 -0.7913,0.3107 -1.1029,0.4256c-0.6479,0.2385 -1.2113,0.3164 -1.8601,0.5263c-0.8911,0.2888 -1.8221,0.2432 -2.7284,0.3449c0.0399,-0.9833 -0.7809,-1.7347 -0.7942,-2.6771c0.5842,-0.2328 1.2008,-0.324 1.7613,-0.6194c0.6764,-0.3582 1.444,-0.5605 2.1365,-0.9006c0.4817,-0.2375 1.0203,-0.3981 1.5086,-0.6432c0.7448,-0.3743 1.368,-0.8018 2.0416,-1.2901c0.4607,-0.3353 0.8987,-0.5909 1.2549,-1.0678c0.3107,-0.4142 0.6109,-0.7381 0.9747,-1.1058c0.7249,-0.7296 1.1182,-1.3822 1.5419,-2.3066c0.3667,-0.7999 1.1191,-1.6235 1.12,-2.5251c0,-0.3619 -0.2223,-1.5086 0.076,-1.7052" fill="#4e3a78" stroke-width="0.95"/><path d="M282.3259,260.53911c-0.0076,-0.0048 0.1739,0.1225 0.1767,0.1273c0.1368,0.1976 -0.0665,0.6764 -0.1672,0.8806c-0.113,0.2318 -0.2764,0.2755 -0.4455,0.4646c-0.1644,0.1862 -0.2423,0.4446 -0.3886,0.645c-0.4199,0.5767 -0.9785,1.1657 -1.4649,1.6749c-1.2017,1.2559 -2.8747,1.804 -4.5267,2.2999c-1.3661,0.4085 -2.6125,0.8256 -4.0394,1.0308c-1.2502,0.1776 -2.4795,0.2935 -3.7335,0.3524c-1.3671,0.0608 -2.7645,-0.1634 -4.123,-0.0389c-0.7097,0.0646 -1.4269,0.0798 -2.1147,0.2508c-0.4617,0.1159 -1.0887,0.133 -1.4412,0.4902c0.001,0.037 0.0304,0.0304 0.0314,0.075c-0.3591,0.3373 -1.1619,0.343 -1.6359,0.4931c-0.3449,0.1054 -0.6755,0.2109 -1.0089,0.3458c-0.5824,0.2308 -1.406,0.4902 -2.0387,0.5529c-1.6074,0.1624 -1.7518,-1.274 -1.8991,-2.2724c-0.1197,-0.8047 0.209,-1.4431 0.3762,-2.1974c0.0789,-0.3477 0.0095,-0.8464 0.4351,-0.9918c0.2784,-0.0978 0.8218,0.0523 1.121,0.0751c0.9643,0.0893 1.9152,0.2375 2.908,0.1767c1.2853,-0.0808 2.4709,0.1833 3.7563,0.2574c1.0393,0.0618 2.1403,0.1055 3.1549,-0.1311c0.969,-0.2289 1.5751,-0.7761 2.2164,-1.4421c0.3334,-0.3505 0.5529,-0.7885 0.8559,-1.1656c0.2755,-0.3363 0.7268,-0.5615 1.0042,-0.8655c0.2802,-0.3049 0.4484,-0.7552 0.8312,-0.9908c0.3572,-0.2185 0.9557,-0.3202 1.3519,-0.4551c1.6169,-0.5491 3.3772,0.419 4.9314,0.5738c1.0346,0.1026 2.1024,0.0494 3.1293,-0.0427c0.5254,-0.0456 1.065,-0.02 1.5837,-0.0855c0.3971,-0.0523 0.9025,-0.191 1.2882,-0.0447" fill="#000000" stroke-width="0.95"/><path d="M282.49692,260.71485c0.3715,0.8341 0.552,1.4792 0.6536,2.3912c0.0456,0.4123 0.1387,0.6764 0.0542,1.0858c-0.0931,0.4418 0.0788,0.8379 -0.0988,1.2464c-0.1511,0.3411 -0.3924,0.6194 -0.5054,0.9595c-0.1378,0.4047 -0.7562,0.8503 -1.0982,1.0963c-0.9842,0.7002 -1.8924,1.0678 -3.0286,1.4231c-1.3063,0.4076 -2.5441,0.6546 -3.9055,0.6992c-1.0953,0.0361 -2.1242,-0.2061 -3.2138,-0.0446c-2.4919,0.3714 -4.7966,1.2169 -7.1288,2.0852c-1.9295,0.7182 -3.838,1.4345 -5.8482,1.6939c-0.4617,0.0589 -0.8949,0.0598 -1.3623,0.0855c-0.3259,0.0171 -0.7638,0.1786 -1.0849,0.0874c-0.5111,-0.1454 -0.7524,-1.2388 -0.9234,-1.7338c-0.2622,-0.7552 -0.5862,-1.3471 0.4018,-1.5637c0.9272,-0.2023 1.8383,-0.5538 2.7351,-0.8711c0.8749,-0.3088 1.6273,-0.8807 2.5184,-1.1837c0.8569,-0.2974 2.1214,-0.2062 3.0267,-0.2052c1.3272,0.0019 2.6847,0.0684 4.0005,-0.0333c0.5586,-0.0437 1.1267,-0.0399 1.6872,-0.0988c0.6916,-0.0655 1.0535,-0.0199 1.7375,-0.0589c2.1926,-0.1254 4.7994,-0.9709 6.7412,-2.0216c1.1543,-0.6251 1.9865,-1.4307 2.9612,-2.2021c0.5177,-0.4104 0.5462,-0.7334 0.8037,-1.2806c0.2251,-0.4788 0.7315,-0.8559 0.7581,-1.4155c0.0798,-0.0256 0.1757,-0.0864 0.2546,-0.0959" fill="#ffffff" stroke-width="0.95"/><path d="M213.29802,265.83824c-0.0162,0.8388 1.5865,1.4079 2.1603,1.7489c0.7286,0.4313 1.501,0.817 2.2667,1.2046c0.9709,0.4959 2.0786,0.6213 3.0827,1.0441c0.2784,0.1168 0.6869,0.228 0.7344,0.5206c0.0855,0.4883 -0.7163,1.0478 -1.0412,1.2568c-0.5235,0.3306 -1.0811,0.7154 -1.6597,0.9149c-0.8474,0.2907 -1.6957,0.55 -2.5526,0.7068c-0.9766,0.1786 -1.6777,0.2204 -2.679,0.1634c-0.7724,-0.0466 -1.8126,-0.096 -2.5707,-0.2774c-1.3053,-0.3183 -2.3959,-0.4997 -3.687,-0.8047c-0.835,-0.1938 -1.5599,-0.4588 -2.3512,-0.8008c-0.7961,-0.3382 -1.8107,-0.9177 -2.566,-1.3405c-1.824,-1.0203 -3.1948,-2.2914 -4.8136,-3.61c-1.3794,-1.1219 -2.4472,-1.9731 -3.4409,-3.4437c-0.4845,-0.7173 -0.9909,-1.2873 -1.1695,-2.1461c-0.095,-0.455 -0.0389,-0.8379 0.2271,-1.2188c0.2717,-0.3876 0.74,-1.255 1.2416,-1.2398c0.5225,0.0171 1.7879,0.3354 2.4482,0.5919c0.5225,0.2023 1.0649,0.3762 1.5637,0.6089c0.4997,0.2318 0.7125,0.5254 1.1172,0.8693c0.3952,0.3382 0.8436,0.5519 1.1818,0.9699c0.3334,0.4123 0.5975,0.7933 0.9462,1.1875c0.4978,0.5653 1.1096,1.2322 1.7451,1.673c1.2407,0.8607 3.0533,1.0478 4.5059,1.311c1.6891,0.3068 3.4532,0.2831 5.1756,0.2831" fill="#000000" stroke-width="0.95"/><path d="M221.80812,270.60911c0.2223,0.1624 -0.0399,0.8474 -0.0855,1.1305c-0.0694,0.4408 -0.1672,0.8901 -0.3487,1.3024c-0.2736,0.6223 -0.418,1.464 -0.7913,2.0292c-0.5634,0.8588 -2.0473,1.1799 -3.0286,1.3139c-1.7309,0.2337 -3.5777,0.1757 -5.3191,0.0855c-1.7841,-0.0922 -3.7363,-0.3496 -5.4824,-0.7325c-1.6616,-0.3638 -3.2481,-0.6298 -4.6949,-1.5152c-0.5339,-0.3259 -1.0232,-0.5311 -1.349,-1.0963c-0.2964,-0.513 -0.76,-1.0792 -1.102,-1.5837c-0.8085,-1.1922 -1.464,-1.8487 -2.6068,-2.6951c-0.6954,-0.5159 -1.4754,-1.35 -2.1413,-1.9618c-0.3582,-0.3306 -0.6536,-0.722 -1.0488,-1.0089c-0.3373,-0.247 -0.6612,-0.7837 -0.9785,-1.0602c-0.8968,-0.7856 -1.7281,-1.2416 -1.7879,-2.3645c-0.0266,-0.4532 0.6089,-1.331 0.8208,-1.7404c0.2451,-0.4665 0.4949,-1.0013 0.8673,-0.4361c0.2071,0.3135 0.3173,0.7591 0.456,1.1248c0.1881,0.4912 0.3069,0.7135 0.6603,1.083c0.4446,0.4617 0.5035,0.8341 0.9538,1.2901c0.4056,0.4095 0.9215,1.0688 1.348,1.4535c0.4997,0.4532 1.0042,0.8664 1.4763,1.3348c0.4351,0.4313 1.0061,0.6431 1.445,1.0887c1.9361,1.956 5.2782,3.8551 8.018,4.5248c0.8312,0.2033 1.101,0.2936 1.9988,0.4874c1.2179,0.266 2.4301,0.6963 3.6869,0.7628c1.9817,0.1064 4.1411,0.0475 5.9622,-0.8512c0.418,-0.2033 0.8189,-0.5111 1.2464,-0.7353c0.2774,-0.1463 0.513,-0.3078 0.7771,-0.4864c0.3658,-0.2432 0.8683,-0.3638 1.1286,-0.7381" fill="#ffffff" stroke-width="0.95"/><path d="M232.41962,195.06035c3.0219,-1.0393 6.0372,-2.0966 8.3809,-4.3681c2.0282,-1.9655 4.1477,-4.7671 4.0622,-7.7292c-0.0019,-0.0836 0.3809,-0.0256 0.3847,0.1036c0.0846,3.0039 -2.0786,5.7399 -4.0878,7.7653c-2.2952,2.3123 -5.4226,3.3592 -8.4284,4.3909c-0.0988,0.0351 -0.4465,-0.1178 -0.3116,-0.1625zM248.29982,184.92675c0.0997,3.2015 -2.4149,6.4771 -4.5505,8.6488c-2.6999,2.7426 -6.5512,4.0147 -10.3009,4.3529c-0.0978,0.0076 -0.4474,-0.1606 -0.2441,-0.1786c3.7734,-0.342 7.4299,-1.6359 10.184,-4.313c2.1584,-2.0986 4.6255,-5.4549 4.5277,-8.6127c-0.0029,-0.0855 0.3809,-0.0276 0.3838,0.1026zM245.29302,182.95455c0.989,0.7115 2.2287,1.0725 3.0809,1.9703c0.0978,0.0988 -0.2812,0.0598 -0.3525,-0.0152c-0.8312,-0.874 -2.0605,-1.2293 -3.0276,-1.9219c-0.1663,-0.1187 0.2194,-0.0912 0.2992,-0.0332zM232.80912,195.21525c0.4037,0.7771 0.8274,1.6881 0.7543,2.5887c-0.0076,0.095 -0.3952,0.0209 -0.3848,-0.1026c0.0722,-0.8797 -0.3562,-1.7841 -0.7505,-2.546c-0.0418,-0.0798 0.3259,-0.0465 0.381,0.0599z" fill="#000000" stroke-width="0.95"/><path d="M217.84752,224.32515c2.5926,-7.3188 5.1956,-14.8704 6.0715,-22.6195c0.5139,-4.5686 0.0722,-9.1827 0.6688,-13.7503c0.2935,-2.2278 0.8521,-4.4698 1.5874,-6.5892c0.6441,-1.8525 1.9323,-3.4314 2.5118,-5.2801c0.0333,-0.1036 0.5406,0.0427 0.514,0.1387c-0.5301,1.6843 -1.6825,3.1863 -2.3475,4.8374c-0.8322,2.0672 -1.3119,4.3339 -1.6777,6.5236c-0.7818,4.7111 -0.2565,9.52 -0.7438,14.2548c-0.7933,7.7377 -3.4856,15.333 -6.0715,22.6214c-0.038,0.1083 -0.5443,-0.0485 -0.513,-0.1368zM253.61032,178.41445c1.8582,2.8519 3.3677,5.7722 4.3652,9.0288c1.064,3.4799 1.8592,7.0367 2.5242,10.6125c1.4478,7.7672 2.8253,15.7614 3.0884,23.6635c0.0038,0.0599 -0.5063,0 -0.5111,-0.1387c-0.2603,-7.7586 -1.6349,-15.5619 -3.0029,-23.1933c-0.6688,-3.7249 -1.5181,-7.4166 -2.603,-11.0418c-0.9757,-3.2595 -2.5118,-6.1826 -4.3634,-9.0279c-0.0266,-0.0389 0.4237,-0.0247 0.5026,0.0969zM253.61692,178.43535c1.5485,8.0114 -0.0304,15.9648 -2.8595,23.4992c-1.4031,3.7411 -3.1084,7.3616 -4.8488,10.9545c-0.8512,1.7603 -1.7204,3.5064 -2.5669,5.2658c-0.8284,1.7214 -1.4677,3.5103 -2.4899,5.131c-0.0741,0.1187 -0.5444,-0.0855 -0.513,-0.1387c1.0184,-1.6131 1.69,-3.4039 2.4899,-5.1281c0.8199,-1.7708 1.7148,-3.5103 2.5669,-5.2659c1.7452,-3.5938 3.4238,-7.2228 4.8488,-10.9544c2.8681,-7.5041 4.4042,-15.5221 2.8605,-23.5021c-0.0095,-0.0342 0.4816,-0.0104 0.512,0.1387zM221.81282,228.20875c-1.9712,0.1111 -4.4032,-1.8582 -3.8769,-3.972c0.0247,-0.0988 0.5377,0.0352 0.513,0.1378c-0.4161,1.6805 1.3053,3.7401 3.0286,3.6404c0.0978,-0.0057 0.5814,0.1795 0.3353,0.1938zM218.38142,230.27595c-0.9927,-1.3234 -2.5317,-2.8063 -2.1812,-4.6123c0.1986,-1.0241 1.3633,-1.8249 2.1565,-0.9528c0.0162,0.0171 -0.4037,0.0152 -0.5035,-0.0988c-0.4104,-0.4503 -1.0535,0.9462 -1.1371,1.1865c-0.2166,0.6289 0.038,1.3319 0.2964,1.9038c0.4455,0.989 1.234,1.8126 1.8781,2.6714c0.019,0.0295 -0.4189,0.02 -0.5092,-0.0978zM244.93492,227.26725c-0.8446,-1.1086 -0.5273,-2.2667 -0.9776,-3.5397c-0.551,-1.5551 -1.2739,-3.0609 -1.5019,-4.712c-0.0076,-0.0427 0.493,-0.0076 0.513,0.1378c0.2223,1.6093 0.8806,3.1806 1.4924,4.6702c0.4997,1.2179 0.1482,2.4491 0.9804,3.5425c0.0219,0.0247 -0.4161,0.0181 -0.5063,-0.0988zM199.54862,248.27465c0.495,-1.9703 1.6711,-3.8257 2.7199,-5.548c1.1875,-1.9428 2.7046,-3.6756 4.2655,-5.3238c3.21,-3.3896 6.9198,-6.2957 9.9161,-9.8924c0.0959,-0.1149 0.5339,0.1064 0.512,0.1387c-2.7084,3.2547 -5.9964,5.9565 -8.9822,8.9405c-1.8221,1.8192 -3.5274,3.7506 -4.9562,5.8976c-1.1761,1.7708 -2.4415,3.8503 -2.9621,5.927c-0.0247,0.0969 -0.5386,-0.0361 -0.513,-0.1396zM193.28532,257.29483c0.5852,-1.6359 1.1162,-3.2423 2.1726,-4.6436c0.9168,-1.2122 1.3167,-2.4738 1.3452,-3.9852c0.0038,-0.0057 0.0114,-0.0105 0.0152,-0.0162c1.0089,-0.3353 1.9998,-0.5082 3.0628,-0.4788c0.0979,0.0048 0.5776,0.2024 0.3363,0.1929c-0.5728,-0.0181 -1.1286,0.0256 -1.69,0.1178c-0.95,0.1548 -1.1885,0.6593 -1.2863,1.4839c-0.095,0.7951 -0.4313,1.519 -0.8389,2.1964c-0.5016,0.835 -1.1058,1.5551 -1.5323,2.4386c-0.438,0.9063 -0.7325,1.8829 -1.0707,2.8301c-0.0399,0.1092 -0.5434,-0.0485 -0.5139,-0.1359zM220.13892,264.1529c-2.7854,1.0098 -5.2696,2.1071 -8.3001,1.9798c-2.5147,-0.1017 -5.4948,-0.3211 -7.8166,-1.3984c-2.5859,-1.1999 -3.6366,-4.3054 -6.2795,-5.2896c-0.8807,-0.3268 -4.3472,-0.9994 -4.3919,-2.281c-0.0019,-0.0608 0.5083,-0.0009 0.514,0.1378c0.0408,1.2084 3.7069,1.8876 4.6768,2.299c1.8259,0.7742 2.8662,2.8994 4.2902,4.1705c2.1955,1.9589 6.2149,2.0729 9.0146,2.1888c2.8224,0.1159 5.2288,-1.0365 7.808,-1.9713c0.1397,-0.0541 0.5102,0.1539 0.4845,0.1644zM222.20612,253.69435c0.5805,0.7638 1.1391,1.5447 1.6967,2.3275c0.3933,0.5548 0.7724,0.8113 0.4959,1.4763c-0.9984,2.395 -2.8861,4.3339 -4.0489,6.6377c-0.0589,0.1159 -0.5472,-0.0703 -0.5139,-0.1387c1.0925,-2.1651 2.6486,-4.0841 3.8209,-6.2149c0.494,-0.893 0.2764,-1.0944 -0.2622,-1.8582c-0.5567,-0.78 -1.1134,-1.5628 -1.6958,-2.3256c-0.018,-0.0295 0.418,-0.0219 0.5073,0.0959zM225.52922,247.80725c0.0095,0.9319 0.0637,1.8553 0.1606,2.7844c0.0959,0.9054 0.4512,1.9285 0.323,2.8339c-0.1549,1.0887 -1.9903,1.3252 -2.4083,2.3503c-0.0465,0.1083 -0.5434,-0.0589 -0.5139,-0.1387c0.4446,-1.0811 1.7271,-1.2027 2.3284,-2.1366c0.399,-0.6222 -0.0959,-1.9275 -0.1843,-2.5925c-0.1425,-1.0773 -0.2061,-2.1556 -0.2175,-3.2357c-0.0019,-0.0665 0.5111,-0.001 0.512,0.1349zM241.22892,222.67305c-0.0085,2.3589 0.2366,4.979 -1.2074,6.9521c-0.6166,0.8484 -1.407,1.5884 -2.1252,2.3513c-1.0592,1.1314 -2.0244,2.3522 -3.0324,3.5264c-1.7774,2.0757 -3.2062,4.4232 -4.8887,6.5797c-0.7039,0.9034 -1.4326,1.8724 -2.2182,2.7018c-0.8512,0.8996 -1.8449,1.8069 -2.2297,3.0248c-0.0323,0.1035 -0.5415,-0.0447 -0.512,-0.1378c0.2593,-0.8284 0.8521,-1.6036 1.4364,-2.2372c0.9281,-1.0089 1.8525,-2.034 2.7122,-3.1065c1.71,-2.1356 3.1312,-4.4888 4.8726,-6.5911c1.6815,-2.0321 3.4722,-3.9444 5.2174,-5.9195c1.7413,-1.9712 1.4506,-4.8032 1.4611,-7.2779c0.0019,-0.0703 0.5149,-0.001 0.5139,0.1339zM229.57722,235.63865c2.6524,-1.7499 5.3722,-3.4171 8.4284,-4.3567c0.1102,-0.0332 0.5586,0.1435 0.4246,0.1853c-3.0333,0.9329 -5.7361,2.602 -8.3676,4.3377c-0.114,0.0788 -0.5386,-0.1311 -0.4854,-0.1663zM232.12412,230.13245c-0.7818,-1.2521 -1.14,-2.6381 -0.873,-4.104c0.1216,-0.6678 0.4892,-1.4174 1.2768,-1.2264c2.8661,0.6954 0.7723,5.6772 3.0286,7.0053c0.2128,0.1244 -0.3021,0.0503 -0.3867,0c-1.5751,-0.9282 -1.3623,-3.9017 -1.7195,-5.4255c-0.0931,-0.3971 -0.2745,-0.7638 -0.4845,-1.1096c-0.7144,-1.1761 -1.2473,1.1286 -1.272,1.2692c-0.2328,1.274 0.2688,2.6249 0.931,3.6879c0.0304,0.0409 -0.4256,0.0247 -0.5007,-0.0969zM268.41512,240.49315c-1.9998,-2.9345 -3.9587,-6.1056 -4.5999,-9.652c-0.323,-1.7898 -0.4133,-3.6138 0.0589,-5.3798c0.5225,-1.9599 0.4493,-3.6946 -0.7828,-5.377c0.1681,0.0332 0.3353,0.0627 0.5044,0.0969c0.0133,0.075 0.0456,0.1406 0.0988,0.1976c0.0257,0.0351 -0.4199,0.0228 -0.5044,-0.0969c-0.0532,-0.0589 -0.0855,-0.1226 -0.0988,-0.1976c-0.0323,-0.1017 0.4446,0.0152 0.5044,0.0969c1.0251,1.4012 1.3481,2.9108 1.0089,4.6141c-0.3686,1.8563 -0.6526,3.4115 -0.4161,5.3238c0.4769,3.8646 2.584,7.3198 4.7329,10.4719c0.0238,0.0361 -0.4246,0.0247 -0.5063,-0.0979zM245.44412,227.38415c-0.0323,1.3461 0.1434,2.7113 0.3477,4.0375c0.284,1.842 1.1286,3.5454 1.5722,5.3599c0.5159,2.1175 1.0203,4.2484 1.4564,6.383c0.2375,1.1666 0.493,2.3323 0.5738,3.5217c0.0874,1.2882 -0.02,2.5393 0.2479,3.8171c0.0209,0.0978 -0.4797,0.0199 -0.5044,-0.0969c-0.437,-2.0938 -0.2223,-4.2532 -0.6242,-6.3679c-0.4978,-2.621 -1.1343,-5.2269 -1.7651,-7.8175c-0.3847,-1.578 -1.1191,-3.0353 -1.4155,-4.6294c-0.2612,-1.4117 -0.4351,-2.906 -0.3999,-4.3415c0,-0.0731 0.5149,0.001 0.5111,0.134zM275.5648,251.53695c-0.5529,-1.3186 -0.9282,-2.242 -2.0378,-3.2281c-0.8977,-0.7952 -1.9209,-1.445 -2.849,-2.204c-0.6394,-0.5216 -1.5799,-1.3186 -1.7509,-2.1641c-0.2432,-1.216 0.172,-2.4786 -0.512,-3.591c-0.0257,-0.0428 0.4294,-0.0266 0.5044,0.0959c0.5558,0.9092 0.4066,1.881 0.4171,2.9061c0.0152,1.4867 1.3585,2.4728 2.4263,3.3079c0.9481,0.741 1.937,1.4079 2.8091,2.242c0.8142,0.779 1.0726,1.7252 1.4963,2.736c0.0285,0.0646 -0.4522,0.0256 -0.5035,-0.1007zM276.07212,251.45805c-0.1606,1.5666 -0.5216,3.117 -0.4741,4.6949c0.0418,1.3965 0.1245,2.9954 -0.817,4.1373c-0.095,0.1159 -0.5358,-0.1064 -0.513,-0.1387c0.9415,-1.1438 0.8569,-2.7408 0.8161,-4.1363c-0.0456,-1.578 0.3135,-3.1274 0.475,-4.6959c0.0095,-0.0798 0.5272,0.0152 0.513,0.1387zM274.50651,260.29114c-3.022,-0.7011 -4.5249,0.5206 -6.1817,2.813c-0.5852,0.8094 -1.2103,1.577 -2.1432,1.9912c-0.8569,0.38 -2.1755,0.2023 -3.0761,0.1786c-2.7654,-0.0846 -5.5527,-0.02 -8.3001,-0.3867c-1.7813,-0.2384 -3.174,-1.4554 -4.6218,-2.4044c-0.2071,-0.1349 0.305,-0.0532 0.3886,0.0009c0.8483,0.5548 1.652,1.1742 2.5336,1.6787c1.596,0.9177 4.0347,0.7752 5.8197,0.8464c1.2816,0.0494 2.5612,0.0323 3.8447,0.0741c1.5219,0.0494 2.9307,0.1378 4.0992,-0.9623c1.2464,-1.1695 1.8639,-2.7959 3.3592,-3.7316c1.2863,-0.8028 2.9251,-0.5558 4.3149,-0.2328c0.3002,0.0675 0.2613,0.2033 -0.037,0.1349zM249.40462,250.27435c-0.6916,2.0311 0.8246,4.2912 1.2531,6.2767c0.4275,1.9807 0.2479,3.9577 -0.2708,5.9004c-0.0266,0.0998 -0.5396,-0.038 -0.513,-0.1387c0.6137,-2.299 0.6356,-4.4697 0.0656,-6.7858c-0.4399,-1.7898 -1.691,-3.5065 -1.0488,-5.3951c0.037,-0.1026 0.5434,0.0513 0.5139,0.1425zM271.22712,247.82525c-1.4108,0.7638 -2.4415,2.0872 -3.554,3.2148c-0.6498,0.6574 -1.3024,1.3025 -1.994,1.9162c-0.5377,0.4788 -1.3728,1.3271 -2.1119,1.4506c-0.6678,0.1121 -1.177,-0.3638 -1.405,-0.9357c-0.4541,-1.1372 0.7258,-2.6619 1.3195,-3.5321c0.0798,-0.1178 0.5434,0.0959 0.513,0.1387c-0.5557,0.8122 -1.0744,1.6302 -1.3271,2.5925c-0.1131,0.4342 -0.0751,1.7547 0.7809,1.4355c0.6146,-0.2261 1.2521,-0.8978 1.748,-1.3177c1.8867,-1.5874 3.3601,-3.9472 5.547,-5.1281c0.1245,-0.0722 0.5301,0.1406 0.4836,0.1653z" fill="#000000" stroke-width="0.95"/><path d="M264.45742,164.1559c4.0812,2.2629 7.6009,5.1993 11.9804,6.9264c0.3382,0.133 0.0228,0.2375 -0.1881,0.1549c-4.4251,-1.7461 -7.9724,-4.6921 -12.0963,-6.9787c-0.3002,-0.1663 0.1653,-0.1786 0.304,-0.1026zM255.94252,169.04935c2.7873,0.5919 5.5385,1.8212 8.1814,2.869c2.8909,1.1495 5.7494,2.3807 8.6403,3.5321c0.3382,0.1349 0.0228,0.2385 -0.1853,0.1549c-2.6495,-1.0536 -5.2772,-2.1689 -7.9173,-3.2405c-2.7702,-1.1248 -5.7009,-2.4681 -8.6336,-3.0894c-0.2156,-0.0437 -0.4417,-0.3002 -0.0855,-0.2261zM285.4885,171.86805c-3.0286,-0.0675 -6.0306,-0.5045 -9.0526,-0.6631c-0.1558,-0.0086 -0.5548,-0.2575 -0.2128,-0.2413c3.022,0.1586 6.024,0.5956 9.0497,0.664c0.1596,0.0038 0.5586,0.2489 0.2157,0.2404zM284.77601,183.37535c-1.3367,-0.5415 -2.6553,-1.1219 -4.0328,-1.5561c-1.3148,-0.4132 -1.8126,-0.2565 -2.8139,-1.1096c-0.9927,-0.8436 -1.881,-1.8126 -2.8167,-2.7151c-1.0498,-1.0136 -1.9304,-2.2258 -3.3345,-2.7901c-0.3363,-0.1349 -0.02,-0.2385 0.1881,-0.1549c2.0187,0.8132 3.4979,2.8301 4.997,4.3254c0.5624,0.5605 1.1343,1.0963 1.7375,1.6093c0.4731,0.4028 1.5039,0.4712 2.0938,0.6365c1.4317,0.3999 2.7949,1.0421 4.1696,1.5998c0.3353,0.1358 0.0218,0.2394 -0.1881,0.1548zM285.75922,171.75785c1.6787,2.1916 2.9878,4.6322 4.4983,6.9369c0.1111,0.17 -0.3952,0.0969 -0.4703,-0.019c-1.5114,-2.3047 -2.8205,-4.7453 -4.4982,-6.9369c-0.1178,-0.1558 0.3847,-0.0912 0.4702,0.019zM284.91852,174.98785c1.3414,1.653 2.5963,3.382 3.8712,5.0863c0.1178,0.1577 -0.3866,0.0912 -0.4702,-0.019c-1.2749,-1.7053 -2.5289,-3.4333 -3.8713,-5.0873c-0.1206,-0.1491 0.3848,-0.0874 0.4703,0.02zM287.18902,181.35475c-1.3205,-1.1362 -2.6667,-2.5441 -3.5834,-4.0271c-0.057,-0.094 0.4246,-0.0589 0.5092,0.0798c0.8844,1.4317 2.2021,2.8092 3.4751,3.9036c0.2099,0.1824 -0.3021,0.1311 -0.4009,0.0437zM288.68332,180.24895c-0.1064,0.4921 -0.5671,0.8968 -1.0288,1.0497c-0.1102,0.038 -0.2594,-0.0057 -0.3601,-0.0589c-0.0532,-0.0275 -0.17,-0.1244 -0.056,-0.1605c0.4246,-0.1406 0.835,-0.5235 0.9338,-0.97c0.0285,-0.1368 0.5434,-0.0085 0.5111,0.1397zM290.27932,178.75365c-0.3904,0.6935 -1.0108,1.2673 -1.6264,1.7613c-0.1216,0.0997 -0.5861,-0.0988 -0.4807,-0.1834c0.5976,-0.4835 1.2132,-1.0412 1.5941,-1.7166c0.0836,-0.1463 0.571,0.0361 0.513,0.1387zM287.62791,181.42595c-0.5719,0.5966 -1.0469,1.1923 -1.9095,0.9149c-0.418,-0.1321 -0.78,-0.4418 -1.122,-0.6992c-0.8502,-0.647 -1.7651,-1.2588 -2.6856,-1.8069c-0.2955,-0.1748 0.1691,-0.1834 0.3049,-0.1017c0.7505,0.4484 1.463,0.9472 2.1765,1.4497c0.3809,0.2689 0.7581,0.5396 1.1381,0.8104c0.6726,0.4759 1.2445,-0.3639 1.6159,-0.7486c0.1055,-0.1121 0.5852,0.0712 0.4817,0.1814zM284.81492,183.20625c0.2584,-0.3534 0.5643,-0.6906 0.8902,-0.9832c0.114,-0.1017 0.5861,0.0912 0.4807,0.1843c-0.3259,0.2935 -0.6318,0.6298 -0.8902,0.9832c-0.0836,0.114 -0.5785,-0.0522 -0.4807,-0.1843zM285.85902,171.88705c0.9196,0.9433 1.9475,1.5485 3.1625,2.0358c0.6603,0.2622 1.7946,0.5035 2.1917,1.1809c0.7106,1.2074 -2.1252,1.1552 -2.6714,1.0374c-0.3088,-0.0656 -0.2489,-0.2632 0.0532,-0.1986c0.6574,0.1406 1.4924,0.0912 2.0425,-0.3363c0.8113,-0.6317 -1.2426,-1.311 -1.5666,-1.4354c-1.405,-0.5387 -2.6239,-1.217 -3.6812,-2.3009c-0.1292,-0.133 0.3733,-0.0817 0.4693,0.0171z" fill="#000000" stroke-width="0.95"/><path d="M216.14612,168.72735c2.4624,-4.2969 4.6578,-8.9234 5.9023,-13.7313c0.02,-0.0836 0.4057,0.019 0.3829,0.1016c-1.2455,4.8099 -3.4371,9.4354 -5.9024,13.7323c-0.0532,0.094 -0.4123,-0.0504 -0.3828,-0.1026zM219.30582,173.31965c1.1637,-2.6828 3.135,-4.8944 4.7747,-7.2894c1.3955,-2.0292 2.7426,-4.0935 4.0707,-6.1645c0.0599,-0.096 0.4152,0.0579 0.3848,0.1007c-1.3291,2.0748 -2.6809,4.1344 -4.0708,6.1664c-1.6368,2.3997 -3.6119,4.6037 -4.7775,7.2894c-0.038,0.0921 -0.4095,-0.0371 -0.3819,-0.1026zM214.53392,181.77555c1.3804,-2.9393 3.2158,-5.6135 4.7728,-8.455c0.0494,-0.0931 0.4133,0.0504 0.381,0.1026c-1.5561,2.8424 -3.3896,5.5167 -4.77,8.455c-0.0418,0.0922 -0.4113,-0.0418 -0.3838,-0.1026zM207.87062,179.75965c2.1964,-2.2923 2.8253,-5.566 4.1582,-8.341c0.4835,-1.0041 1.121,-1.8401 2.1337,-2.336c1.1096,-0.5415 2.3883,-0.1463 3.4903,-0.6365c0.1026,-0.0456 0.3999,0.113 0.3629,0.132c-1.1011,0.4883 -2.3484,0.2024 -3.4903,0.6356c-1.3395,0.5092 -1.9789,1.9959 -2.528,3.1996c-1.1618,2.5441 -1.7622,5.3912 -3.7629,7.4765c-0.0675,0.0703 -0.4209,-0.0713 -0.3639,-0.1302zM213.79672,175.59585c-1.0602,0.5605 -4.4137,7.2941 -5.9375,4.313c-0.0256,-0.0513 0.3306,-0.0276 0.3772,0.0693c0.7676,1.4944 2.6894,-1.3879 3.135,-1.9883c0.5671,-0.761 1.1856,-2.0644 2.0596,-2.5242c0.1007,-0.0503 0.4075,0.1083 0.3657,0.1302zM210.93722,180.81225c0.4351,-0.4674 0.4513,-1.3005 0.6023,-1.8914c0.2575,-1.0108 0.932,-1.882 1.2721,-2.8662c0.0275,-0.0893 0.4104,0.0266 0.3819,0.1017c-0.3401,0.9927 -0.9538,1.8639 -1.2721,2.8671c-0.1957,0.6184 -0.1558,1.4164 -0.6184,1.918c-0.0665,0.0703 -0.4209,-0.0693 -0.3658,-0.1292zM206.83512,185.76275c0.1596,-2.4548 2.186,-3.7611 4.1591,-4.8308c0.0979,-0.0541 0.4057,0.1045 0.3629,0.1292c-1.9598,1.0631 -3.9786,2.3646 -4.1372,4.8051c-0.0057,0.0656 -0.3924,-0.0009 -0.3848,-0.1035zM215.06402,181.90575c-2.9212,0.9937 -5.452,2.8405 -7.9363,4.6274c-0.0589,0.0428 -0.3942,-0.0228 -0.3752,-0.1159c0.0484,-0.2175 0.095,-0.4341 0.1387,-0.6517c0.018,-0.0798 0.4037,0.0143 0.3838,0.1007c-0.0466,0.2185 -0.095,0.4351 -0.1387,0.6536c-0.1245,-0.0389 -0.2489,-0.0769 -0.3753,-0.1159c2.4985,-1.7974 5.0417,-3.6432 7.98,-4.6436c0.0912,-0.0304 0.4313,0.1074 0.323,0.1454z" fill="#010101" stroke-width="0.95"/><path d="M253.59512,136.78161c0.531,-0.4047 1.1058,-0.74 1.6245,-1.1628c0.6669,-0.5434 0.4569,-1.9256 0.4598,-2.6676c0.0085,-1.9931 -0.6802,-4.2987 -1.6692,-6.0163c-0.9794,-1.6996 -2.7227,-2.5831 -4.483,-3.2538c-2.3161,-0.8844 -4.3168,-0.9652 -6.2881,0.7505c-0.1045,0.095 -0.4645,-0.057 -0.3562,-0.151c1.4079,-1.2246 3.0675,-1.8183 4.9219,-1.369c1.8041,0.438 3.6347,1.1628 5.0939,2.3237c1.8858,1.4972 2.6154,4.0603 3.0372,6.3261c0.1187,0.6365 0.1273,1.2834 0.1244,1.9266c-0.0019,0.4313 0.1796,1.177 0.0181,1.5494c-0.4,0.9149 -1.369,1.3186 -2.1271,1.8953c-0.1111,0.0874 -0.4674,-0.0665 -0.3562,-0.1511zM231.08012,165.20854c1.2901,-1.2626 1.215,-3.1711 1.102,-4.8441c-0.1302,-1.9389 -0.286,-3.8731 -0.3591,-5.8159c-0.1558,-4.1325 -0.3192,-8.5452 0.4693,-12.6217c0.7495,-3.8779 2.6448,-7.5534 4.2037,-11.1577c1.3452,-3.1094 3.1255,-5.7694 5.8672,-7.8176c0.1131,-0.0836 0.4674,0.0703 0.3563,0.153c-2.8472,2.127 -4.5904,4.8811 -5.985,8.1054c-1.5865,3.667 -3.3839,7.3473 -4.1487,11.2955c-0.4208,2.1859 -0.4094,4.4802 -0.4189,6.6965c-0.0143,2.3028 -0.0038,4.6085 0.1083,6.9084c0.0902,1.7936 0.2926,3.5815 0.3467,5.378c0.0428,1.3974 -0.1463,2.8566 -1.1846,3.8712c-0.0998,0.1007 -0.4636,-0.0456 -0.3572,-0.151zM229.55342,171.60485c-0.1558,-1.1039 -1.4449,-2.2353 -1.2815,-3.3582c0.247,-1.6654 2.1973,-2.0036 3.096,-3.1806c0.0836,-0.1093 0.4551,0.0247 0.3563,0.1529c-0.8702,1.1372 -2.528,1.4222 -3.0296,2.8757c-0.3657,1.064 1.0887,2.4643 1.2426,3.5539c0.0228,0.1606 -0.3648,0.0922 -0.3838,-0.0437zM229.59622,176.68265c-0.8702,-0.4427 -1.5618,-1.0108 -1.3595,-2.0682c0.2223,-1.1466 1.2417,-1.9807 1.3167,-3.1834c0.0067,-0.134 0.3943,-0.0523 0.3829,0.1007c-0.115,1.8411 -2.7674,3.6689 -0.1853,4.9818c0.2375,0.1235 0.019,0.2593 -0.1548,0.1691zM254.71232,127.55625c1.9693,3.0162 3.476,6.3783 4.5714,9.804c0.9234,2.887 1.9522,6.8704 0.2109,9.6577c-0.0703,0.114 -0.4437,-0.0124 -0.3563,-0.152c1.7262,-2.7655 0.6432,-6.6823 -0.2403,-9.5513c-1.0498,-3.4077 -2.5935,-6.7574 -4.5448,-9.7442c-0.0998,-0.1548 0.2869,-0.1225 0.3591,-0.0142zM255.52172,135.77462c0.8949,2.3285 1.3623,4.6351 1.2008,7.1212c-0.0732,1.1258 0.7742,1.3642 1.538,2.109c0.7999,0.7809 1.2759,1.7794 1.4773,2.8681c0.1976,1.0611 0.2479,1.6957 0.9072,2.6115c0.8807,1.2198 1.8231,2.4026 2.1945,3.8912c0.5206,2.0995 -1.2407,5.2364 -3.6689,4.5135c-0.2289,-0.0675 -0.1776,-0.2708 0.0542,-0.2024c2.2619,0.6736 3.4029,-2.3389 3.2841,-4.0175c-0.1007,-1.4393 -1.1675,-2.7313 -1.9836,-3.8475c-0.4797,-0.6536 -0.9091,-1.1657 -1.0355,-1.9703c-0.1529,-0.969 -0.2432,-1.824 -0.722,-2.7104c-0.7638,-1.4098 -2.5279,-1.6691 -2.4291,-3.3459c0.1482,-2.4757 -0.3088,-4.7481 -1.2008,-7.0651c-0.0523,-0.134 0.3315,-0.0865 0.3838,0.0446zM262.54982,156.84185c-0.2793,1.3509 1.1856,2.9897 1.7793,4.1297c0.6213,1.196 0.3952,2.507 -0.1776,3.6651c-1.083,2.1878 -3.7088,3.5112 -5.9014,4.2712c-2.2183,0.7685 -3.9387,0.7657 -6.08,-0.2803c-1.7803,-0.8683 -3.7725,-2.5935 -3.3887,-4.7813c0.0247,-0.1378 0.4123,-0.0437 0.3848,0.1035c-0.4275,2.4273 2.0852,4.1107 4.0299,4.9001c2.3113,0.9358 4.5324,0.0903 6.6595,-0.9357c2.0396,-0.9852 3.9634,-2.5536 4.4194,-4.8726c0.2888,-1.4706 -0.6565,-2.6723 -1.3348,-3.875c-0.4056,-0.7192 -0.95,-1.5723 -0.7714,-2.4273c0.0247,-0.1396 0.4114,-0.0437 0.381,0.1026zM256.32352,165.26645c-2.4149,0.7695 -9.823,0.1121 -8.2555,-3.9102c0.1102,-0.2812 -0.1881,-0.7486 -0.0855,-0.9623c0.1824,-0.3753 0.3942,-0.6413 0.2536,-1.0422c-0.2479,-0.6935 -0.5861,-1.3537 -0.855,-2.0377c-0.4674,-1.1904 -1.1818,-3.154 0.1131,-4.0698c0.1064,-0.0751 0.4617,0.0807 0.3049,0.1909c-1.1599,0.8189 -0.5101,2.5926 -0.1301,3.668c0.2517,0.702 1.0906,1.8515 1.0345,2.6106c-0.0123,0.1748 -0.3572,0.6574 -0.3125,0.836c0.0427,0.1767 0.1387,0.4256 0.1102,0.608c-0.0846,0.5367 -0.3572,0.9262 -0.3316,1.4981c0.0314,0.6935 0.8503,1.331 1.3699,1.6673c1.8041,1.1694 4.5363,1.367 6.5512,0.7267c0.1264,-0.0399 0.4503,0.1473 0.2328,0.2166zM247.46472,153.34965c-0.2603,-0.3762 -0.3866,-0.7771 -0.5225,-1.2103c-0.3116,-0.9908 -0.7866,-1.9389 -1.2416,-2.869c-0.779,-1.5931 -1.7119,-3.1625 -2.6534,-4.6626c-1.6834,-2.6723 -5.0958,-4.1315 -4.2921,-7.846c0.0304,-0.1397 0.4161,-0.0418 0.3848,0.1007c-0.7933,3.667 2.8072,5.4131 4.4906,8.0921c0.8712,1.3841 1.6872,2.8452 2.4301,4.3016c0.2926,0.5738 0.5539,1.1656 0.8113,1.7556c0.323,0.74 0.4931,1.6653 0.9538,2.3237c0.1017,0.1501 -0.2859,0.1197 -0.361,0.0142zM253.06972,168.88695c-0.1833,0.8132 -0.4607,1.6216 -0.3876,2.469c0.0808,0.9396 0.9529,1.7309 1.5257,2.4111c0.7667,0.9092 1.14,2.0625 0.6831,3.1977c-0.7809,1.9304 -3.629,2.6543 -5.4207,3.1379c-6.5512,1.7727 -14.6262,0.3144 -20.2075,-3.5872c-0.2137,-0.1492 0.1159,-0.21 0.2404,-0.1226c5.6534,3.952 13.6268,5.2051 20.2112,3.363c1.9304,-0.5396 5.054,-1.5589 4.9999,-4.0308c-0.0276,-1.3804 -1.3063,-2.3361 -2.0188,-3.3858c-0.7533,-1.1125 -0.2793,-2.3655 -0.0123,-3.5521c0.0323,-0.1425 0.4199,-0.0437 0.3866,0.0998zM232.44622,159.16465c-1.6293,1.4639 -3.458,1.3965 -5.2497,0.2565c-2.1888,-1.3908 -3.344,-4.7301 -6.1408,-4.7785c-0.1482,-0.0029 -0.4076,-0.2309 -0.1473,-0.2261c1.8506,0.0313 2.793,0.9167 3.877,2.3208c1.7423,2.2572 4.6217,4.6864 7.3045,2.2762c0.1026,-0.0969 0.4655,0.0523 0.3563,0.1511zM226.31872,153.44081c-1.1353,0.7135 -2.3589,-0.0589 -3.2984,-0.7989c-1.312,-1.0336 -1.6806,-2.4738 -0.5795,-3.7772c1.1343,-1.3481 3.0305,-2.2658 4.4555,-3.2576c2.1014,-1.463 4.0992,-3.0713 5.623,-5.1499c0.0808,-0.1102 0.4522,0.0218 0.3563,0.1529c-1.8782,2.5612 -4.4726,4.3767 -7.0661,6.1437c-1.1201,0.7647 -2.3446,1.4658 -3.2262,2.5137c-1.4906,1.7698 1.5133,5.1851 3.4257,3.9805c0.1159,-0.0665 0.4702,0.0931 0.3097,0.1928zM220.82012,154.57324c-0.4503,-1.2255 0.113,-2.4339 1.3661,-2.8224c0.1282,-0.039 0.4531,0.1472 0.2318,0.2166c-1.1742,0.3648 -1.6236,1.5371 -1.2113,2.6524c0.0494,0.133 -0.3382,0.0864 -0.3866,-0.0466zM244.21482,123.65175c-0.7068,0.0009 -1.4108,-0.0456 -1.8193,-0.704c-0.0969,-0.1577 0.2907,-0.1244 0.3591,-0.0133c0.3078,0.4959 0.7847,0.4921 1.312,0.4912c0.1501,-0.001 0.4085,0.2261 0.1482,0.2261z" fill="#000000" stroke-width="0.95"/><path d="M254.75982,270.42672c-2.2259,-0.9643 -1.938,-4.2541 -0.7819,-5.9917c0.0827,-0.1244 0.5795,0.0371 0.4788,0.19c-0.9766,1.4697 -1.4649,4.7747 0.4959,5.6231c0.3325,0.1453 0.0238,0.2707 -0.1928,0.1786zM282.79712,260.71395c0.8123,2.5868 1.4051,5.4036 -1.405,6.9122c-0.1292,0.0693 -0.6052,-0.1264 -0.4133,-0.229c2.7379,-1.4715 2.0872,-4.2759 1.3063,-6.7564c-0.0447,-0.152 0.4645,-0.0807 0.512,0.0732zM281.86521,267.39625c-1.5333,1.1732 -3.3355,1.8895 -5.2364,2.1954c-0.9985,0.1615 -2.0131,0.0798 -3.0153,0.0228c-1.4782,-0.0807 -2.9507,0.0941 -4.3833,0.4513c-2.3142,0.5747 -4.5182,1.6444 -6.7745,2.412c-0.9756,0.3306 -1.9684,0.5966 -2.9744,0.8113c-0.5824,0.1254 -1.1723,0.2033 -1.7632,0.2717c-0.5434,0.0608 -1.3823,-0.0646 -1.8924,0.0998c-0.1435,0.0503 -0.3829,-0.0114 -0.4598,-0.1492c-0.5919,-1.0811 -0.8322,-2.0197 -0.7648,-3.2442c0.0095,-0.1387 0.5244,-0.039 0.513,0.1387c-0.0674,1.2321 0.1786,2.1185 0.7619,3.1834c-0.1539,-0.0522 -0.3078,-0.1007 -0.4617,-0.151c0.7239,-0.2366 1.6625,-0.0865 2.4339,-0.1786c1.2882,-0.1482 2.5508,-0.4912 3.7848,-0.875c2.2848,-0.7115 4.4745,-1.6948 6.7536,-2.4234c1.9228,-0.6137 3.9434,-0.6764 5.9432,-0.5463c2.5118,0.1644 5.0701,-0.6849 7.0594,-2.2078c0.1273,-0.1026 0.5938,0.0988 0.476,0.1891zM282.49602,260.5476c0.418,0.4741 -0.3382,1.4792 -0.589,1.9285c-0.4342,0.7857 -1.0688,1.4431 -1.7414,2.0245c-1.5874,1.3756 -3.6603,2.1574 -5.6553,2.7198c-2.1109,0.5957 -4.2902,0.8769 -6.479,0.9177c-1.2854,0.0247 -2.5736,0.0067 -3.8589,-0.0199c-1.3804,-0.0257 -2.8909,-0.0903 -4.1306,0.6099c-0.1283,0.0712 -0.6042,-0.1216 -0.4161,-0.229c1.6197,-0.912 3.6793,-0.6175 5.4606,-0.6251c2.4947,-0.0114 4.9238,-0.0076 7.3824,-0.494c2.1385,-0.4227 4.2503,-1.1295 6.1161,-2.2724c0.7695,-0.4693 1.4488,-1.0583 2.0539,-1.7233c0.3126,-0.3429 1.8468,-2.318 1.3842,-2.8433c-0.134,-0.153 0.3762,-0.1036 0.4731,0.0066zM282.57671,260.63311c-3.2357,0.0314 -6.7431,0.7268 -9.8125,-0.6127c-0.3306,-0.1454 -0.0219,-0.2698 0.1938,-0.1786c2.9051,1.2663 6.3422,0.5633 9.4107,0.5339c0.17,-0.001 0.5519,0.2546 0.208,0.2574zM260.32962,268.65305c-1.7508,0.7078 -3.3231,1.8003 -5.2801,1.7414c-0.1691,-0.0048 -0.5529,-0.2689 -0.208,-0.2584c1.8762,0.0579 3.4,-1.0355 5.0749,-1.711c0.1368,-0.0551 0.6061,0.1501 0.4132,0.228z" fill="#000000" stroke-width="0.95"/><path d="M194.96012,258.66005c-0.8911,0.2071 -1.5238,1.3034 -1.88,2.0653c-0.0741,0.1586 -0.5729,-0.0105 -0.514,-0.1387c0.4095,-0.8702 1.0688,-1.9485 2.0729,-2.1784c0.1416,-0.0323 0.6014,0.1881 0.3211,0.2518zM208.24972,272.6316c-3.7022,-0.9072 -7.0538,-2.8623 -9.9465,-5.3124c-2.0995,-1.7784 -5.4663,-4.2845 -5.8026,-7.2114c-0.0209,-0.1796 0.4921,-0.0779 0.5082,0.0741c0.3154,2.7341 3.2129,4.7642 5.0645,6.5113c2.8424,2.6818 6.4334,4.7851 10.2353,5.7199c0.3078,0.0751 0.246,0.2926 -0.0589,0.2185zM218.21042,276.39743c-3.0191,0.5719 -6.2301,0.3031 -9.2577,-0.113c-2.395,-0.3335 -5.2839,-0.8683 -7.2846,-2.3009c-1.1486,-0.8218 -1.9589,-2.0824 -2.8966,-3.1189c-1.4126,-1.5637 -3.0077,-2.9735 -4.5267,-4.4308c-0.6147,-0.589 -1.2198,-1.1827 -1.824,-1.7841c-0.4475,-0.4436 -1.5647,-1.2454 -1.7556,-1.8411c-0.1235,-0.3876 0.4712,-1.3499 0.6498,-1.6824c0.2954,-0.5539 0.7429,-0.97 1.2692,-1.2968c0.1415,-0.0893 0.5937,0.1188 0.4807,0.19c-0.7154,0.4456 -2.4329,2.2667 -1.5637,3.2006c1.2388,1.3309 2.5564,2.5916 3.8703,3.8494c1.9655,1.881 3.8209,3.8076 5.624,5.8415c1.9019,2.147 5.1642,2.7009 7.8764,3.1246c2.9203,0.456 6.1076,0.6574 9.0165,0.1064c0.1434,-0.0247 0.6032,0.2004 0.322,0.2555zM222.19472,270.5578c-0.2451,2.6961 -0.8113,5.5518 -3.9843,5.8387c-0.1387,0.0123 -0.5985,-0.2271 -0.3211,-0.2546c3.0923,-0.2793 3.5597,-3.1607 3.7934,-5.7209c0.0133,-0.1425 0.5291,-0.0361 0.512,0.1368zM221.98482,270.29375c0.2327,0.6916 -1.444,1.69 -1.9399,1.9712c-1.1676,0.6603 -2.4168,1.008 -3.7411,1.1799c-2.6771,0.3534 -5.4635,-0.1387 -8.0551,-0.8132c-0.303,-0.0788 -0.2451,-0.2964 0.0599,-0.2175c2.1688,0.5643 4.3785,0.9186 6.6262,0.8607c1.292,-0.0352 2.5669,-0.2945 3.7687,-0.7714c0.4484,-0.1777 3.0333,-1.5115 2.774,-2.2848c-0.0542,-0.1463 0.4541,-0.0788 0.5073,0.0751zM221.84422,270.38964c-2.9792,-1.2141 -6.4876,-1.9237 -8.7847,-4.3348c-0.1396,-0.1387 0.3724,-0.0969 0.4722,0.0114c2.2011,2.3075 5.6449,2.982 8.5053,4.1458c0.3344,0.1387 0.0228,0.266 -0.1928,0.1776z" fill="#000000" stroke-width="0.95"/><path d="M249.62541,106.68588c0,-1.38071 1.11929,-2.5 2.5,-2.5c1.38071,0 2.5,1.11929 2.5,2.5c0,1.38071 -1.11929,2.5 -2.5,2.5c-1.38071,0 -2.5,-1.11929 -2.5,-2.5z" fill="#ffbb80" stroke-width="0.5"/></g></g></svg>