<svg version="1.1" xmlns="http://www.w3.org/2000/svg" xmlns:xlink="http://www.w3.org/1999/xlink" width="106.46058" height="60.39518" viewBox="0,0,106.46058,60.39518"><g transform="translate(-181.15068,-171.29851)"><g data-paper-data="{&quot;isPaintingLayer&quot;:true}" fill-rule="nonzero" stroke="none" stroke-width="0.66342" stroke-linecap="butt" stroke-linejoin="miter" stroke-miterlimit="10" stroke-dasharray="" stroke-dashoffset="0" style="mix-blend-mode: normal"><g><g><path d="M254.91752,230.64361c-5.23904,-0.05963 -10.18846,-0.11563 -13.82404,-0.1228c-0.5088,0.01924 -1.20847,0.02886 -2.03757,0.02886c-9.04452,0 -33.81878,-1.11635 -34.0681,-1.12779c-1.22771,0.00663 -2.79323,0.13796 -4.45024,0.27764c-1.99482,0.16736 -4.25638,0.35823 -6.424,0.35823c-4.4467,0 -10.5034,-0.69186 -11.75589,-6.67695c-0.28835,-1.37883 0.46242,-3.49826 1.33136,-5.95196c0.64966,-1.83345 1.32101,-3.72888 1.34507,-4.88435c0.02287,-1.07424 -0.11018,-2.37174 -0.25104,-3.74522c-0.3438,-3.35023 -0.73343,-7.14782 0.97603,-9.63392c1.84434,-2.68432 5.05362,-4.57613 7.88479,-6.24521c2.05989,-1.21455 4.00534,-2.36158 4.99399,-3.56461c1.03802,-1.2632 1.88345,-2.6511 2.70111,-3.9939c1.77509,-2.91422 3.45134,-5.66715 6.78714,-6.80456c1.28671,-0.43892 2.54637,-0.65211 3.84932,-0.65211c1.8064,0 3.48446,0.40706 5.26073,0.83763c2.15138,0.52142 4.37682,1.0609 7.30674,1.0609c1.27654,0 2.55907,-0.10174 3.92048,-0.31185c5.50279,-0.84779 7.24112,-2.09302 9.08173,-3.41167c1.92684,-1.38001 3.91921,-2.80767 9.9013,-3.6187c1.2711,-0.17281 2.52831,-0.26012 3.73678,-0.26012c11.62819,0 19.93383,8.24365 21.16155,21.00199c0.498,5.18368 1.48432,7.87854 6.01171,9.86973c3.47539,1.52876 3.41472,5.05911 5.73047,8.39554c0.74977,1.08054 1.98789,2.41804 2.4603,3.92262c0.95991,3.05726 0.28297,6.80436 -3.40077,10.4872c-2.87189,2.87118 -6.42589,4.90514 -8.78274,4.9105c0,0 -13.04497,-0.07288 -19.4462,-0.14513z" fill="#91b6c5"/><path d="M251.18501,173.10494c-1.15846,0 -2.36276,0.08187 -3.6157,0.25168c-11.44277,1.55227 -7.45976,5.25592 -18.96688,7.02792c-1.48484,0.22881 -2.82818,0.32274 -4.05825,0.32274c-5.54136,0 -8.80791,-1.89852 -12.5681,-1.89852c-1.11817,0 -2.27962,0.16745 -3.55798,0.60337c-4.50379,1.53539 -5.7954,6.5174 -9.08237,10.51729c-2.50607,3.04909 -9.76761,5.28896 -12.8324,9.74773c-2.1767,3.16535 -0.48529,9.13474 -0.56544,12.8854c-0.05899,2.77998 -3.14003,8.50731 -2.6963,10.63282c1.02423,4.89224 5.75628,5.95859 10.87198,5.95859c3.90831,0 8.04008,-0.62198 10.91518,-0.6346c0,0 24.89832,1.12652 34.02716,1.12652c0.81584,0 1.50408,-0.00962 2.03938,-0.02886c8.02864,0.01561 22.47594,0.27037 32.11893,0.27037c0.39081,0 0.77373,0 1.14821,-0.00127c6.65983,-0.01554 9.19861,-6.97555 11.61799,-13.09993c0.67128,-1.69928 0.18988,-2.42556 -0.78721,-3.31751c-0.80698,-0.73666 -0.73381,-1.58634 -1.8469,-3.1905c-1.63049,-2.34931 -3.06684,-5.18475 -4.96257,-6.28513c-4.06049,-2.35691 -6.28735,-3.94799 -6.93671,-10.70325c-1.05799,-11.00313 -7.9986,-20.18488 -20.26202,-20.18488M250.94136,173.10494v-1.8064v0c6.2777,0 11.692,2.26338 15.65758,6.54444c3.60127,3.88735 5.81464,9.16914 6.40231,15.27339c0.42576,4.43164 0.30203,6.71731 5.23276,8.88611c3.42311,1.50589 5.06264,5.45041 5.43437,6.13713c1.89439,3.4997 5.27141,7.26207 3.39137,10.86508c-3.11298,5.96639 -5.75703,12.67094 -12.93671,12.68782l-1.15247,0.00118c-5.28061,0 -11.90211,-0.07524 -18.30569,-0.14749c-5.22161,-0.05963 -10.15416,-0.11499 -13.78257,-0.12289c-0.53467,0.0187 -1.23071,0.02895 -2.07006,0.02895c-8.87952,0 -32.85182,-1.07179 -34.06265,-1.12661c-1.22953,0.00844 -2.76011,0.13668 -4.37981,0.27337c-2.01233,0.16981 -4.29377,0.36132 -6.49933,0.36132c-2.74323,0 -11.09162,0 -12.63908,-7.39532c-0.34026,-1.62633 0.44917,-3.85595 1.36376,-6.4378c0.59611,-1.6836 1.27228,-3.59229 1.29333,-4.60326c0.02169,-1.0176 -0.10891,-2.28806 -0.24687,-3.63322c-0.36005,-3.50488 -0.76765,-7.47773 1.1296,-10.23666c1.95815,-2.84923 5.25892,-4.79531 8.17141,-6.5125c1.98883,-1.17298 3.86738,-2.28026 4.75492,-3.35985c0.99709,-1.21392 1.82628,-2.57405 2.62769,-3.89034c1.78044,-2.92393 3.62178,-5.94651 7.26762,-7.18929c1.38182,-0.4715 2.7366,-0.70031 4.14075,-0.70031c1.91413,0 3.64284,0.41913 5.47329,0.86286c2.10019,0.5088 4.27145,1.03566 7.09418,1.03566c1.22953,0 2.46695,-0.0982 3.78316,-0.30105c5.28905,-0.81466 6.94306,-1.99908 8.69346,-3.2533c2.01651,-1.44445 4.10163,-2.93772 10.30527,-3.77953c1.31203,-0.17762 2.60963,-0.26792 3.8584,-0.26792z" fill="#000000"/></g><path d="M209.42168,193.34763c-3.90532,-0.9194 -7.05261,-0.056 -10.26071,2.27599c-2.36031,1.71482 -4.56651,4.03002 -7.27361,5.19393c-0.44019,0.18842 -1.01524,-0.37212 -0.5648,-0.73162c5.58883,-4.46231 10.78576,-10.9887 18.68625,-8.86082c1.3722,0.36912 0.79234,2.44644 -0.58713,2.12252z" fill="#231f20"/><path d="M197.67187,199.18397c-0.31249,0.02768 -0.3703,-0.46841 -0.0746,-0.54129c6.13557,-1.47939 10.97971,-5.61533 17.49466,-3.38989c1.19032,0.40642 0.68333,2.29641 -0.52087,1.8918c-3.35985,-1.12779 -6.46439,-1.09466 -9.77487,0.17762c-2.38137,0.9165 -4.57613,1.63722 -7.12431,1.86176z" fill="#231f20"/><path d="M262.6035,212.96054c1.85214,-1.60945 4.23351,-3.41403 5.22098,-5.72315c0.71773,-1.67335 1.04111,-3.61153 0.43656,-5.38181c-0.55582,-1.63232 -1.60645,-2.17062 -2.54936,-3.3947c-1.28798,-1.66908 -2.51814,-6.15436 -1.35841,-8.12322c0.35769,-0.60455 1.13859,-0.52205 1.51134,0c0.85741,1.19822 0.58341,3.62777 0.76229,5.01804c0.31185,2.41213 2.81792,3.77653 3.10935,6.30003c0.58404,5.02167 -2.72162,9.02455 -6.33433,12.10323c-0.55037,0.46841 -1.34997,-0.31857 -0.79842,-0.79842z" fill="#231f20"/><path d="M260.6821,217.59385c-0.35524,0.1012 -0.59847,-0.43955 -0.25467,-0.60873c2.51987,-1.22653 5.70809,-2.47893 7.61804,-4.60508c1.01034,-1.12588 2.20738,-2.64929 2.25911,-4.25338c0.02832,-0.85859 -0.08005,-1.64975 0.12588,-2.48728c0.1493,-0.60337 1.03022,-0.722 1.32891,-0.17281c1.27228,2.34824 -0.92793,5.51903 -2.63549,7.08093c-2.51569,2.30249 -5.16198,4.11007 -8.44178,5.04636z" fill="#231f20"/><path d="M246.89536,177.41369c-3.49054,0.16137 -5.49979,2.03693 -8.33523,3.74758c-2.34161,1.41441 -4.5135,2.1767 -7.15735,2.80948c-0.05418,0.01271 -0.07288,-0.06498 -0.02115,-0.08123c3.32554,-1.08921 6.3091,-3.1708 9.15171,-5.14156c1.92856,-1.33844 3.92402,-2.6836 6.36201,-2.44944c0.70684,0.06871 0.7279,1.08141 0,1.11517z" fill="#231f20"/></g></g></g></svg>