<?xml version="1.0" encoding="utf-8"?>
<!-- Generator: Adobe Illustrator 23.0.2, SVG Export Plug-In . SVG Version: 6.00 Build 0)  -->
<svg version="1.1" id="Layer_1" xmlns="http://www.w3.org/2000/svg" xmlns:xlink="http://www.w3.org/1999/xlink" x="0px" y="0px"
	 viewBox="0 0 57 71" style="enable-background:new 0 0 57 71;" xml:space="preserve">
<style type="text/css">
	.st0{clip-path:url(#SVGID_2_);fill:#C7C62C;}
	.st1{clip-path:url(#SVGID_2_);fill:none;stroke:#C7C62C;stroke-width:4;}
	.st2{clip-path:url(#SVGID_2_);fill:#FFFFFF;}
</style>
<g>
	<defs>
		<rect id="SVGID_1_" x="1" y="1.73" width="55.31" height="67.27"/>
	</defs>
	<clipPath id="SVGID_2_">
		<use xlink:href="#SVGID_1_"  style="overflow:visible;"/>
	</clipPath>
	<path class="st0" d="M28.68,65.99c3.1-3.43,10.09-11.2,12.56-14.11c0.96-1.13,1.95-2.24,2.93-3.34
		c5.21-5.84,10.14-11.36,10.14-19.15c0-14.15-11.51-25.65-25.65-25.65C14.51,3.73,3,15.24,3,29.39c0,8.3,5.4,14.09,11.11,20.22
		c0.75,0.8,1.49,1.6,2.23,2.41C18.88,54.81,25.66,62.54,28.68,65.99"/>
	<path class="st1" d="M28.68,65.99c3.1-3.43,10.09-11.2,12.56-14.11c0.96-1.13,1.95-2.24,2.93-3.34
		c5.21-5.84,10.14-11.36,10.14-19.15c0-14.15-11.51-25.65-25.65-25.65C14.51,3.73,3,15.24,3,29.39c0,8.3,5.4,14.09,11.11,20.22
		c0.75,0.8,1.49,1.6,2.23,2.41C18.88,54.81,25.66,62.54,28.68,65.99z"/>
	<path class="st2" d="M28.65,40.89c6.48,0,11.73-5.25,11.73-11.73c0-6.48-5.25-11.74-11.73-11.74s-11.73,5.25-11.73,11.74
		C16.92,35.63,22.17,40.89,28.65,40.89"/>
</g>
</svg>
