<svg xmlns="http://www.w3.org/2000/svg" width="253.294" height="72.535" viewBox="0 0 253.294 72.535">
  <g id="logo" transform="translate(-191.758 -444)">
    <g id="Group_23" data-name="Group 23" transform="translate(191.853 444)">
      <path id="Path_27" data-name="Path 27" d="M220.047,506.9c-3.4.42-3.7.924-3.7,4.62v17.132c0,3.864.379,4.073,3.7,4.535v.5H209.716v-.5c3.4-.462,3.654-1.008,3.654-4.535v-9.2H198.546v9.2c0,3.612.378,4.073,3.7,4.535v.5H191.911v-.5c3.358-.419,3.654-.923,3.654-4.535V511.524c0-3.991-.253-4.116-3.654-4.62v-.5h10.331v.5c-3.4.462-3.7.8-3.7,4.62v6.76H213.37v-6.76c0-3.781-.169-4.243-3.654-4.62v-.5h10.331Z" transform="translate(-191.911 -467.707)" fill="#182815"/>
      <path id="Path_28" data-name="Path 28" d="M259.458,520.312c-2.519.462-2.73.966-2.815,2.772-.042,1.26-.126,2.268-.126,4.787v2.185c0,3.023-.42,5.711-2.1,7.348a7.277,7.277,0,0,1-5.46,1.891,8.463,8.463,0,0,1-5-1.429c-1.721-1.386-2.477-3.107-2.477-6.593v-7.558c0-2.521-.169-2.9-2.856-3.4v-.5h8.778v.5c-2.815.462-3.065.924-3.065,3.4v7.348c0,4.746,2.268,6.719,5.375,6.719,4.325,0,5.627-2.645,5.627-7.474V528c0-2.519-.042-3.738-.127-4.829-.125-1.848-.5-2.436-3.192-2.856v-.5h7.434Z" transform="translate(-209.66 -472.801)" fill="#182815"/>
      <path id="Path_29" data-name="Path 29" d="M295.614,520.312c-2.268.378-2.856.966-2.94,2.521-.042.882-.127,2.268-.127,5.08V539h-.671l-13.27-15.37v7.054c0,2.772.082,3.823.167,4.829.084,1.89.673,2.31,3.192,2.772v.5h-7.559v-.5c2.057-.42,2.688-.713,2.815-2.73.084-1.049.167-2.1.167-4.871V523.5a2.065,2.065,0,0,0-.378-1.553,4.535,4.535,0,0,0-3.107-1.639v-.5h5.039l12.43,14.2v-6.09c0-2.813-.043-3.863-.127-4.956-.124-1.721-.461-2.268-3.107-2.645v-.5h7.476Z" transform="translate(-223.061 -472.801)" fill="#182815"/>
      <path id="Path_30" data-name="Path 30" d="M329.348,524.076a10.435,10.435,0,0,0-.84-2.268c-.671-1.217-1.429-1.47-3.275-1.47h-2.687v14.111c0,2.561.209,2.939,3.15,3.4v.5h-9.114v-.5c2.9-.42,3.108-.882,3.108-3.358V520.338h-2.772c-1.891,0-2.477.546-3.066,1.763a11.437,11.437,0,0,0-.8,1.974h-.631c.127-1.386.335-3.947.378-5.418h.5a1.659,1.659,0,0,0,1.681.714h12.85a1.607,1.607,0,0,0,1.553-.714h.462c0,1.218.084,3.57.126,5.333Z" transform="translate(-237.696 -472.364)" fill="#182815"/>
      <path id="Path_31" data-name="Path 31" d="M359.8,533.911c-.209,1.133-.84,3.947-1.091,4.829H343.5v-.5c3.317-.5,3.36-.839,3.36-3.569V523.58c0-2.646-.209-2.815-2.9-3.319v-.5h10.078c1.471,0,3.193-.042,3.823-.082.042.8.084,2.854.251,4.576l-.587.084a8.606,8.606,0,0,0-.965-2.434,2.481,2.481,0,0,0-2.48-1.135h-3.358c-.925,0-1.009.042-1.009,1.177v6.382h3.319c2.434,0,2.6-.293,3.066-2.6h.544v6.215H356.1c-.463-2.225-.8-2.476-3.066-2.476h-3.319v5.668c0,1.344.127,2.352,1.471,2.519a17.562,17.562,0,0,0,2.561.127c2.687,0,3.4-.209,4.073-1.133a16.018,16.018,0,0,0,1.47-2.856Z" transform="translate(-249.504 -472.75)" fill="#182815"/>
      <path id="Path_32" data-name="Path 32" d="M380.671,529.468a6,6,0,0,0,3.065-.588,4.29,4.29,0,0,0,1.637-3.738,4.129,4.129,0,0,0-4.367-4.494c-1.806,0-1.974.463-1.974,1.849v6.972Zm11.337,9.573-1.133-.082c-2.521-.127-3.7-.631-4.871-2.225-.966-1.3-2.521-3.781-3.107-4.789-.8-1.3-1.135-1.595-2.857-1.595h-1.008v4.62c0,2.519.211,2.854,3.149,3.316v.5h-8.818v-.5c2.772-.5,2.9-.755,2.9-3.316v-11.3c0-2.646-.208-2.857-2.9-3.361v-.5h8.313a8.673,8.673,0,0,1,4.747,1.008,4.329,4.329,0,0,1,2.015,3.822c0,2.854-2.141,4.325-3.862,5.037.462.8,1.806,2.857,2.687,4.158a21.446,21.446,0,0,0,2.393,3.15,5.142,5.142,0,0,0,2.478,1.555Z" transform="translate(-260.848 -472.801)" fill="#182815"/>
      <path id="Path_33" data-name="Path 33" d="M416.98,524.247c-.882-2.646-2.1-4.367-4.829-4.367a3.018,3.018,0,0,0-3.107,3.19c0,2.268,1.763,3.234,3.611,4.158l.671.378c2.226,1.093,4.831,2.687,4.831,5.671,0,3.486-3.15,5.711-6.761,5.711a12.623,12.623,0,0,1-4.789-1.009,39.7,39.7,0,0,1-.881-4.786l.588-.127c.713,2.772,2.6,5.039,5.753,5.039a3.2,3.2,0,0,0,3.361-3.443c.042-2.352-1.6-3.445-3.319-4.369l-1.093-.586c-2.477-1.344-4.409-2.814-4.409-5.586,0-2.939,2.437-5.122,6.342-5.122a18.225,18.225,0,0,1,4.032.544c.126,1.22.293,3.107.588,4.536Z" transform="translate(-273.143 -472.493)" fill="#182815"/>
      <path id="Path_34" data-name="Path 34" d="M451.685,520.215c2.1,0,3.277-.084,4.452-.924,1.681-1.175,2.226-2.9,2.226-5.417,0-4.578-2.519-6.635-6.089-6.635a5.685,5.685,0,0,0-2.645.378c-.378.253-.5.631-.5,1.974v10.624Zm15.455,13.691c-.335,0-1.344,0-1.637-.042-3.529-.211-4.369-.631-6.048-2.9-1.386-1.933-3.4-5.291-4.871-7.81-1.093-1.848-1.555-2.1-3.7-2.1h-1.763v7.978c0,3.234.335,3.7,3.7,4.158v.5H442.489v-.5c3.277-.5,3.654-.84,3.654-4.158V510.977c0-3.234-.3-3.569-3.654-4.073v-.5h10.038c2.854,0,5.122.462,6.634,1.553a6.133,6.133,0,0,1,2.561,5.166c0,3.443-2.31,5.837-5.375,7.181.8,1.429,2.73,4.62,3.989,6.508a40.182,40.182,0,0,0,3.485,4.831,5.02,5.02,0,0,0,3.445,1.763Z" transform="translate(-287.11 -467.707)" fill="#182815"/>
      <path id="Path_35" data-name="Path 35" d="M483.79,538.79v-.5c2.6-.462,2.9-.671,2.9-3.276V523.589c0-2.519-.251-2.815-2.9-3.276v-.5h8.692v.5c-2.728.462-2.939.673-2.939,3.276v11.421c0,2.521.211,2.815,2.939,3.276v.5Z" transform="translate(-302.801 -472.801)" fill="#182815"/>
      <path id="Path_36" data-name="Path 36" d="M508.1,534.465c0,2.268.84,3.358,4.074,3.358,4.031,0,6.383-3.192,6.383-8.567,0-6.257-3.025-8.609-7.9-8.609a3.411,3.411,0,0,0-2.225.546,3.063,3.063,0,0,0-.336,1.848Zm2.772-14.657c3.528,0,6.384.673,8.356,2.521a8.8,8.8,0,0,1,2.519,6.3c0,6.843-5.207,10.162-10.876,10.162h-8.525v-.5c2.73-.42,2.9-.882,2.9-3.276V523.63c0-2.687-.25-2.856-2.9-3.318v-.5Z" transform="translate(-309.85 -472.801)" fill="#182815"/>
      <path id="Path_37" data-name="Path 37" d="M558.229,529.915c-1.93.5-2.1.716-2.1,2.562v2.687a14.137,14.137,0,0,0,.253,2.687,27.006,27.006,0,0,1-6.595,1.135c-6.55,0-10.751-3.823-10.751-9.784,0-6.8,5.291-10.2,11.339-10.2a31.287,31.287,0,0,1,5.544.671c.082,1.093.251,3.15.462,4.914l-.631.127c-.84-3.149-2.6-4.788-6.51-4.788-4.283,0-7.055,3.191-7.055,8.736,0,4.662,2.437,9.491,8.021,9.491,1.974,0,3.276-.757,3.276-2.73V532.6c0-2.015-.293-2.31-3.023-2.688v-.5h7.768Z" transform="translate(-323.791 -472.493)" fill="#182815"/>
      <path id="Path_38" data-name="Path 38" d="M589.32,533.911c-.209,1.133-.84,3.947-1.091,4.829h-15.2v-.5c3.316-.5,3.359-.839,3.359-3.569V523.58c0-2.646-.209-2.815-2.9-3.319v-.5h10.078c1.471,0,3.192-.042,3.823-.082.042.8.084,2.854.251,4.576l-.586.084a8.606,8.606,0,0,0-.966-2.434,2.48,2.48,0,0,0-2.479-1.135H580.25c-.924,0-1.008.042-1.008,1.177v6.382h3.318c2.435,0,2.6-.293,3.066-2.6h.544v6.215h-.544c-.463-2.225-.8-2.476-3.066-2.476h-3.318v5.668c0,1.344.127,2.352,1.47,2.519a17.59,17.59,0,0,0,2.562.127c2.687,0,3.4-.209,4.073-1.133a16.052,16.052,0,0,0,1.47-2.856Z" transform="translate(-336.704 -472.75)" fill="#182815"/>
      <path id="Path_39" data-name="Path 39" d="M383.608,473.717a9.511,9.511,0,0,0,7.15-7.431.052.052,0,0,1,.1,0c.637,2.793-1.806,7.659-7.241,7.54a.054.054,0,0,1-.011-.106m-3.239-20.024a10.827,10.827,0,0,0-8.555,5.775.054.054,0,0,1-.1-.032c.635-4.049,5.8-6.815,8.667-5.847a.054.054,0,0,1-.011.1m-26.037,3.585.668.644a.26.26,0,0,0,.364-.009l.127-.132a2,2,0,0,0,2,.453l1,.956-.02.02a.685.685,0,0,0,.989.949l.02-.02,4.114,4.068-.4.415a.272.272,0,0,0,.045.414.283.283,0,0,0,.359-.048l.381-.4,3.914,3.872,5,4.943a11.62,11.62,0,0,0,.89.771,12.391,12.391,0,1,0-4.682-10.156l1.519,1.24,1.517,1.237,1.2.977a8.744,8.744,0,0,1-.441-4.29,8.638,8.638,0,1,1,3.477,8.292c-.316-.229-15.576-12.712-15.576-12.712h0a.685.685,0,0,0-.991-.947l-1-.956a2,2,0,0,0-.536-1.982l.126-.133a.257.257,0,0,0-.007-.361l-.673-.642a.256.256,0,0,0-.361.006l-3.033,3.168a.255.255,0,0,0,.009.361" transform="translate(-253.588 -447.08)" fill="#c38421"/>
      <path id="Path_40" data-name="Path 40" d="M421.4,454.849c3.385-6.558,3.226-8.743,2.851-9.7a10.419,10.419,0,0,1,2.429,1.514,23.271,23.271,0,0,1-5.2,8.255.054.054,0,0,1-.085-.064m9.239,3.316a9.066,9.066,0,0,1,4.2-3.685,10.371,10.371,0,0,1,1.62,2.359c-.971-.33-2.575-.377-5.751,1.4a.053.053,0,0,1-.07-.076m-11.132,8.085c4.545-3.648,11.689-7.531,15.4-8.378,1.246.614,2.186.787,2.584.373.949-.991-1.556-4.931-5.6-8.8s-8.087-6.206-9.036-5.216c-.394.414-.182,1.344.487,2.566a27.562,27.562,0,0,1-3.831,9.741,14.209,14.209,0,0,1,0,9.715" transform="translate(-278.381 -444)" fill="#c38421"/>
    </g>
    <line id="Line_1" data-name="Line 1" x2="253.294" transform="translate(191.758 515.744)" fill="none" stroke="#1a1818" stroke-width="1.583"/>
    <line id="Line_2" data-name="Line 2" x2="253.294" transform="translate(191.758 478.209)" fill="none" stroke="#1a1818" stroke-width="1.583"/>
  </g>
</svg>
